%TF.GenerationSoftware,KiCad,Pcbnew,(5.1.9-0-10_14)*%
%TF.CreationDate,2021-02-13T17:17:21+01:00*%
%TF.ProjectId,Arduino Uno ISP Shield,41726475-696e-46f2-9055-6e6f20495350,rev?*%
%TF.SameCoordinates,Original*%
%TF.FileFunction,Paste,Top*%
%TF.FilePolarity,Positive*%
%FSLAX46Y46*%
G04 Gerber Fmt 4.6, Leading zero omitted, Abs format (unit mm)*
G04 Created by KiCad (PCBNEW (5.1.9-0-10_14)) date 2021-02-13 17:17:21*
%MOMM*%
%LPD*%
G01*
G04 APERTURE LIST*
G04 APERTURE END LIST*
%TO.C,R3*%
G36*
G01*
X158057000Y-98246250D02*
X158057000Y-97333750D01*
G75*
G02*
X158300750Y-97090000I243750J0D01*
G01*
X158788250Y-97090000D01*
G75*
G02*
X159032000Y-97333750I0J-243750D01*
G01*
X159032000Y-98246250D01*
G75*
G02*
X158788250Y-98490000I-243750J0D01*
G01*
X158300750Y-98490000D01*
G75*
G02*
X158057000Y-98246250I0J243750D01*
G01*
G37*
G36*
G01*
X156182000Y-98246250D02*
X156182000Y-97333750D01*
G75*
G02*
X156425750Y-97090000I243750J0D01*
G01*
X156913250Y-97090000D01*
G75*
G02*
X157157000Y-97333750I0J-243750D01*
G01*
X157157000Y-98246250D01*
G75*
G02*
X156913250Y-98490000I-243750J0D01*
G01*
X156425750Y-98490000D01*
G75*
G02*
X156182000Y-98246250I0J243750D01*
G01*
G37*
%TD*%
%TO.C,R2*%
G36*
G01*
X158057000Y-100786250D02*
X158057000Y-99873750D01*
G75*
G02*
X158300750Y-99630000I243750J0D01*
G01*
X158788250Y-99630000D01*
G75*
G02*
X159032000Y-99873750I0J-243750D01*
G01*
X159032000Y-100786250D01*
G75*
G02*
X158788250Y-101030000I-243750J0D01*
G01*
X158300750Y-101030000D01*
G75*
G02*
X158057000Y-100786250I0J243750D01*
G01*
G37*
G36*
G01*
X156182000Y-100786250D02*
X156182000Y-99873750D01*
G75*
G02*
X156425750Y-99630000I243750J0D01*
G01*
X156913250Y-99630000D01*
G75*
G02*
X157157000Y-99873750I0J-243750D01*
G01*
X157157000Y-100786250D01*
G75*
G02*
X156913250Y-101030000I-243750J0D01*
G01*
X156425750Y-101030000D01*
G75*
G02*
X156182000Y-100786250I0J243750D01*
G01*
G37*
%TD*%
%TO.C,R1*%
G36*
G01*
X158057000Y-103326250D02*
X158057000Y-102413750D01*
G75*
G02*
X158300750Y-102170000I243750J0D01*
G01*
X158788250Y-102170000D01*
G75*
G02*
X159032000Y-102413750I0J-243750D01*
G01*
X159032000Y-103326250D01*
G75*
G02*
X158788250Y-103570000I-243750J0D01*
G01*
X158300750Y-103570000D01*
G75*
G02*
X158057000Y-103326250I0J243750D01*
G01*
G37*
G36*
G01*
X156182000Y-103326250D02*
X156182000Y-102413750D01*
G75*
G02*
X156425750Y-102170000I243750J0D01*
G01*
X156913250Y-102170000D01*
G75*
G02*
X157157000Y-102413750I0J-243750D01*
G01*
X157157000Y-103326250D01*
G75*
G02*
X156913250Y-103570000I-243750J0D01*
G01*
X156425750Y-103570000D01*
G75*
G02*
X156182000Y-103326250I0J243750D01*
G01*
G37*
%TD*%
%TO.C,D3*%
G36*
G01*
X162872000Y-97333750D02*
X162872000Y-98246250D01*
G75*
G02*
X162628250Y-98490000I-243750J0D01*
G01*
X162140750Y-98490000D01*
G75*
G02*
X161897000Y-98246250I0J243750D01*
G01*
X161897000Y-97333750D01*
G75*
G02*
X162140750Y-97090000I243750J0D01*
G01*
X162628250Y-97090000D01*
G75*
G02*
X162872000Y-97333750I0J-243750D01*
G01*
G37*
G36*
G01*
X164747000Y-97333750D02*
X164747000Y-98246250D01*
G75*
G02*
X164503250Y-98490000I-243750J0D01*
G01*
X164015750Y-98490000D01*
G75*
G02*
X163772000Y-98246250I0J243750D01*
G01*
X163772000Y-97333750D01*
G75*
G02*
X164015750Y-97090000I243750J0D01*
G01*
X164503250Y-97090000D01*
G75*
G02*
X164747000Y-97333750I0J-243750D01*
G01*
G37*
%TD*%
%TO.C,D2*%
G36*
G01*
X162872000Y-99873750D02*
X162872000Y-100786250D01*
G75*
G02*
X162628250Y-101030000I-243750J0D01*
G01*
X162140750Y-101030000D01*
G75*
G02*
X161897000Y-100786250I0J243750D01*
G01*
X161897000Y-99873750D01*
G75*
G02*
X162140750Y-99630000I243750J0D01*
G01*
X162628250Y-99630000D01*
G75*
G02*
X162872000Y-99873750I0J-243750D01*
G01*
G37*
G36*
G01*
X164747000Y-99873750D02*
X164747000Y-100786250D01*
G75*
G02*
X164503250Y-101030000I-243750J0D01*
G01*
X164015750Y-101030000D01*
G75*
G02*
X163772000Y-100786250I0J243750D01*
G01*
X163772000Y-99873750D01*
G75*
G02*
X164015750Y-99630000I243750J0D01*
G01*
X164503250Y-99630000D01*
G75*
G02*
X164747000Y-99873750I0J-243750D01*
G01*
G37*
%TD*%
%TO.C,D1*%
G36*
G01*
X162872000Y-102413750D02*
X162872000Y-103326250D01*
G75*
G02*
X162628250Y-103570000I-243750J0D01*
G01*
X162140750Y-103570000D01*
G75*
G02*
X161897000Y-103326250I0J243750D01*
G01*
X161897000Y-102413750D01*
G75*
G02*
X162140750Y-102170000I243750J0D01*
G01*
X162628250Y-102170000D01*
G75*
G02*
X162872000Y-102413750I0J-243750D01*
G01*
G37*
G36*
G01*
X164747000Y-102413750D02*
X164747000Y-103326250D01*
G75*
G02*
X164503250Y-103570000I-243750J0D01*
G01*
X164015750Y-103570000D01*
G75*
G02*
X163772000Y-103326250I0J243750D01*
G01*
X163772000Y-102413750D01*
G75*
G02*
X164015750Y-102170000I243750J0D01*
G01*
X164503250Y-102170000D01*
G75*
G02*
X164747000Y-102413750I0J-243750D01*
G01*
G37*
%TD*%
%TO.C,C2*%
G36*
G01*
X149548000Y-98246250D02*
X149548000Y-97333750D01*
G75*
G02*
X149791750Y-97090000I243750J0D01*
G01*
X150279250Y-97090000D01*
G75*
G02*
X150523000Y-97333750I0J-243750D01*
G01*
X150523000Y-98246250D01*
G75*
G02*
X150279250Y-98490000I-243750J0D01*
G01*
X149791750Y-98490000D01*
G75*
G02*
X149548000Y-98246250I0J243750D01*
G01*
G37*
G36*
G01*
X147673000Y-98246250D02*
X147673000Y-97333750D01*
G75*
G02*
X147916750Y-97090000I243750J0D01*
G01*
X148404250Y-97090000D01*
G75*
G02*
X148648000Y-97333750I0J-243750D01*
G01*
X148648000Y-98246250D01*
G75*
G02*
X148404250Y-98490000I-243750J0D01*
G01*
X147916750Y-98490000D01*
G75*
G02*
X147673000Y-98246250I0J243750D01*
G01*
G37*
%TD*%
%TO.C,C1*%
G36*
G01*
X105980000Y-122894000D02*
X105980000Y-123994000D01*
G75*
G02*
X105730000Y-124244000I-250000J0D01*
G01*
X103230000Y-124244000D01*
G75*
G02*
X102980000Y-123994000I0J250000D01*
G01*
X102980000Y-122894000D01*
G75*
G02*
X103230000Y-122644000I250000J0D01*
G01*
X105730000Y-122644000D01*
G75*
G02*
X105980000Y-122894000I0J-250000D01*
G01*
G37*
G36*
G01*
X110380000Y-122894000D02*
X110380000Y-123994000D01*
G75*
G02*
X110130000Y-124244000I-250000J0D01*
G01*
X107630000Y-124244000D01*
G75*
G02*
X107380000Y-123994000I0J250000D01*
G01*
X107380000Y-122894000D01*
G75*
G02*
X107630000Y-122644000I250000J0D01*
G01*
X110130000Y-122644000D01*
G75*
G02*
X110380000Y-122894000I0J-250000D01*
G01*
G37*
%TD*%
M02*
