%TF.GenerationSoftware,KiCad,Pcbnew,(5.1.9-0-10_14)*%
%TF.CreationDate,2021-02-13T17:17:21+01:00*%
%TF.ProjectId,Arduino Uno ISP Shield,41726475-696e-46f2-9055-6e6f20495350,rev?*%
%TF.SameCoordinates,Original*%
%TF.FileFunction,Legend,Top*%
%TF.FilePolarity,Positive*%
%FSLAX46Y46*%
G04 Gerber Fmt 4.6, Leading zero omitted, Abs format (unit mm)*
G04 Created by KiCad (PCBNEW (5.1.9-0-10_14)) date 2021-02-13 17:17:21*
%MOMM*%
%LPD*%
G01*
G04 APERTURE LIST*
%ADD10C,0.150000*%
%ADD11C,0.120000*%
%ADD12C,0.200000*%
%ADD13C,0.010000*%
%ADD14C,0.100000*%
G04 APERTURE END LIST*
D10*
X117166000Y-95924666D02*
X117642190Y-95924666D01*
X117070761Y-96210380D02*
X117404095Y-95210380D01*
X117737428Y-96210380D01*
X117927904Y-95210380D02*
X118499333Y-95210380D01*
X118213619Y-96210380D02*
X118213619Y-95210380D01*
X118832666Y-96210380D02*
X118832666Y-95210380D01*
X119166000Y-95924666D01*
X119499333Y-95210380D01*
X119499333Y-96210380D01*
X119975523Y-95686571D02*
X120308857Y-95686571D01*
X120451714Y-96210380D02*
X119975523Y-96210380D01*
X119975523Y-95210380D01*
X120451714Y-95210380D01*
X121404095Y-95258000D02*
X121308857Y-95210380D01*
X121166000Y-95210380D01*
X121023142Y-95258000D01*
X120927904Y-95353238D01*
X120880285Y-95448476D01*
X120832666Y-95638952D01*
X120832666Y-95781809D01*
X120880285Y-95972285D01*
X120927904Y-96067523D01*
X121023142Y-96162761D01*
X121166000Y-96210380D01*
X121261238Y-96210380D01*
X121404095Y-96162761D01*
X121451714Y-96115142D01*
X121451714Y-95781809D01*
X121261238Y-95781809D01*
X121832666Y-95924666D02*
X122308857Y-95924666D01*
X121737428Y-96210380D02*
X122070761Y-95210380D01*
X122404095Y-96210380D01*
X122642190Y-95210380D02*
X123261238Y-95210380D01*
X122927904Y-95591333D01*
X123070761Y-95591333D01*
X123166000Y-95638952D01*
X123213619Y-95686571D01*
X123261238Y-95781809D01*
X123261238Y-96019904D01*
X123213619Y-96115142D01*
X123166000Y-96162761D01*
X123070761Y-96210380D01*
X122785047Y-96210380D01*
X122689809Y-96162761D01*
X122642190Y-96115142D01*
X123642190Y-95305619D02*
X123689809Y-95258000D01*
X123785047Y-95210380D01*
X124023142Y-95210380D01*
X124118380Y-95258000D01*
X124166000Y-95305619D01*
X124213619Y-95400857D01*
X124213619Y-95496095D01*
X124166000Y-95638952D01*
X123594571Y-96210380D01*
X124213619Y-96210380D01*
X124785047Y-95638952D02*
X124689809Y-95591333D01*
X124642190Y-95543714D01*
X124594571Y-95448476D01*
X124594571Y-95400857D01*
X124642190Y-95305619D01*
X124689809Y-95258000D01*
X124785047Y-95210380D01*
X124975523Y-95210380D01*
X125070761Y-95258000D01*
X125118380Y-95305619D01*
X125166000Y-95400857D01*
X125166000Y-95448476D01*
X125118380Y-95543714D01*
X125070761Y-95591333D01*
X124975523Y-95638952D01*
X124785047Y-95638952D01*
X124689809Y-95686571D01*
X124642190Y-95734190D01*
X124594571Y-95829428D01*
X124594571Y-96019904D01*
X124642190Y-96115142D01*
X124689809Y-96162761D01*
X124785047Y-96210380D01*
X124975523Y-96210380D01*
X125070761Y-96162761D01*
X125118380Y-96115142D01*
X125166000Y-96019904D01*
X125166000Y-95829428D01*
X125118380Y-95734190D01*
X125070761Y-95686571D01*
X124975523Y-95638952D01*
X125594571Y-96210380D02*
X125594571Y-95210380D01*
X125975523Y-95210380D01*
X126070761Y-95258000D01*
X126118380Y-95305619D01*
X126166000Y-95400857D01*
X126166000Y-95543714D01*
X126118380Y-95638952D01*
X126070761Y-95686571D01*
X125975523Y-95734190D01*
X125594571Y-95734190D01*
X161234380Y-112982190D02*
X160234380Y-112982190D01*
X161139142Y-111934571D02*
X161186761Y-111982190D01*
X161234380Y-112125047D01*
X161234380Y-112220285D01*
X161186761Y-112363142D01*
X161091523Y-112458380D01*
X160996285Y-112506000D01*
X160805809Y-112553619D01*
X160662952Y-112553619D01*
X160472476Y-112506000D01*
X160377238Y-112458380D01*
X160282000Y-112363142D01*
X160234380Y-112220285D01*
X160234380Y-112125047D01*
X160282000Y-111982190D01*
X160329619Y-111934571D01*
X161186761Y-111553619D02*
X161234380Y-111410761D01*
X161234380Y-111172666D01*
X161186761Y-111077428D01*
X161139142Y-111029809D01*
X161043904Y-110982190D01*
X160948666Y-110982190D01*
X160853428Y-111029809D01*
X160805809Y-111077428D01*
X160758190Y-111172666D01*
X160710571Y-111363142D01*
X160662952Y-111458380D01*
X160615333Y-111506000D01*
X160520095Y-111553619D01*
X160424857Y-111553619D01*
X160329619Y-111506000D01*
X160282000Y-111458380D01*
X160234380Y-111363142D01*
X160234380Y-111125047D01*
X160282000Y-110982190D01*
X161234380Y-110553619D02*
X160234380Y-110553619D01*
X160234380Y-110172666D01*
X160282000Y-110077428D01*
X160329619Y-110029809D01*
X160424857Y-109982190D01*
X160567714Y-109982190D01*
X160662952Y-110029809D01*
X160710571Y-110077428D01*
X160758190Y-110172666D01*
X160758190Y-110553619D01*
D11*
X166370000Y-74930000D02*
X166370000Y-77470000D01*
D12*
X120182095Y-122372380D02*
X119848761Y-121896190D01*
X119610666Y-122372380D02*
X119610666Y-121372380D01*
X119991619Y-121372380D01*
X120086857Y-121420000D01*
X120134476Y-121467619D01*
X120182095Y-121562857D01*
X120182095Y-121705714D01*
X120134476Y-121800952D01*
X120086857Y-121848571D01*
X119991619Y-121896190D01*
X119610666Y-121896190D01*
X120610666Y-121848571D02*
X120944000Y-121848571D01*
X121086857Y-122372380D02*
X120610666Y-122372380D01*
X120610666Y-121372380D01*
X121086857Y-121372380D01*
X121467809Y-122324761D02*
X121610666Y-122372380D01*
X121848761Y-122372380D01*
X121944000Y-122324761D01*
X121991619Y-122277142D01*
X122039238Y-122181904D01*
X122039238Y-122086666D01*
X121991619Y-121991428D01*
X121944000Y-121943809D01*
X121848761Y-121896190D01*
X121658285Y-121848571D01*
X121563047Y-121800952D01*
X121515428Y-121753333D01*
X121467809Y-121658095D01*
X121467809Y-121562857D01*
X121515428Y-121467619D01*
X121563047Y-121420000D01*
X121658285Y-121372380D01*
X121896380Y-121372380D01*
X122039238Y-121420000D01*
X122467809Y-121848571D02*
X122801142Y-121848571D01*
X122944000Y-122372380D02*
X122467809Y-122372380D01*
X122467809Y-121372380D01*
X122944000Y-121372380D01*
X123229714Y-121372380D02*
X123801142Y-121372380D01*
X123515428Y-122372380D02*
X123515428Y-121372380D01*
X125467809Y-122277142D02*
X125420190Y-122324761D01*
X125277333Y-122372380D01*
X125182095Y-122372380D01*
X125039238Y-122324761D01*
X124944000Y-122229523D01*
X124896380Y-122134285D01*
X124848761Y-121943809D01*
X124848761Y-121800952D01*
X124896380Y-121610476D01*
X124944000Y-121515238D01*
X125039238Y-121420000D01*
X125182095Y-121372380D01*
X125277333Y-121372380D01*
X125420190Y-121420000D01*
X125467809Y-121467619D01*
X125848761Y-122086666D02*
X126324952Y-122086666D01*
X125753523Y-122372380D02*
X126086857Y-121372380D01*
X126420190Y-122372380D01*
X126753523Y-122372380D02*
X126753523Y-121372380D01*
X127134476Y-121372380D01*
X127229714Y-121420000D01*
X127277333Y-121467619D01*
X127324952Y-121562857D01*
X127324952Y-121705714D01*
X127277333Y-121800952D01*
X127229714Y-121848571D01*
X127134476Y-121896190D01*
X126753523Y-121896190D01*
X165600285Y-98242380D02*
X165600285Y-97242380D01*
X165981238Y-97242380D01*
X166076476Y-97290000D01*
X166124095Y-97337619D01*
X166171714Y-97432857D01*
X166171714Y-97575714D01*
X166124095Y-97670952D01*
X166076476Y-97718571D01*
X165981238Y-97766190D01*
X165600285Y-97766190D01*
X167171714Y-98242380D02*
X166838380Y-97766190D01*
X166600285Y-98242380D02*
X166600285Y-97242380D01*
X166981238Y-97242380D01*
X167076476Y-97290000D01*
X167124095Y-97337619D01*
X167171714Y-97432857D01*
X167171714Y-97575714D01*
X167124095Y-97670952D01*
X167076476Y-97718571D01*
X166981238Y-97766190D01*
X166600285Y-97766190D01*
X167790761Y-97242380D02*
X167981238Y-97242380D01*
X168076476Y-97290000D01*
X168171714Y-97385238D01*
X168219333Y-97575714D01*
X168219333Y-97909047D01*
X168171714Y-98099523D01*
X168076476Y-98194761D01*
X167981238Y-98242380D01*
X167790761Y-98242380D01*
X167695523Y-98194761D01*
X167600285Y-98099523D01*
X167552666Y-97909047D01*
X167552666Y-97575714D01*
X167600285Y-97385238D01*
X167695523Y-97290000D01*
X167790761Y-97242380D01*
X169171714Y-97290000D02*
X169076476Y-97242380D01*
X168933619Y-97242380D01*
X168790761Y-97290000D01*
X168695523Y-97385238D01*
X168647904Y-97480476D01*
X168600285Y-97670952D01*
X168600285Y-97813809D01*
X168647904Y-98004285D01*
X168695523Y-98099523D01*
X168790761Y-98194761D01*
X168933619Y-98242380D01*
X169028857Y-98242380D01*
X169171714Y-98194761D01*
X169219333Y-98147142D01*
X169219333Y-97813809D01*
X169028857Y-97813809D01*
X165663714Y-100258571D02*
X165997047Y-100258571D01*
X166139904Y-100782380D02*
X165663714Y-100782380D01*
X165663714Y-99782380D01*
X166139904Y-99782380D01*
X167139904Y-100782380D02*
X166806571Y-100306190D01*
X166568476Y-100782380D02*
X166568476Y-99782380D01*
X166949428Y-99782380D01*
X167044666Y-99830000D01*
X167092285Y-99877619D01*
X167139904Y-99972857D01*
X167139904Y-100115714D01*
X167092285Y-100210952D01*
X167044666Y-100258571D01*
X166949428Y-100306190D01*
X166568476Y-100306190D01*
X168139904Y-100782380D02*
X167806571Y-100306190D01*
X167568476Y-100782380D02*
X167568476Y-99782380D01*
X167949428Y-99782380D01*
X168044666Y-99830000D01*
X168092285Y-99877619D01*
X168139904Y-99972857D01*
X168139904Y-100115714D01*
X168092285Y-100210952D01*
X168044666Y-100258571D01*
X167949428Y-100306190D01*
X167568476Y-100306190D01*
X165941523Y-102798571D02*
X166084380Y-102846190D01*
X166132000Y-102893809D01*
X166179619Y-102989047D01*
X166179619Y-103131904D01*
X166132000Y-103227142D01*
X166084380Y-103274761D01*
X165989142Y-103322380D01*
X165608190Y-103322380D01*
X165608190Y-102322380D01*
X165941523Y-102322380D01*
X166036761Y-102370000D01*
X166084380Y-102417619D01*
X166132000Y-102512857D01*
X166132000Y-102608095D01*
X166084380Y-102703333D01*
X166036761Y-102750952D01*
X165941523Y-102798571D01*
X165608190Y-102798571D01*
X166608190Y-102798571D02*
X166941523Y-102798571D01*
X167084380Y-103322380D02*
X166608190Y-103322380D01*
X166608190Y-102322380D01*
X167084380Y-102322380D01*
X167465333Y-103036666D02*
X167941523Y-103036666D01*
X167370095Y-103322380D02*
X167703428Y-102322380D01*
X168036761Y-103322380D01*
X168227238Y-102322380D02*
X168798666Y-102322380D01*
X168512952Y-103322380D02*
X168512952Y-102322380D01*
D11*
X140716000Y-77470000D02*
X166370000Y-77470000D01*
X138176000Y-77470000D02*
X140716000Y-77470000D01*
X130302000Y-77470000D02*
X138176000Y-77470000D01*
X119380000Y-77470000D02*
X130302000Y-77470000D01*
X128270000Y-123190000D02*
X128270000Y-125730000D01*
X128270000Y-123190000D02*
X166370000Y-123190000D01*
X144780000Y-74930000D02*
X146050000Y-74930000D01*
X148590000Y-125730000D02*
X151130000Y-125730000D01*
X148590000Y-125730000D02*
X128270000Y-125730000D01*
X166370000Y-125730000D02*
X166370000Y-123190000D01*
X151130000Y-125730000D02*
X166370000Y-125730000D01*
X119380000Y-74930000D02*
X119380000Y-77470000D01*
X144780000Y-74930000D02*
X119380000Y-74930000D01*
X166370000Y-74930000D02*
X146050000Y-74930000D01*
%TO.C,R3*%
X157348422Y-97080000D02*
X157865578Y-97080000D01*
X157348422Y-98500000D02*
X157865578Y-98500000D01*
%TO.C,R2*%
X157348422Y-99620000D02*
X157865578Y-99620000D01*
X157348422Y-101040000D02*
X157865578Y-101040000D01*
%TO.C,R1*%
X157348422Y-102160000D02*
X157865578Y-102160000D01*
X157348422Y-103580000D02*
X157865578Y-103580000D01*
%TO.C,D3*%
X162322000Y-98750000D02*
X165007000Y-98750000D01*
X165007000Y-98750000D02*
X165007000Y-96830000D01*
X165007000Y-96830000D02*
X162322000Y-96830000D01*
%TO.C,D2*%
X162322000Y-101290000D02*
X165007000Y-101290000D01*
X165007000Y-101290000D02*
X165007000Y-99370000D01*
X165007000Y-99370000D02*
X162322000Y-99370000D01*
%TO.C,D1*%
X162322000Y-103830000D02*
X165007000Y-103830000D01*
X165007000Y-103830000D02*
X165007000Y-101910000D01*
X165007000Y-101910000D02*
X162322000Y-101910000D01*
%TO.C,U1*%
X117161000Y-88662000D02*
G75*
G02*
X117161000Y-90662000I0J-1000000D01*
G01*
X117161000Y-90662000D02*
X117161000Y-92312000D01*
X117161000Y-92312000D02*
X152841000Y-92312000D01*
X152841000Y-92312000D02*
X152841000Y-87012000D01*
X152841000Y-87012000D02*
X117161000Y-87012000D01*
X117161000Y-87012000D02*
X117161000Y-88662000D01*
%TO.C,C2*%
X148839422Y-97080000D02*
X149356578Y-97080000D01*
X148839422Y-98500000D02*
X149356578Y-98500000D01*
%TO.C,J4*%
X161992000Y-113090000D02*
X167192000Y-113090000D01*
X161992000Y-107950000D02*
X161992000Y-113090000D01*
X167192000Y-105350000D02*
X167192000Y-113090000D01*
X161992000Y-107950000D02*
X164592000Y-107950000D01*
X164592000Y-107950000D02*
X164592000Y-105350000D01*
X164592000Y-105350000D02*
X167192000Y-105350000D01*
X161992000Y-106680000D02*
X161992000Y-105350000D01*
X161992000Y-105350000D02*
X163322000Y-105350000D01*
%TO.C,J3*%
X125866200Y-125790000D02*
X125866200Y-123130000D01*
X123266200Y-125790000D02*
X125866200Y-125790000D01*
X123266200Y-123130000D02*
X125866200Y-123130000D01*
X123266200Y-125790000D02*
X123266200Y-123130000D01*
X121996200Y-125790000D02*
X120666200Y-125790000D01*
X120666200Y-125790000D02*
X120666200Y-124460000D01*
%TO.C,C1*%
X103920000Y-120684000D02*
X103920000Y-122384000D01*
X103920000Y-126204000D02*
X103920000Y-124504000D01*
X108375563Y-126204000D02*
X103920000Y-126204000D01*
X108375563Y-120684000D02*
X103920000Y-120684000D01*
X109440000Y-121748437D02*
X109440000Y-122384000D01*
X109440000Y-125139563D02*
X109440000Y-124504000D01*
X109440000Y-125139563D02*
X108375563Y-126204000D01*
X109440000Y-121748437D02*
X108375563Y-120684000D01*
X110305000Y-125129000D02*
X109680000Y-125129000D01*
X109992500Y-125441500D02*
X109992500Y-124816500D01*
D13*
%TO.C,G\u002A\u002A\u002A*%
G36*
X158373902Y-107499744D02*
G01*
X158379494Y-107434248D01*
X158388405Y-107359957D01*
X158399087Y-107285700D01*
X158405406Y-107249106D01*
X158411974Y-107222292D01*
X158419447Y-107203755D01*
X158428483Y-107191992D01*
X158439737Y-107185501D01*
X158443352Y-107184429D01*
X158463689Y-107182794D01*
X158491827Y-107185302D01*
X158525343Y-107191308D01*
X158561816Y-107200165D01*
X158598824Y-107211229D01*
X158633944Y-107223853D01*
X158664756Y-107237391D01*
X158685600Y-107249038D01*
X158727910Y-107282123D01*
X158766719Y-107323477D01*
X158800293Y-107370562D01*
X158826897Y-107420840D01*
X158844797Y-107471773D01*
X158848280Y-107487156D01*
X158852338Y-107513242D01*
X158855804Y-107545278D01*
X158858472Y-107579915D01*
X158860136Y-107613802D01*
X158860589Y-107643588D01*
X158859624Y-107665924D01*
X158859423Y-107667778D01*
X158847610Y-107722716D01*
X158825994Y-107772258D01*
X158794972Y-107815841D01*
X158754945Y-107852904D01*
X158707356Y-107882362D01*
X158687851Y-107891716D01*
X158672192Y-107897519D01*
X158656415Y-107900611D01*
X158636558Y-107901830D01*
X158614533Y-107902022D01*
X158604314Y-107901877D01*
X158604314Y-107793494D01*
X158635988Y-107791383D01*
X158665807Y-107779411D01*
X158696893Y-107757053D01*
X158720545Y-107730520D01*
X158737089Y-107698788D01*
X158746851Y-107660832D01*
X158750160Y-107615629D01*
X158747340Y-107562153D01*
X158744026Y-107534131D01*
X158738346Y-107504789D01*
X158729821Y-107475148D01*
X158722353Y-107455999D01*
X158707229Y-107429712D01*
X158686105Y-107401395D01*
X158661791Y-107374230D01*
X158637095Y-107351395D01*
X158617919Y-107337776D01*
X158603748Y-107330828D01*
X158584546Y-107323022D01*
X158563082Y-107315275D01*
X158542127Y-107308504D01*
X158524450Y-107303625D01*
X158512821Y-107301555D01*
X158509918Y-107302023D01*
X158507390Y-107309502D01*
X158504279Y-107326312D01*
X158500789Y-107350525D01*
X158497122Y-107380210D01*
X158493481Y-107413438D01*
X158490068Y-107448279D01*
X158487086Y-107482803D01*
X158484738Y-107515081D01*
X158483227Y-107543183D01*
X158482763Y-107560534D01*
X158483926Y-107610900D01*
X158488766Y-107652882D01*
X158497838Y-107688942D01*
X158511696Y-107721544D01*
X158523696Y-107742304D01*
X158546201Y-107768441D01*
X158573729Y-107785676D01*
X158604314Y-107793494D01*
X158604314Y-107901877D01*
X158587788Y-107901640D01*
X158568334Y-107899982D01*
X158552188Y-107896280D01*
X158535365Y-107889768D01*
X158524206Y-107884627D01*
X158483709Y-107860079D01*
X158449695Y-107827509D01*
X158421151Y-107785862D01*
X158411619Y-107767626D01*
X158396710Y-107732549D01*
X158385287Y-107695063D01*
X158377323Y-107654104D01*
X158372789Y-107608608D01*
X158371658Y-107557509D01*
X158373902Y-107499744D01*
G37*
X158373902Y-107499744D02*
X158379494Y-107434248D01*
X158388405Y-107359957D01*
X158399087Y-107285700D01*
X158405406Y-107249106D01*
X158411974Y-107222292D01*
X158419447Y-107203755D01*
X158428483Y-107191992D01*
X158439737Y-107185501D01*
X158443352Y-107184429D01*
X158463689Y-107182794D01*
X158491827Y-107185302D01*
X158525343Y-107191308D01*
X158561816Y-107200165D01*
X158598824Y-107211229D01*
X158633944Y-107223853D01*
X158664756Y-107237391D01*
X158685600Y-107249038D01*
X158727910Y-107282123D01*
X158766719Y-107323477D01*
X158800293Y-107370562D01*
X158826897Y-107420840D01*
X158844797Y-107471773D01*
X158848280Y-107487156D01*
X158852338Y-107513242D01*
X158855804Y-107545278D01*
X158858472Y-107579915D01*
X158860136Y-107613802D01*
X158860589Y-107643588D01*
X158859624Y-107665924D01*
X158859423Y-107667778D01*
X158847610Y-107722716D01*
X158825994Y-107772258D01*
X158794972Y-107815841D01*
X158754945Y-107852904D01*
X158707356Y-107882362D01*
X158687851Y-107891716D01*
X158672192Y-107897519D01*
X158656415Y-107900611D01*
X158636558Y-107901830D01*
X158614533Y-107902022D01*
X158604314Y-107901877D01*
X158604314Y-107793494D01*
X158635988Y-107791383D01*
X158665807Y-107779411D01*
X158696893Y-107757053D01*
X158720545Y-107730520D01*
X158737089Y-107698788D01*
X158746851Y-107660832D01*
X158750160Y-107615629D01*
X158747340Y-107562153D01*
X158744026Y-107534131D01*
X158738346Y-107504789D01*
X158729821Y-107475148D01*
X158722353Y-107455999D01*
X158707229Y-107429712D01*
X158686105Y-107401395D01*
X158661791Y-107374230D01*
X158637095Y-107351395D01*
X158617919Y-107337776D01*
X158603748Y-107330828D01*
X158584546Y-107323022D01*
X158563082Y-107315275D01*
X158542127Y-107308504D01*
X158524450Y-107303625D01*
X158512821Y-107301555D01*
X158509918Y-107302023D01*
X158507390Y-107309502D01*
X158504279Y-107326312D01*
X158500789Y-107350525D01*
X158497122Y-107380210D01*
X158493481Y-107413438D01*
X158490068Y-107448279D01*
X158487086Y-107482803D01*
X158484738Y-107515081D01*
X158483227Y-107543183D01*
X158482763Y-107560534D01*
X158483926Y-107610900D01*
X158488766Y-107652882D01*
X158497838Y-107688942D01*
X158511696Y-107721544D01*
X158523696Y-107742304D01*
X158546201Y-107768441D01*
X158573729Y-107785676D01*
X158604314Y-107793494D01*
X158604314Y-107901877D01*
X158587788Y-107901640D01*
X158568334Y-107899982D01*
X158552188Y-107896280D01*
X158535365Y-107889768D01*
X158524206Y-107884627D01*
X158483709Y-107860079D01*
X158449695Y-107827509D01*
X158421151Y-107785862D01*
X158411619Y-107767626D01*
X158396710Y-107732549D01*
X158385287Y-107695063D01*
X158377323Y-107654104D01*
X158372789Y-107608608D01*
X158371658Y-107557509D01*
X158373902Y-107499744D01*
G36*
X157419691Y-107410161D02*
G01*
X157433113Y-107334352D01*
X157435496Y-107324846D01*
X157460635Y-107248141D01*
X157494819Y-107175048D01*
X157537055Y-107107103D01*
X157586346Y-107045843D01*
X157641696Y-106992803D01*
X157660193Y-106978071D01*
X157693255Y-106955739D01*
X157733150Y-106933118D01*
X157776290Y-106911929D01*
X157819088Y-106893892D01*
X157857955Y-106880728D01*
X157869467Y-106877708D01*
X157885210Y-106874310D01*
X157903138Y-106871163D01*
X157923820Y-106868242D01*
X157947821Y-106865525D01*
X157975709Y-106862987D01*
X158008053Y-106860604D01*
X158045419Y-106858355D01*
X158088374Y-106856213D01*
X158137487Y-106854157D01*
X158193325Y-106852161D01*
X158256454Y-106850203D01*
X158327443Y-106848259D01*
X158406859Y-106846305D01*
X158495270Y-106844317D01*
X158593242Y-106842272D01*
X158701344Y-106840147D01*
X158820142Y-106837916D01*
X158825409Y-106837819D01*
X158896081Y-106836507D01*
X158956323Y-106835426D01*
X159006996Y-106834655D01*
X159048956Y-106834274D01*
X159083064Y-106834363D01*
X159110179Y-106834999D01*
X159131158Y-106836263D01*
X159146860Y-106838234D01*
X159158145Y-106840992D01*
X159165872Y-106844615D01*
X159170898Y-106849183D01*
X159174083Y-106854776D01*
X159176286Y-106861472D01*
X159178366Y-106869351D01*
X159178666Y-106870447D01*
X159182154Y-106884670D01*
X159183479Y-106893567D01*
X159183358Y-106894489D01*
X159182936Y-106900655D01*
X159182353Y-106916624D01*
X159181647Y-106940914D01*
X159180860Y-106972039D01*
X159180030Y-107008517D01*
X159179198Y-107048864D01*
X159179156Y-107050976D01*
X159178233Y-107096655D01*
X159177375Y-107132401D01*
X159176457Y-107159567D01*
X159175352Y-107179505D01*
X159173934Y-107193571D01*
X159172077Y-107203116D01*
X159169654Y-107209495D01*
X159166540Y-107214061D01*
X159163675Y-107217111D01*
X159151487Y-107225472D01*
X159133697Y-107230279D01*
X159117718Y-107232003D01*
X159084242Y-107234424D01*
X159102833Y-107275219D01*
X159133242Y-107352893D01*
X159155829Y-107434274D01*
X159170637Y-107517929D01*
X159177711Y-107602424D01*
X159177094Y-107686328D01*
X159168830Y-107768207D01*
X159152963Y-107846627D01*
X159129536Y-107920157D01*
X159098595Y-107987363D01*
X159080078Y-108018521D01*
X159045804Y-108065063D01*
X159005824Y-108108530D01*
X158962490Y-108146767D01*
X158918152Y-108177619D01*
X158890278Y-108192520D01*
X158830542Y-108214709D01*
X158764731Y-108229177D01*
X158698683Y-108235600D01*
X158698683Y-108123757D01*
X158751728Y-108119337D01*
X158798084Y-108109215D01*
X158839592Y-108092774D01*
X158878091Y-108069398D01*
X158915422Y-108038469D01*
X158929206Y-108025088D01*
X158962606Y-107989270D01*
X158988408Y-107955875D01*
X159008736Y-107921587D01*
X159025713Y-107883091D01*
X159032904Y-107863286D01*
X159047548Y-107810313D01*
X159058128Y-107749806D01*
X159064433Y-107684841D01*
X159066253Y-107618494D01*
X159063380Y-107553842D01*
X159057378Y-107504280D01*
X159046323Y-107451237D01*
X159030645Y-107397465D01*
X159011338Y-107345381D01*
X158989395Y-107297405D01*
X158965811Y-107255957D01*
X158942394Y-107224377D01*
X158928024Y-107201278D01*
X158924313Y-107177834D01*
X158931279Y-107155530D01*
X158941477Y-107142411D01*
X158949778Y-107134694D01*
X158957807Y-107129857D01*
X158968396Y-107127228D01*
X158984372Y-107126136D01*
X159008567Y-107125912D01*
X159011092Y-107125911D01*
X159034557Y-107125535D01*
X159053585Y-107124525D01*
X159065475Y-107123059D01*
X159067970Y-107122148D01*
X159069267Y-107115478D01*
X159070370Y-107099552D01*
X159071197Y-107076405D01*
X159071662Y-107048070D01*
X159071733Y-107031089D01*
X159071733Y-106943792D01*
X158867122Y-106947524D01*
X158739566Y-106949917D01*
X158622875Y-106952252D01*
X158516627Y-106954545D01*
X158420399Y-106956810D01*
X158333767Y-106959063D01*
X158256309Y-106961320D01*
X158187602Y-106963596D01*
X158127222Y-106965907D01*
X158074747Y-106968267D01*
X158029753Y-106970694D01*
X157991818Y-106973201D01*
X157960518Y-106975805D01*
X157935431Y-106978521D01*
X157916134Y-106981365D01*
X157909825Y-106982565D01*
X157844492Y-107001705D01*
X157782707Y-107030932D01*
X157725433Y-107069347D01*
X157673632Y-107116049D01*
X157628266Y-107170138D01*
X157590300Y-107230712D01*
X157560696Y-107296870D01*
X157554434Y-107315037D01*
X157539466Y-107368279D01*
X157530210Y-107419618D01*
X157526150Y-107473155D01*
X157526771Y-107532992D01*
X157526838Y-107534509D01*
X157534696Y-107626088D01*
X157549944Y-107710331D01*
X157572933Y-107788724D01*
X157603893Y-107862511D01*
X157622384Y-107897349D01*
X157643467Y-107931911D01*
X157665301Y-107963493D01*
X157686046Y-107989391D01*
X157699883Y-108003548D01*
X157709332Y-108010777D01*
X157715167Y-108010286D01*
X157718987Y-108006042D01*
X157724732Y-107998958D01*
X157736436Y-107984938D01*
X157752718Y-107965623D01*
X157772196Y-107942653D01*
X157786708Y-107925612D01*
X157847883Y-107853902D01*
X157830906Y-107813051D01*
X157807137Y-107743423D01*
X157790581Y-107666071D01*
X157784498Y-107620092D01*
X157781174Y-107546182D01*
X157787509Y-107477885D01*
X157803462Y-107415306D01*
X157828995Y-107358555D01*
X157864068Y-107307738D01*
X157908642Y-107262962D01*
X157917737Y-107255501D01*
X157956811Y-107228189D01*
X157997492Y-107208033D01*
X158043598Y-107193300D01*
X158066264Y-107188156D01*
X158097401Y-107182579D01*
X158120214Y-107180797D01*
X158137092Y-107183044D01*
X158150425Y-107189558D01*
X158159510Y-107197361D01*
X158166099Y-107205211D01*
X158170541Y-107214773D01*
X158173514Y-107228730D01*
X158175698Y-107249766D01*
X158176844Y-107265874D01*
X158184084Y-107369272D01*
X158191583Y-107462074D01*
X158199436Y-107544973D01*
X158207740Y-107618659D01*
X158216591Y-107683825D01*
X158226085Y-107741162D01*
X158236319Y-107791364D01*
X158247388Y-107835120D01*
X158259389Y-107873124D01*
X158262460Y-107881575D01*
X158286613Y-107931064D01*
X158320421Y-107977732D01*
X158362312Y-108019920D01*
X158410712Y-108055970D01*
X158447436Y-108076574D01*
X158485308Y-108093922D01*
X158519408Y-108106329D01*
X158553471Y-108114711D01*
X158591232Y-108119983D01*
X158636426Y-108123063D01*
X158637111Y-108123094D01*
X158698683Y-108123757D01*
X158698683Y-108235600D01*
X158694972Y-108235961D01*
X158623392Y-108235097D01*
X158552117Y-108226621D01*
X158483276Y-108210568D01*
X158418994Y-108186975D01*
X158413449Y-108184457D01*
X158349860Y-108149537D01*
X158292378Y-108106780D01*
X158242124Y-108057330D01*
X158200221Y-108002336D01*
X158167793Y-107942945D01*
X158160839Y-107926385D01*
X158145407Y-107880597D01*
X158130888Y-107824179D01*
X158117389Y-107757761D01*
X158105019Y-107681974D01*
X158093884Y-107597448D01*
X158084090Y-107504812D01*
X158078672Y-107442746D01*
X158075491Y-107404552D01*
X158072442Y-107370211D01*
X158069680Y-107341287D01*
X158067359Y-107319345D01*
X158065633Y-107305950D01*
X158064836Y-107302466D01*
X158057160Y-107302124D01*
X158043049Y-107307575D01*
X158024792Y-107317445D01*
X158004678Y-107330364D01*
X157984998Y-107344960D01*
X157968039Y-107359861D01*
X157966524Y-107361372D01*
X157936374Y-107397140D01*
X157914529Y-107435722D01*
X157900463Y-107478759D01*
X157893649Y-107527889D01*
X157893559Y-107584751D01*
X157893719Y-107587791D01*
X157900106Y-107647615D01*
X157912161Y-107705642D01*
X157929096Y-107758798D01*
X157948323Y-107800784D01*
X157958068Y-107818589D01*
X157965316Y-107833415D01*
X157969553Y-107846539D01*
X157970265Y-107859235D01*
X157966937Y-107872779D01*
X157959057Y-107888446D01*
X157946110Y-107907511D01*
X157927583Y-107931250D01*
X157902960Y-107960938D01*
X157871730Y-107997850D01*
X157866358Y-108004190D01*
X157838899Y-108036474D01*
X157813314Y-108066307D01*
X157790648Y-108092490D01*
X157771945Y-108113824D01*
X157758252Y-108129108D01*
X157750612Y-108137145D01*
X157750021Y-108137678D01*
X157733173Y-108145509D01*
X157711514Y-108146985D01*
X157689651Y-108141977D01*
X157684331Y-108139507D01*
X157672671Y-108131093D01*
X157655793Y-108116061D01*
X157635718Y-108096459D01*
X157614467Y-108074333D01*
X157594061Y-108051727D01*
X157576519Y-108030689D01*
X157575213Y-108029022D01*
X157533592Y-107967486D01*
X157497584Y-107897782D01*
X157467552Y-107821732D01*
X157443858Y-107741162D01*
X157426862Y-107657896D01*
X157416928Y-107573757D01*
X157414417Y-107490571D01*
X157419691Y-107410161D01*
G37*
X157419691Y-107410161D02*
X157433113Y-107334352D01*
X157435496Y-107324846D01*
X157460635Y-107248141D01*
X157494819Y-107175048D01*
X157537055Y-107107103D01*
X157586346Y-107045843D01*
X157641696Y-106992803D01*
X157660193Y-106978071D01*
X157693255Y-106955739D01*
X157733150Y-106933118D01*
X157776290Y-106911929D01*
X157819088Y-106893892D01*
X157857955Y-106880728D01*
X157869467Y-106877708D01*
X157885210Y-106874310D01*
X157903138Y-106871163D01*
X157923820Y-106868242D01*
X157947821Y-106865525D01*
X157975709Y-106862987D01*
X158008053Y-106860604D01*
X158045419Y-106858355D01*
X158088374Y-106856213D01*
X158137487Y-106854157D01*
X158193325Y-106852161D01*
X158256454Y-106850203D01*
X158327443Y-106848259D01*
X158406859Y-106846305D01*
X158495270Y-106844317D01*
X158593242Y-106842272D01*
X158701344Y-106840147D01*
X158820142Y-106837916D01*
X158825409Y-106837819D01*
X158896081Y-106836507D01*
X158956323Y-106835426D01*
X159006996Y-106834655D01*
X159048956Y-106834274D01*
X159083064Y-106834363D01*
X159110179Y-106834999D01*
X159131158Y-106836263D01*
X159146860Y-106838234D01*
X159158145Y-106840992D01*
X159165872Y-106844615D01*
X159170898Y-106849183D01*
X159174083Y-106854776D01*
X159176286Y-106861472D01*
X159178366Y-106869351D01*
X159178666Y-106870447D01*
X159182154Y-106884670D01*
X159183479Y-106893567D01*
X159183358Y-106894489D01*
X159182936Y-106900655D01*
X159182353Y-106916624D01*
X159181647Y-106940914D01*
X159180860Y-106972039D01*
X159180030Y-107008517D01*
X159179198Y-107048864D01*
X159179156Y-107050976D01*
X159178233Y-107096655D01*
X159177375Y-107132401D01*
X159176457Y-107159567D01*
X159175352Y-107179505D01*
X159173934Y-107193571D01*
X159172077Y-107203116D01*
X159169654Y-107209495D01*
X159166540Y-107214061D01*
X159163675Y-107217111D01*
X159151487Y-107225472D01*
X159133697Y-107230279D01*
X159117718Y-107232003D01*
X159084242Y-107234424D01*
X159102833Y-107275219D01*
X159133242Y-107352893D01*
X159155829Y-107434274D01*
X159170637Y-107517929D01*
X159177711Y-107602424D01*
X159177094Y-107686328D01*
X159168830Y-107768207D01*
X159152963Y-107846627D01*
X159129536Y-107920157D01*
X159098595Y-107987363D01*
X159080078Y-108018521D01*
X159045804Y-108065063D01*
X159005824Y-108108530D01*
X158962490Y-108146767D01*
X158918152Y-108177619D01*
X158890278Y-108192520D01*
X158830542Y-108214709D01*
X158764731Y-108229177D01*
X158698683Y-108235600D01*
X158698683Y-108123757D01*
X158751728Y-108119337D01*
X158798084Y-108109215D01*
X158839592Y-108092774D01*
X158878091Y-108069398D01*
X158915422Y-108038469D01*
X158929206Y-108025088D01*
X158962606Y-107989270D01*
X158988408Y-107955875D01*
X159008736Y-107921587D01*
X159025713Y-107883091D01*
X159032904Y-107863286D01*
X159047548Y-107810313D01*
X159058128Y-107749806D01*
X159064433Y-107684841D01*
X159066253Y-107618494D01*
X159063380Y-107553842D01*
X159057378Y-107504280D01*
X159046323Y-107451237D01*
X159030645Y-107397465D01*
X159011338Y-107345381D01*
X158989395Y-107297405D01*
X158965811Y-107255957D01*
X158942394Y-107224377D01*
X158928024Y-107201278D01*
X158924313Y-107177834D01*
X158931279Y-107155530D01*
X158941477Y-107142411D01*
X158949778Y-107134694D01*
X158957807Y-107129857D01*
X158968396Y-107127228D01*
X158984372Y-107126136D01*
X159008567Y-107125912D01*
X159011092Y-107125911D01*
X159034557Y-107125535D01*
X159053585Y-107124525D01*
X159065475Y-107123059D01*
X159067970Y-107122148D01*
X159069267Y-107115478D01*
X159070370Y-107099552D01*
X159071197Y-107076405D01*
X159071662Y-107048070D01*
X159071733Y-107031089D01*
X159071733Y-106943792D01*
X158867122Y-106947524D01*
X158739566Y-106949917D01*
X158622875Y-106952252D01*
X158516627Y-106954545D01*
X158420399Y-106956810D01*
X158333767Y-106959063D01*
X158256309Y-106961320D01*
X158187602Y-106963596D01*
X158127222Y-106965907D01*
X158074747Y-106968267D01*
X158029753Y-106970694D01*
X157991818Y-106973201D01*
X157960518Y-106975805D01*
X157935431Y-106978521D01*
X157916134Y-106981365D01*
X157909825Y-106982565D01*
X157844492Y-107001705D01*
X157782707Y-107030932D01*
X157725433Y-107069347D01*
X157673632Y-107116049D01*
X157628266Y-107170138D01*
X157590300Y-107230712D01*
X157560696Y-107296870D01*
X157554434Y-107315037D01*
X157539466Y-107368279D01*
X157530210Y-107419618D01*
X157526150Y-107473155D01*
X157526771Y-107532992D01*
X157526838Y-107534509D01*
X157534696Y-107626088D01*
X157549944Y-107710331D01*
X157572933Y-107788724D01*
X157603893Y-107862511D01*
X157622384Y-107897349D01*
X157643467Y-107931911D01*
X157665301Y-107963493D01*
X157686046Y-107989391D01*
X157699883Y-108003548D01*
X157709332Y-108010777D01*
X157715167Y-108010286D01*
X157718987Y-108006042D01*
X157724732Y-107998958D01*
X157736436Y-107984938D01*
X157752718Y-107965623D01*
X157772196Y-107942653D01*
X157786708Y-107925612D01*
X157847883Y-107853902D01*
X157830906Y-107813051D01*
X157807137Y-107743423D01*
X157790581Y-107666071D01*
X157784498Y-107620092D01*
X157781174Y-107546182D01*
X157787509Y-107477885D01*
X157803462Y-107415306D01*
X157828995Y-107358555D01*
X157864068Y-107307738D01*
X157908642Y-107262962D01*
X157917737Y-107255501D01*
X157956811Y-107228189D01*
X157997492Y-107208033D01*
X158043598Y-107193300D01*
X158066264Y-107188156D01*
X158097401Y-107182579D01*
X158120214Y-107180797D01*
X158137092Y-107183044D01*
X158150425Y-107189558D01*
X158159510Y-107197361D01*
X158166099Y-107205211D01*
X158170541Y-107214773D01*
X158173514Y-107228730D01*
X158175698Y-107249766D01*
X158176844Y-107265874D01*
X158184084Y-107369272D01*
X158191583Y-107462074D01*
X158199436Y-107544973D01*
X158207740Y-107618659D01*
X158216591Y-107683825D01*
X158226085Y-107741162D01*
X158236319Y-107791364D01*
X158247388Y-107835120D01*
X158259389Y-107873124D01*
X158262460Y-107881575D01*
X158286613Y-107931064D01*
X158320421Y-107977732D01*
X158362312Y-108019920D01*
X158410712Y-108055970D01*
X158447436Y-108076574D01*
X158485308Y-108093922D01*
X158519408Y-108106329D01*
X158553471Y-108114711D01*
X158591232Y-108119983D01*
X158636426Y-108123063D01*
X158637111Y-108123094D01*
X158698683Y-108123757D01*
X158698683Y-108235600D01*
X158694972Y-108235961D01*
X158623392Y-108235097D01*
X158552117Y-108226621D01*
X158483276Y-108210568D01*
X158418994Y-108186975D01*
X158413449Y-108184457D01*
X158349860Y-108149537D01*
X158292378Y-108106780D01*
X158242124Y-108057330D01*
X158200221Y-108002336D01*
X158167793Y-107942945D01*
X158160839Y-107926385D01*
X158145407Y-107880597D01*
X158130888Y-107824179D01*
X158117389Y-107757761D01*
X158105019Y-107681974D01*
X158093884Y-107597448D01*
X158084090Y-107504812D01*
X158078672Y-107442746D01*
X158075491Y-107404552D01*
X158072442Y-107370211D01*
X158069680Y-107341287D01*
X158067359Y-107319345D01*
X158065633Y-107305950D01*
X158064836Y-107302466D01*
X158057160Y-107302124D01*
X158043049Y-107307575D01*
X158024792Y-107317445D01*
X158004678Y-107330364D01*
X157984998Y-107344960D01*
X157968039Y-107359861D01*
X157966524Y-107361372D01*
X157936374Y-107397140D01*
X157914529Y-107435722D01*
X157900463Y-107478759D01*
X157893649Y-107527889D01*
X157893559Y-107584751D01*
X157893719Y-107587791D01*
X157900106Y-107647615D01*
X157912161Y-107705642D01*
X157929096Y-107758798D01*
X157948323Y-107800784D01*
X157958068Y-107818589D01*
X157965316Y-107833415D01*
X157969553Y-107846539D01*
X157970265Y-107859235D01*
X157966937Y-107872779D01*
X157959057Y-107888446D01*
X157946110Y-107907511D01*
X157927583Y-107931250D01*
X157902960Y-107960938D01*
X157871730Y-107997850D01*
X157866358Y-108004190D01*
X157838899Y-108036474D01*
X157813314Y-108066307D01*
X157790648Y-108092490D01*
X157771945Y-108113824D01*
X157758252Y-108129108D01*
X157750612Y-108137145D01*
X157750021Y-108137678D01*
X157733173Y-108145509D01*
X157711514Y-108146985D01*
X157689651Y-108141977D01*
X157684331Y-108139507D01*
X157672671Y-108131093D01*
X157655793Y-108116061D01*
X157635718Y-108096459D01*
X157614467Y-108074333D01*
X157594061Y-108051727D01*
X157576519Y-108030689D01*
X157575213Y-108029022D01*
X157533592Y-107967486D01*
X157497584Y-107897782D01*
X157467552Y-107821732D01*
X157443858Y-107741162D01*
X157426862Y-107657896D01*
X157416928Y-107573757D01*
X157414417Y-107490571D01*
X157419691Y-107410161D01*
G36*
X156803551Y-109408195D02*
G01*
X156803867Y-109378113D01*
X156804366Y-109355681D01*
X156805037Y-109342383D01*
X156805393Y-109339770D01*
X156812217Y-109328326D01*
X156824726Y-109317140D01*
X156826807Y-109315802D01*
X156831177Y-109313381D01*
X156836319Y-109311336D01*
X156843175Y-109309632D01*
X156852684Y-109308234D01*
X156865787Y-109307108D01*
X156883427Y-109306218D01*
X156906543Y-109305531D01*
X156936076Y-109305012D01*
X156972968Y-109304624D01*
X157018160Y-109304335D01*
X157072591Y-109304109D01*
X157137203Y-109303912D01*
X157149800Y-109303877D01*
X157221013Y-109303623D01*
X157299915Y-109303237D01*
X157383621Y-109302740D01*
X157469241Y-109302152D01*
X157553891Y-109301494D01*
X157634681Y-109300787D01*
X157708726Y-109300050D01*
X157747028Y-109299623D01*
X158039455Y-109296200D01*
X157734450Y-109005565D01*
X157685050Y-108958369D01*
X157637962Y-108913143D01*
X157593841Y-108870531D01*
X157553341Y-108831175D01*
X157517117Y-108795720D01*
X157485823Y-108764808D01*
X157460113Y-108739082D01*
X157440643Y-108719186D01*
X157428065Y-108705763D01*
X157423038Y-108699463D01*
X157419892Y-108691287D01*
X157418148Y-108683704D01*
X157418447Y-108675808D01*
X157421428Y-108666696D01*
X157427731Y-108655463D01*
X157437996Y-108641205D01*
X157452863Y-108623016D01*
X157472972Y-108599993D01*
X157498963Y-108571232D01*
X157531476Y-108535826D01*
X157562846Y-108501859D01*
X157594656Y-108467731D01*
X157620163Y-108441242D01*
X157640495Y-108421536D01*
X157656781Y-108407756D01*
X157670149Y-108399042D01*
X157681728Y-108394540D01*
X157692647Y-108393390D01*
X157703902Y-108394711D01*
X157707971Y-108396622D01*
X157715505Y-108401651D01*
X157726947Y-108410164D01*
X157742742Y-108422530D01*
X157763335Y-108439115D01*
X157789169Y-108460287D01*
X157820689Y-108486413D01*
X157858340Y-108517862D01*
X157902565Y-108554999D01*
X157953809Y-108598193D01*
X158012516Y-108647811D01*
X158079131Y-108704220D01*
X158115614Y-108735147D01*
X158161384Y-108773958D01*
X158417592Y-108636570D01*
X158525653Y-108578444D01*
X158623890Y-108525224D01*
X158712572Y-108476759D01*
X158791970Y-108432896D01*
X158862352Y-108393487D01*
X158923989Y-108358379D01*
X158977149Y-108327423D01*
X159022103Y-108300466D01*
X159057593Y-108278335D01*
X159089093Y-108260415D01*
X159114708Y-108251090D01*
X159135669Y-108250188D01*
X159153207Y-108257538D01*
X159160845Y-108264022D01*
X159177119Y-108280295D01*
X159181017Y-108472818D01*
X159181880Y-108523301D01*
X159182344Y-108568672D01*
X159182414Y-108607792D01*
X159182097Y-108639522D01*
X159181400Y-108662725D01*
X159180331Y-108676261D01*
X159179772Y-108678793D01*
X159171386Y-108693223D01*
X159164103Y-108701235D01*
X159157184Y-108705968D01*
X159141632Y-108715886D01*
X159118482Y-108730351D01*
X159088771Y-108748722D01*
X159053536Y-108770361D01*
X159013814Y-108794628D01*
X158970640Y-108820885D01*
X158939089Y-108840004D01*
X158889017Y-108870318D01*
X158837352Y-108901629D01*
X158785889Y-108932846D01*
X158736424Y-108962879D01*
X158690750Y-108990639D01*
X158650664Y-109015035D01*
X158617959Y-109034978D01*
X158610616Y-109039465D01*
X158496633Y-109109147D01*
X158559816Y-109176266D01*
X158583677Y-109201715D01*
X158607125Y-109226907D01*
X158628037Y-109249548D01*
X158644292Y-109267347D01*
X158649650Y-109273309D01*
X158676300Y-109303234D01*
X158903650Y-109307138D01*
X158954635Y-109308146D01*
X159002411Y-109309346D01*
X159045687Y-109310687D01*
X159083173Y-109312118D01*
X159113577Y-109313589D01*
X159135608Y-109315049D01*
X159147976Y-109316446D01*
X159149442Y-109316791D01*
X159158675Y-109320070D01*
X159166134Y-109324324D01*
X159172009Y-109330700D01*
X159176489Y-109340344D01*
X159179761Y-109354404D01*
X159182015Y-109374027D01*
X159183439Y-109400360D01*
X159184222Y-109434550D01*
X159184554Y-109477743D01*
X159184622Y-109530599D01*
X159184622Y-109706291D01*
X159150828Y-109740085D01*
X159078327Y-109739004D01*
X159078327Y-109627502D01*
X159076441Y-109528632D01*
X159075571Y-109496224D01*
X159074329Y-109467732D01*
X159072838Y-109445076D01*
X159071219Y-109430178D01*
X159069855Y-109425070D01*
X159063332Y-109423923D01*
X159046788Y-109422689D01*
X159021492Y-109421418D01*
X158988711Y-109420157D01*
X158949713Y-109418954D01*
X158905765Y-109417858D01*
X158858135Y-109416916D01*
X158852544Y-109416821D01*
X158804357Y-109415921D01*
X158759521Y-109414903D01*
X158719336Y-109413812D01*
X158685104Y-109412690D01*
X158658127Y-109411579D01*
X158639708Y-109410524D01*
X158631148Y-109409568D01*
X158630889Y-109409481D01*
X158624745Y-109404485D01*
X158612034Y-109392328D01*
X158593861Y-109374132D01*
X158571331Y-109351019D01*
X158545548Y-109324108D01*
X158518000Y-109294929D01*
X158478290Y-109252558D01*
X158445612Y-109217595D01*
X158419281Y-109189211D01*
X158398613Y-109166573D01*
X158382923Y-109148850D01*
X158371528Y-109135212D01*
X158363742Y-109124827D01*
X158358880Y-109116863D01*
X158356260Y-109110491D01*
X158355195Y-109104878D01*
X158355002Y-109099194D01*
X158355014Y-109097020D01*
X158357715Y-109079615D01*
X158364129Y-109065266D01*
X158364892Y-109064280D01*
X158371147Y-109059562D01*
X158386213Y-109049541D01*
X158409235Y-109034742D01*
X158439358Y-109015692D01*
X158475726Y-108992919D01*
X158517484Y-108966948D01*
X158563777Y-108938306D01*
X158613750Y-108907520D01*
X158666546Y-108875116D01*
X158721311Y-108841621D01*
X158777190Y-108807562D01*
X158833326Y-108773465D01*
X158888865Y-108739856D01*
X158942952Y-108707263D01*
X158994730Y-108676212D01*
X159011055Y-108666459D01*
X159071733Y-108630244D01*
X159071733Y-108518722D01*
X159071457Y-108478105D01*
X159070653Y-108445927D01*
X159069360Y-108422954D01*
X159067617Y-108409954D01*
X159066140Y-108407200D01*
X159059692Y-108409897D01*
X159045123Y-108417398D01*
X159024061Y-108428820D01*
X158998135Y-108443279D01*
X158968975Y-108459891D01*
X158968773Y-108460007D01*
X158920680Y-108487531D01*
X158871393Y-108515424D01*
X158819789Y-108544302D01*
X158764745Y-108574782D01*
X158705139Y-108607480D01*
X158639849Y-108643013D01*
X158567751Y-108681995D01*
X158487723Y-108725044D01*
X158412001Y-108765628D01*
X158355516Y-108795835D01*
X158308100Y-108821104D01*
X158268884Y-108841850D01*
X158236998Y-108858489D01*
X158211571Y-108871435D01*
X158191734Y-108881103D01*
X158176617Y-108887908D01*
X158165349Y-108892265D01*
X158157062Y-108894590D01*
X158150884Y-108895296D01*
X158145946Y-108894798D01*
X158142875Y-108893991D01*
X158134319Y-108889019D01*
X158117897Y-108877155D01*
X158094260Y-108858920D01*
X158064055Y-108834836D01*
X158027933Y-108805424D01*
X157986542Y-108771204D01*
X157940530Y-108732699D01*
X157911758Y-108708417D01*
X157869738Y-108672889D01*
X157830314Y-108639630D01*
X157794329Y-108609345D01*
X157762623Y-108582739D01*
X157736038Y-108560515D01*
X157715414Y-108543377D01*
X157701592Y-108532031D01*
X157695414Y-108527181D01*
X157695201Y-108527058D01*
X157690443Y-108530553D01*
X157679701Y-108540905D01*
X157664460Y-108556502D01*
X157646203Y-108575736D01*
X157626413Y-108596995D01*
X157606575Y-108618669D01*
X157588172Y-108639147D01*
X157572687Y-108656819D01*
X157561604Y-108670075D01*
X157556407Y-108677304D01*
X157556200Y-108677951D01*
X157560189Y-108682337D01*
X157571751Y-108693913D01*
X157590274Y-108712092D01*
X157615151Y-108736284D01*
X157645771Y-108765902D01*
X157681525Y-108800358D01*
X157721803Y-108839064D01*
X157765995Y-108881432D01*
X157813493Y-108926873D01*
X157863685Y-108974801D01*
X157886400Y-108996461D01*
X157937885Y-109045606D01*
X157987151Y-109092766D01*
X158033561Y-109137325D01*
X158076481Y-109178668D01*
X158115277Y-109216179D01*
X158149313Y-109249242D01*
X158177955Y-109277241D01*
X158200569Y-109299562D01*
X158216519Y-109315589D01*
X158225172Y-109324705D01*
X158226448Y-109326281D01*
X158233531Y-109340580D01*
X158236305Y-109352645D01*
X158231481Y-109371470D01*
X158219194Y-109389383D01*
X158202759Y-109402120D01*
X158195727Y-109404821D01*
X158187094Y-109405645D01*
X158168122Y-109406458D01*
X158139761Y-109407245D01*
X158102959Y-109407993D01*
X158058666Y-109408689D01*
X158007832Y-109409319D01*
X157951407Y-109409869D01*
X157890339Y-109410326D01*
X157825579Y-109410676D01*
X157773511Y-109410865D01*
X157699135Y-109411124D01*
X157622070Y-109411475D01*
X157544022Y-109411907D01*
X157466698Y-109412407D01*
X157391806Y-109412962D01*
X157321051Y-109413559D01*
X157256141Y-109414186D01*
X157198783Y-109414829D01*
X157150682Y-109415476D01*
X157142744Y-109415598D01*
X156915555Y-109419176D01*
X156915555Y-109627493D01*
X157264100Y-109622713D01*
X157373327Y-109621376D01*
X157485043Y-109620336D01*
X157600169Y-109619594D01*
X157719624Y-109619149D01*
X157844328Y-109619004D01*
X157975202Y-109619157D01*
X158113165Y-109619610D01*
X158259138Y-109620364D01*
X158414041Y-109621419D01*
X158578793Y-109622776D01*
X158675686Y-109623668D01*
X159078327Y-109627502D01*
X159078327Y-109739004D01*
X158858692Y-109735728D01*
X158793906Y-109734880D01*
X158720050Y-109734119D01*
X158638216Y-109733447D01*
X158549495Y-109732865D01*
X158454980Y-109732371D01*
X158355761Y-109731966D01*
X158252932Y-109731650D01*
X158147583Y-109731424D01*
X158040807Y-109731288D01*
X157933696Y-109731242D01*
X157827342Y-109731285D01*
X157722835Y-109731419D01*
X157621270Y-109731643D01*
X157523736Y-109731958D01*
X157431326Y-109732364D01*
X157345133Y-109732860D01*
X157266247Y-109733448D01*
X157195760Y-109734126D01*
X157134766Y-109734897D01*
X157100933Y-109735443D01*
X156843222Y-109740063D01*
X156824355Y-109723213D01*
X156805489Y-109706362D01*
X156803831Y-109529503D01*
X156803521Y-109485374D01*
X156803432Y-109444443D01*
X156803551Y-109408195D01*
G37*
X156803551Y-109408195D02*
X156803867Y-109378113D01*
X156804366Y-109355681D01*
X156805037Y-109342383D01*
X156805393Y-109339770D01*
X156812217Y-109328326D01*
X156824726Y-109317140D01*
X156826807Y-109315802D01*
X156831177Y-109313381D01*
X156836319Y-109311336D01*
X156843175Y-109309632D01*
X156852684Y-109308234D01*
X156865787Y-109307108D01*
X156883427Y-109306218D01*
X156906543Y-109305531D01*
X156936076Y-109305012D01*
X156972968Y-109304624D01*
X157018160Y-109304335D01*
X157072591Y-109304109D01*
X157137203Y-109303912D01*
X157149800Y-109303877D01*
X157221013Y-109303623D01*
X157299915Y-109303237D01*
X157383621Y-109302740D01*
X157469241Y-109302152D01*
X157553891Y-109301494D01*
X157634681Y-109300787D01*
X157708726Y-109300050D01*
X157747028Y-109299623D01*
X158039455Y-109296200D01*
X157734450Y-109005565D01*
X157685050Y-108958369D01*
X157637962Y-108913143D01*
X157593841Y-108870531D01*
X157553341Y-108831175D01*
X157517117Y-108795720D01*
X157485823Y-108764808D01*
X157460113Y-108739082D01*
X157440643Y-108719186D01*
X157428065Y-108705763D01*
X157423038Y-108699463D01*
X157419892Y-108691287D01*
X157418148Y-108683704D01*
X157418447Y-108675808D01*
X157421428Y-108666696D01*
X157427731Y-108655463D01*
X157437996Y-108641205D01*
X157452863Y-108623016D01*
X157472972Y-108599993D01*
X157498963Y-108571232D01*
X157531476Y-108535826D01*
X157562846Y-108501859D01*
X157594656Y-108467731D01*
X157620163Y-108441242D01*
X157640495Y-108421536D01*
X157656781Y-108407756D01*
X157670149Y-108399042D01*
X157681728Y-108394540D01*
X157692647Y-108393390D01*
X157703902Y-108394711D01*
X157707971Y-108396622D01*
X157715505Y-108401651D01*
X157726947Y-108410164D01*
X157742742Y-108422530D01*
X157763335Y-108439115D01*
X157789169Y-108460287D01*
X157820689Y-108486413D01*
X157858340Y-108517862D01*
X157902565Y-108554999D01*
X157953809Y-108598193D01*
X158012516Y-108647811D01*
X158079131Y-108704220D01*
X158115614Y-108735147D01*
X158161384Y-108773958D01*
X158417592Y-108636570D01*
X158525653Y-108578444D01*
X158623890Y-108525224D01*
X158712572Y-108476759D01*
X158791970Y-108432896D01*
X158862352Y-108393487D01*
X158923989Y-108358379D01*
X158977149Y-108327423D01*
X159022103Y-108300466D01*
X159057593Y-108278335D01*
X159089093Y-108260415D01*
X159114708Y-108251090D01*
X159135669Y-108250188D01*
X159153207Y-108257538D01*
X159160845Y-108264022D01*
X159177119Y-108280295D01*
X159181017Y-108472818D01*
X159181880Y-108523301D01*
X159182344Y-108568672D01*
X159182414Y-108607792D01*
X159182097Y-108639522D01*
X159181400Y-108662725D01*
X159180331Y-108676261D01*
X159179772Y-108678793D01*
X159171386Y-108693223D01*
X159164103Y-108701235D01*
X159157184Y-108705968D01*
X159141632Y-108715886D01*
X159118482Y-108730351D01*
X159088771Y-108748722D01*
X159053536Y-108770361D01*
X159013814Y-108794628D01*
X158970640Y-108820885D01*
X158939089Y-108840004D01*
X158889017Y-108870318D01*
X158837352Y-108901629D01*
X158785889Y-108932846D01*
X158736424Y-108962879D01*
X158690750Y-108990639D01*
X158650664Y-109015035D01*
X158617959Y-109034978D01*
X158610616Y-109039465D01*
X158496633Y-109109147D01*
X158559816Y-109176266D01*
X158583677Y-109201715D01*
X158607125Y-109226907D01*
X158628037Y-109249548D01*
X158644292Y-109267347D01*
X158649650Y-109273309D01*
X158676300Y-109303234D01*
X158903650Y-109307138D01*
X158954635Y-109308146D01*
X159002411Y-109309346D01*
X159045687Y-109310687D01*
X159083173Y-109312118D01*
X159113577Y-109313589D01*
X159135608Y-109315049D01*
X159147976Y-109316446D01*
X159149442Y-109316791D01*
X159158675Y-109320070D01*
X159166134Y-109324324D01*
X159172009Y-109330700D01*
X159176489Y-109340344D01*
X159179761Y-109354404D01*
X159182015Y-109374027D01*
X159183439Y-109400360D01*
X159184222Y-109434550D01*
X159184554Y-109477743D01*
X159184622Y-109530599D01*
X159184622Y-109706291D01*
X159150828Y-109740085D01*
X159078327Y-109739004D01*
X159078327Y-109627502D01*
X159076441Y-109528632D01*
X159075571Y-109496224D01*
X159074329Y-109467732D01*
X159072838Y-109445076D01*
X159071219Y-109430178D01*
X159069855Y-109425070D01*
X159063332Y-109423923D01*
X159046788Y-109422689D01*
X159021492Y-109421418D01*
X158988711Y-109420157D01*
X158949713Y-109418954D01*
X158905765Y-109417858D01*
X158858135Y-109416916D01*
X158852544Y-109416821D01*
X158804357Y-109415921D01*
X158759521Y-109414903D01*
X158719336Y-109413812D01*
X158685104Y-109412690D01*
X158658127Y-109411579D01*
X158639708Y-109410524D01*
X158631148Y-109409568D01*
X158630889Y-109409481D01*
X158624745Y-109404485D01*
X158612034Y-109392328D01*
X158593861Y-109374132D01*
X158571331Y-109351019D01*
X158545548Y-109324108D01*
X158518000Y-109294929D01*
X158478290Y-109252558D01*
X158445612Y-109217595D01*
X158419281Y-109189211D01*
X158398613Y-109166573D01*
X158382923Y-109148850D01*
X158371528Y-109135212D01*
X158363742Y-109124827D01*
X158358880Y-109116863D01*
X158356260Y-109110491D01*
X158355195Y-109104878D01*
X158355002Y-109099194D01*
X158355014Y-109097020D01*
X158357715Y-109079615D01*
X158364129Y-109065266D01*
X158364892Y-109064280D01*
X158371147Y-109059562D01*
X158386213Y-109049541D01*
X158409235Y-109034742D01*
X158439358Y-109015692D01*
X158475726Y-108992919D01*
X158517484Y-108966948D01*
X158563777Y-108938306D01*
X158613750Y-108907520D01*
X158666546Y-108875116D01*
X158721311Y-108841621D01*
X158777190Y-108807562D01*
X158833326Y-108773465D01*
X158888865Y-108739856D01*
X158942952Y-108707263D01*
X158994730Y-108676212D01*
X159011055Y-108666459D01*
X159071733Y-108630244D01*
X159071733Y-108518722D01*
X159071457Y-108478105D01*
X159070653Y-108445927D01*
X159069360Y-108422954D01*
X159067617Y-108409954D01*
X159066140Y-108407200D01*
X159059692Y-108409897D01*
X159045123Y-108417398D01*
X159024061Y-108428820D01*
X158998135Y-108443279D01*
X158968975Y-108459891D01*
X158968773Y-108460007D01*
X158920680Y-108487531D01*
X158871393Y-108515424D01*
X158819789Y-108544302D01*
X158764745Y-108574782D01*
X158705139Y-108607480D01*
X158639849Y-108643013D01*
X158567751Y-108681995D01*
X158487723Y-108725044D01*
X158412001Y-108765628D01*
X158355516Y-108795835D01*
X158308100Y-108821104D01*
X158268884Y-108841850D01*
X158236998Y-108858489D01*
X158211571Y-108871435D01*
X158191734Y-108881103D01*
X158176617Y-108887908D01*
X158165349Y-108892265D01*
X158157062Y-108894590D01*
X158150884Y-108895296D01*
X158145946Y-108894798D01*
X158142875Y-108893991D01*
X158134319Y-108889019D01*
X158117897Y-108877155D01*
X158094260Y-108858920D01*
X158064055Y-108834836D01*
X158027933Y-108805424D01*
X157986542Y-108771204D01*
X157940530Y-108732699D01*
X157911758Y-108708417D01*
X157869738Y-108672889D01*
X157830314Y-108639630D01*
X157794329Y-108609345D01*
X157762623Y-108582739D01*
X157736038Y-108560515D01*
X157715414Y-108543377D01*
X157701592Y-108532031D01*
X157695414Y-108527181D01*
X157695201Y-108527058D01*
X157690443Y-108530553D01*
X157679701Y-108540905D01*
X157664460Y-108556502D01*
X157646203Y-108575736D01*
X157626413Y-108596995D01*
X157606575Y-108618669D01*
X157588172Y-108639147D01*
X157572687Y-108656819D01*
X157561604Y-108670075D01*
X157556407Y-108677304D01*
X157556200Y-108677951D01*
X157560189Y-108682337D01*
X157571751Y-108693913D01*
X157590274Y-108712092D01*
X157615151Y-108736284D01*
X157645771Y-108765902D01*
X157681525Y-108800358D01*
X157721803Y-108839064D01*
X157765995Y-108881432D01*
X157813493Y-108926873D01*
X157863685Y-108974801D01*
X157886400Y-108996461D01*
X157937885Y-109045606D01*
X157987151Y-109092766D01*
X158033561Y-109137325D01*
X158076481Y-109178668D01*
X158115277Y-109216179D01*
X158149313Y-109249242D01*
X158177955Y-109277241D01*
X158200569Y-109299562D01*
X158216519Y-109315589D01*
X158225172Y-109324705D01*
X158226448Y-109326281D01*
X158233531Y-109340580D01*
X158236305Y-109352645D01*
X158231481Y-109371470D01*
X158219194Y-109389383D01*
X158202759Y-109402120D01*
X158195727Y-109404821D01*
X158187094Y-109405645D01*
X158168122Y-109406458D01*
X158139761Y-109407245D01*
X158102959Y-109407993D01*
X158058666Y-109408689D01*
X158007832Y-109409319D01*
X157951407Y-109409869D01*
X157890339Y-109410326D01*
X157825579Y-109410676D01*
X157773511Y-109410865D01*
X157699135Y-109411124D01*
X157622070Y-109411475D01*
X157544022Y-109411907D01*
X157466698Y-109412407D01*
X157391806Y-109412962D01*
X157321051Y-109413559D01*
X157256141Y-109414186D01*
X157198783Y-109414829D01*
X157150682Y-109415476D01*
X157142744Y-109415598D01*
X156915555Y-109419176D01*
X156915555Y-109627493D01*
X157264100Y-109622713D01*
X157373327Y-109621376D01*
X157485043Y-109620336D01*
X157600169Y-109619594D01*
X157719624Y-109619149D01*
X157844328Y-109619004D01*
X157975202Y-109619157D01*
X158113165Y-109619610D01*
X158259138Y-109620364D01*
X158414041Y-109621419D01*
X158578793Y-109622776D01*
X158675686Y-109623668D01*
X159078327Y-109627502D01*
X159078327Y-109739004D01*
X158858692Y-109735728D01*
X158793906Y-109734880D01*
X158720050Y-109734119D01*
X158638216Y-109733447D01*
X158549495Y-109732865D01*
X158454980Y-109732371D01*
X158355761Y-109731966D01*
X158252932Y-109731650D01*
X158147583Y-109731424D01*
X158040807Y-109731288D01*
X157933696Y-109731242D01*
X157827342Y-109731285D01*
X157722835Y-109731419D01*
X157621270Y-109731643D01*
X157523736Y-109731958D01*
X157431326Y-109732364D01*
X157345133Y-109732860D01*
X157266247Y-109733448D01*
X157195760Y-109734126D01*
X157134766Y-109734897D01*
X157100933Y-109735443D01*
X156843222Y-109740063D01*
X156824355Y-109723213D01*
X156805489Y-109706362D01*
X156803831Y-109529503D01*
X156803521Y-109485374D01*
X156803432Y-109444443D01*
X156803551Y-109408195D01*
G36*
X156857982Y-112696978D02*
G01*
X158738711Y-112696978D01*
X158738711Y-112188797D01*
X158738732Y-112099767D01*
X158738802Y-112021345D01*
X158738933Y-111952850D01*
X158739133Y-111893603D01*
X158739415Y-111842922D01*
X158739789Y-111800126D01*
X158740266Y-111764536D01*
X158740855Y-111735470D01*
X158741568Y-111712248D01*
X158742416Y-111694190D01*
X158743409Y-111680614D01*
X158744558Y-111670840D01*
X158745873Y-111664187D01*
X158746974Y-111660838D01*
X158751347Y-111651472D01*
X158756613Y-111643869D01*
X158763917Y-111637847D01*
X158774401Y-111633222D01*
X158789211Y-111629810D01*
X158809490Y-111627429D01*
X158836382Y-111625894D01*
X158871031Y-111625022D01*
X158914581Y-111624630D01*
X158968177Y-111624534D01*
X159151884Y-111624534D01*
X159171075Y-111643725D01*
X159190267Y-111662916D01*
X159189909Y-112384558D01*
X159189825Y-112476219D01*
X159189669Y-112564406D01*
X159189446Y-112648466D01*
X159189160Y-112727747D01*
X159188816Y-112801597D01*
X159188420Y-112869364D01*
X159187975Y-112930394D01*
X159187486Y-112984037D01*
X159186959Y-113029639D01*
X159186397Y-113066549D01*
X159185806Y-113094114D01*
X159185191Y-113111682D01*
X159184568Y-113118571D01*
X159176267Y-113130593D01*
X159164464Y-113140850D01*
X159161280Y-113142579D01*
X159156870Y-113144096D01*
X159150518Y-113145414D01*
X159141511Y-113146547D01*
X159129134Y-113147511D01*
X159112674Y-113148318D01*
X159091417Y-113148983D01*
X159064647Y-113149519D01*
X159031652Y-113149941D01*
X158991717Y-113150263D01*
X158944127Y-113150499D01*
X158888169Y-113150663D01*
X158823129Y-113150768D01*
X158748292Y-113150829D01*
X158662945Y-113150861D01*
X158654749Y-113150862D01*
X158611026Y-113150855D01*
X158611026Y-113044536D01*
X158690776Y-113044280D01*
X158763469Y-113043719D01*
X158790922Y-113043393D01*
X159077378Y-113039581D01*
X159077378Y-111737422D01*
X158851600Y-111737422D01*
X158851600Y-112774806D01*
X158835224Y-112792337D01*
X158818848Y-112809867D01*
X156932489Y-112809867D01*
X156932489Y-113035645D01*
X157424967Y-113035787D01*
X157507516Y-113035882D01*
X157593332Y-113036114D01*
X157680815Y-113036470D01*
X157768368Y-113036939D01*
X157854393Y-113037510D01*
X157937293Y-113038169D01*
X158015469Y-113038907D01*
X158087323Y-113039710D01*
X158151258Y-113040568D01*
X158205676Y-113041467D01*
X158210955Y-113041567D01*
X158281192Y-113042696D01*
X158359304Y-113043567D01*
X158442304Y-113044170D01*
X158527207Y-113044496D01*
X158611026Y-113044536D01*
X158611026Y-113150855D01*
X158577797Y-113150849D01*
X158491183Y-113150781D01*
X158396534Y-113150662D01*
X158295476Y-113150495D01*
X158189636Y-113150286D01*
X158080641Y-113150037D01*
X157970117Y-113149752D01*
X157859691Y-113149436D01*
X157750991Y-113149091D01*
X157645641Y-113148722D01*
X157545270Y-113148333D01*
X157506772Y-113148172D01*
X156853388Y-113145376D01*
X156822422Y-113114424D01*
X156820793Y-112925110D01*
X156819165Y-112735795D01*
X156857982Y-112696978D01*
G37*
X156857982Y-112696978D02*
X158738711Y-112696978D01*
X158738711Y-112188797D01*
X158738732Y-112099767D01*
X158738802Y-112021345D01*
X158738933Y-111952850D01*
X158739133Y-111893603D01*
X158739415Y-111842922D01*
X158739789Y-111800126D01*
X158740266Y-111764536D01*
X158740855Y-111735470D01*
X158741568Y-111712248D01*
X158742416Y-111694190D01*
X158743409Y-111680614D01*
X158744558Y-111670840D01*
X158745873Y-111664187D01*
X158746974Y-111660838D01*
X158751347Y-111651472D01*
X158756613Y-111643869D01*
X158763917Y-111637847D01*
X158774401Y-111633222D01*
X158789211Y-111629810D01*
X158809490Y-111627429D01*
X158836382Y-111625894D01*
X158871031Y-111625022D01*
X158914581Y-111624630D01*
X158968177Y-111624534D01*
X159151884Y-111624534D01*
X159171075Y-111643725D01*
X159190267Y-111662916D01*
X159189909Y-112384558D01*
X159189825Y-112476219D01*
X159189669Y-112564406D01*
X159189446Y-112648466D01*
X159189160Y-112727747D01*
X159188816Y-112801597D01*
X159188420Y-112869364D01*
X159187975Y-112930394D01*
X159187486Y-112984037D01*
X159186959Y-113029639D01*
X159186397Y-113066549D01*
X159185806Y-113094114D01*
X159185191Y-113111682D01*
X159184568Y-113118571D01*
X159176267Y-113130593D01*
X159164464Y-113140850D01*
X159161280Y-113142579D01*
X159156870Y-113144096D01*
X159150518Y-113145414D01*
X159141511Y-113146547D01*
X159129134Y-113147511D01*
X159112674Y-113148318D01*
X159091417Y-113148983D01*
X159064647Y-113149519D01*
X159031652Y-113149941D01*
X158991717Y-113150263D01*
X158944127Y-113150499D01*
X158888169Y-113150663D01*
X158823129Y-113150768D01*
X158748292Y-113150829D01*
X158662945Y-113150861D01*
X158654749Y-113150862D01*
X158611026Y-113150855D01*
X158611026Y-113044536D01*
X158690776Y-113044280D01*
X158763469Y-113043719D01*
X158790922Y-113043393D01*
X159077378Y-113039581D01*
X159077378Y-111737422D01*
X158851600Y-111737422D01*
X158851600Y-112774806D01*
X158835224Y-112792337D01*
X158818848Y-112809867D01*
X156932489Y-112809867D01*
X156932489Y-113035645D01*
X157424967Y-113035787D01*
X157507516Y-113035882D01*
X157593332Y-113036114D01*
X157680815Y-113036470D01*
X157768368Y-113036939D01*
X157854393Y-113037510D01*
X157937293Y-113038169D01*
X158015469Y-113038907D01*
X158087323Y-113039710D01*
X158151258Y-113040568D01*
X158205676Y-113041467D01*
X158210955Y-113041567D01*
X158281192Y-113042696D01*
X158359304Y-113043567D01*
X158442304Y-113044170D01*
X158527207Y-113044496D01*
X158611026Y-113044536D01*
X158611026Y-113150855D01*
X158577797Y-113150849D01*
X158491183Y-113150781D01*
X158396534Y-113150662D01*
X158295476Y-113150495D01*
X158189636Y-113150286D01*
X158080641Y-113150037D01*
X157970117Y-113149752D01*
X157859691Y-113149436D01*
X157750991Y-113149091D01*
X157645641Y-113148722D01*
X157545270Y-113148333D01*
X157506772Y-113148172D01*
X156853388Y-113145376D01*
X156822422Y-113114424D01*
X156820793Y-112925110D01*
X156819165Y-112735795D01*
X156857982Y-112696978D01*
G36*
X157390911Y-110141992D02*
G01*
X157392097Y-110113817D01*
X157394146Y-110092441D01*
X157397221Y-110076741D01*
X157401488Y-110065595D01*
X157407111Y-110057882D01*
X157414255Y-110052479D01*
X157423084Y-110048264D01*
X157424763Y-110047585D01*
X157429046Y-110046569D01*
X157436825Y-110045667D01*
X157448590Y-110044878D01*
X157464832Y-110044201D01*
X157486045Y-110043633D01*
X157512717Y-110043175D01*
X157545342Y-110042823D01*
X157584410Y-110042576D01*
X157630412Y-110042432D01*
X157683840Y-110042391D01*
X157745185Y-110042449D01*
X157814938Y-110042606D01*
X157893591Y-110042861D01*
X157981635Y-110043210D01*
X158079561Y-110043654D01*
X158187860Y-110044189D01*
X158289978Y-110044724D01*
X158387037Y-110045263D01*
X158481122Y-110045826D01*
X158571603Y-110046408D01*
X158657851Y-110047002D01*
X158739235Y-110047603D01*
X158815127Y-110048205D01*
X158884896Y-110048803D01*
X158947914Y-110049390D01*
X159003549Y-110049962D01*
X159051174Y-110050513D01*
X159090158Y-110051036D01*
X159119873Y-110051527D01*
X159139687Y-110051979D01*
X159148972Y-110052387D01*
X159149519Y-110052465D01*
X159160963Y-110059286D01*
X159172148Y-110071793D01*
X159173487Y-110073874D01*
X159176716Y-110079814D01*
X159179253Y-110086719D01*
X159181179Y-110095944D01*
X159182579Y-110108845D01*
X159183537Y-110126778D01*
X159184134Y-110151098D01*
X159184455Y-110183160D01*
X159184582Y-110224321D01*
X159184601Y-110254779D01*
X159184622Y-110417491D01*
X159168123Y-110433990D01*
X159154433Y-110445077D01*
X159139550Y-110449779D01*
X159125790Y-110450489D01*
X159110485Y-110450892D01*
X159101220Y-110451911D01*
X159099955Y-110452546D01*
X159102307Y-110458139D01*
X159108651Y-110471590D01*
X159117919Y-110490662D01*
X159125413Y-110505835D01*
X159157777Y-110579712D01*
X159179888Y-110651160D01*
X159192023Y-110721814D01*
X159194461Y-110793311D01*
X159187480Y-110867286D01*
X159187199Y-110869107D01*
X159169292Y-110948198D01*
X159141065Y-111023351D01*
X159102965Y-111094025D01*
X159055438Y-111159677D01*
X158998931Y-111219767D01*
X158933889Y-111273754D01*
X158860759Y-111321095D01*
X158782218Y-111360286D01*
X158735462Y-111378400D01*
X158681288Y-111395755D01*
X158623565Y-111411277D01*
X158566160Y-111423891D01*
X158532074Y-111429833D01*
X158507239Y-111432713D01*
X158471671Y-111435408D01*
X158425925Y-111437903D01*
X158370555Y-111440186D01*
X158306115Y-111442244D01*
X158233160Y-111444064D01*
X158152246Y-111445632D01*
X158063925Y-111446937D01*
X157968753Y-111447964D01*
X157867284Y-111448700D01*
X157760072Y-111449133D01*
X157709577Y-111449226D01*
X157509202Y-111449461D01*
X157509202Y-111341912D01*
X157837501Y-111338951D01*
X157954048Y-111337734D01*
X158060666Y-111336279D01*
X158157200Y-111334591D01*
X158243493Y-111332673D01*
X158319392Y-111330532D01*
X158384739Y-111328171D01*
X158439380Y-111325596D01*
X158483160Y-111322810D01*
X158515922Y-111319820D01*
X158532906Y-111317492D01*
X158623224Y-111297654D01*
X158707220Y-111270259D01*
X158784266Y-111235658D01*
X158853732Y-111194202D01*
X158914990Y-111146243D01*
X158967411Y-111092130D01*
X158990717Y-111062028D01*
X159018169Y-111018137D01*
X159042461Y-110968836D01*
X159062054Y-110917852D01*
X159075408Y-110868911D01*
X159078989Y-110848422D01*
X159081986Y-110813599D01*
X159082464Y-110774254D01*
X159080593Y-110734521D01*
X159076541Y-110698535D01*
X159071934Y-110675570D01*
X159050761Y-110610762D01*
X159022206Y-110547793D01*
X158987917Y-110489929D01*
X158957949Y-110450077D01*
X158940040Y-110423954D01*
X158932907Y-110400562D01*
X158936502Y-110379419D01*
X158949197Y-110361589D01*
X158957322Y-110354313D01*
X158966027Y-110349539D01*
X158978065Y-110346551D01*
X158996189Y-110344632D01*
X159019625Y-110343245D01*
X159074555Y-110340422D01*
X159072517Y-110250111D01*
X159071782Y-110219562D01*
X159071065Y-110193352D01*
X159070424Y-110173388D01*
X159069920Y-110161576D01*
X159069695Y-110159173D01*
X159064063Y-110159073D01*
X159047785Y-110158927D01*
X159021502Y-110158738D01*
X158985859Y-110158509D01*
X158941496Y-110158244D01*
X158889056Y-110157947D01*
X158829181Y-110157621D01*
X158762515Y-110157269D01*
X158689699Y-110156895D01*
X158611375Y-110156503D01*
X158528187Y-110156095D01*
X158440776Y-110155675D01*
X158349785Y-110155247D01*
X158285744Y-110154951D01*
X157502578Y-110151356D01*
X157502578Y-110382698D01*
X157935789Y-110381357D01*
X158022912Y-110381117D01*
X158099636Y-110381003D01*
X158166849Y-110381060D01*
X158225441Y-110381335D01*
X158276301Y-110381873D01*
X158320317Y-110382722D01*
X158358378Y-110383928D01*
X158391375Y-110385536D01*
X158420195Y-110387593D01*
X158445728Y-110390146D01*
X158468863Y-110393240D01*
X158490489Y-110396922D01*
X158511495Y-110401238D01*
X158532769Y-110406234D01*
X158555202Y-110411957D01*
X158562930Y-110413992D01*
X158630816Y-110436651D01*
X158690296Y-110466395D01*
X158741165Y-110503046D01*
X158783216Y-110546424D01*
X158816243Y-110596350D01*
X158840040Y-110652643D01*
X158841261Y-110656511D01*
X158849090Y-110691085D01*
X158854000Y-110732241D01*
X158855799Y-110775607D01*
X158854294Y-110816810D01*
X158849757Y-110849372D01*
X158832553Y-110904628D01*
X158805898Y-110953741D01*
X158769842Y-110996662D01*
X158724435Y-111033343D01*
X158669730Y-111063736D01*
X158605775Y-111087792D01*
X158597472Y-111090253D01*
X158577264Y-111095925D01*
X158557827Y-111100927D01*
X158538323Y-111105308D01*
X158517915Y-111109115D01*
X158495766Y-111112398D01*
X158471038Y-111115205D01*
X158442893Y-111117584D01*
X158410495Y-111119583D01*
X158373004Y-111121252D01*
X158329586Y-111122638D01*
X158279400Y-111123791D01*
X158221611Y-111124758D01*
X158155381Y-111125588D01*
X158079872Y-111126329D01*
X157994246Y-111127030D01*
X157956955Y-111127310D01*
X157505400Y-111130645D01*
X157503608Y-111189911D01*
X157503199Y-111221368D01*
X157503632Y-111254944D01*
X157504809Y-111285116D01*
X157505509Y-111295545D01*
X157509202Y-111341912D01*
X157509202Y-111449461D01*
X157428331Y-111449556D01*
X157395333Y-111416558D01*
X157394683Y-111245379D01*
X157394555Y-111202055D01*
X157394505Y-111162016D01*
X157394529Y-111126759D01*
X157394625Y-111097778D01*
X157394789Y-111076570D01*
X157395017Y-111064629D01*
X157395112Y-111062911D01*
X157399661Y-111051544D01*
X157409426Y-111038334D01*
X157411284Y-111036380D01*
X157426378Y-111021138D01*
X157931555Y-111015453D01*
X158023749Y-111014400D01*
X158105422Y-111013411D01*
X158177340Y-111012442D01*
X158240273Y-111011449D01*
X158294986Y-111010388D01*
X158342247Y-111009214D01*
X158382824Y-111007885D01*
X158417484Y-111006355D01*
X158446994Y-111004582D01*
X158472121Y-111002520D01*
X158493633Y-111000125D01*
X158512297Y-110997355D01*
X158528881Y-110994164D01*
X158544151Y-110990509D01*
X158558875Y-110986345D01*
X158573820Y-110981629D01*
X158584856Y-110977965D01*
X158625100Y-110962537D01*
X158657063Y-110945510D01*
X158683751Y-110925063D01*
X158701043Y-110907586D01*
X158719866Y-110883182D01*
X158732796Y-110857270D01*
X158740520Y-110827402D01*
X158743725Y-110791127D01*
X158743510Y-110756198D01*
X158742230Y-110727786D01*
X158740189Y-110707128D01*
X158736646Y-110690686D01*
X158730863Y-110674927D01*
X158723004Y-110658147D01*
X158696704Y-110617322D01*
X158661034Y-110581938D01*
X158616823Y-110552599D01*
X158564903Y-110529913D01*
X158534994Y-110520911D01*
X158517230Y-110516342D01*
X158500856Y-110512317D01*
X158485058Y-110508796D01*
X158469021Y-110505740D01*
X158451930Y-110503108D01*
X158432970Y-110500862D01*
X158411326Y-110498960D01*
X158386183Y-110497365D01*
X158356726Y-110496035D01*
X158322141Y-110494932D01*
X158281613Y-110494015D01*
X158234325Y-110493245D01*
X158179464Y-110492583D01*
X158116215Y-110491987D01*
X158043762Y-110491420D01*
X157961291Y-110490841D01*
X157910541Y-110490497D01*
X157418215Y-110487178D01*
X157405363Y-110474328D01*
X157401833Y-110470575D01*
X157399006Y-110466317D01*
X157396789Y-110460330D01*
X157395094Y-110451387D01*
X157393828Y-110438262D01*
X157392902Y-110419729D01*
X157392224Y-110394563D01*
X157391705Y-110361537D01*
X157391252Y-110319427D01*
X157390879Y-110278531D01*
X157390466Y-110223227D01*
X157390422Y-110178088D01*
X157390911Y-110141992D01*
G37*
X157390911Y-110141992D02*
X157392097Y-110113817D01*
X157394146Y-110092441D01*
X157397221Y-110076741D01*
X157401488Y-110065595D01*
X157407111Y-110057882D01*
X157414255Y-110052479D01*
X157423084Y-110048264D01*
X157424763Y-110047585D01*
X157429046Y-110046569D01*
X157436825Y-110045667D01*
X157448590Y-110044878D01*
X157464832Y-110044201D01*
X157486045Y-110043633D01*
X157512717Y-110043175D01*
X157545342Y-110042823D01*
X157584410Y-110042576D01*
X157630412Y-110042432D01*
X157683840Y-110042391D01*
X157745185Y-110042449D01*
X157814938Y-110042606D01*
X157893591Y-110042861D01*
X157981635Y-110043210D01*
X158079561Y-110043654D01*
X158187860Y-110044189D01*
X158289978Y-110044724D01*
X158387037Y-110045263D01*
X158481122Y-110045826D01*
X158571603Y-110046408D01*
X158657851Y-110047002D01*
X158739235Y-110047603D01*
X158815127Y-110048205D01*
X158884896Y-110048803D01*
X158947914Y-110049390D01*
X159003549Y-110049962D01*
X159051174Y-110050513D01*
X159090158Y-110051036D01*
X159119873Y-110051527D01*
X159139687Y-110051979D01*
X159148972Y-110052387D01*
X159149519Y-110052465D01*
X159160963Y-110059286D01*
X159172148Y-110071793D01*
X159173487Y-110073874D01*
X159176716Y-110079814D01*
X159179253Y-110086719D01*
X159181179Y-110095944D01*
X159182579Y-110108845D01*
X159183537Y-110126778D01*
X159184134Y-110151098D01*
X159184455Y-110183160D01*
X159184582Y-110224321D01*
X159184601Y-110254779D01*
X159184622Y-110417491D01*
X159168123Y-110433990D01*
X159154433Y-110445077D01*
X159139550Y-110449779D01*
X159125790Y-110450489D01*
X159110485Y-110450892D01*
X159101220Y-110451911D01*
X159099955Y-110452546D01*
X159102307Y-110458139D01*
X159108651Y-110471590D01*
X159117919Y-110490662D01*
X159125413Y-110505835D01*
X159157777Y-110579712D01*
X159179888Y-110651160D01*
X159192023Y-110721814D01*
X159194461Y-110793311D01*
X159187480Y-110867286D01*
X159187199Y-110869107D01*
X159169292Y-110948198D01*
X159141065Y-111023351D01*
X159102965Y-111094025D01*
X159055438Y-111159677D01*
X158998931Y-111219767D01*
X158933889Y-111273754D01*
X158860759Y-111321095D01*
X158782218Y-111360286D01*
X158735462Y-111378400D01*
X158681288Y-111395755D01*
X158623565Y-111411277D01*
X158566160Y-111423891D01*
X158532074Y-111429833D01*
X158507239Y-111432713D01*
X158471671Y-111435408D01*
X158425925Y-111437903D01*
X158370555Y-111440186D01*
X158306115Y-111442244D01*
X158233160Y-111444064D01*
X158152246Y-111445632D01*
X158063925Y-111446937D01*
X157968753Y-111447964D01*
X157867284Y-111448700D01*
X157760072Y-111449133D01*
X157709577Y-111449226D01*
X157509202Y-111449461D01*
X157509202Y-111341912D01*
X157837501Y-111338951D01*
X157954048Y-111337734D01*
X158060666Y-111336279D01*
X158157200Y-111334591D01*
X158243493Y-111332673D01*
X158319392Y-111330532D01*
X158384739Y-111328171D01*
X158439380Y-111325596D01*
X158483160Y-111322810D01*
X158515922Y-111319820D01*
X158532906Y-111317492D01*
X158623224Y-111297654D01*
X158707220Y-111270259D01*
X158784266Y-111235658D01*
X158853732Y-111194202D01*
X158914990Y-111146243D01*
X158967411Y-111092130D01*
X158990717Y-111062028D01*
X159018169Y-111018137D01*
X159042461Y-110968836D01*
X159062054Y-110917852D01*
X159075408Y-110868911D01*
X159078989Y-110848422D01*
X159081986Y-110813599D01*
X159082464Y-110774254D01*
X159080593Y-110734521D01*
X159076541Y-110698535D01*
X159071934Y-110675570D01*
X159050761Y-110610762D01*
X159022206Y-110547793D01*
X158987917Y-110489929D01*
X158957949Y-110450077D01*
X158940040Y-110423954D01*
X158932907Y-110400562D01*
X158936502Y-110379419D01*
X158949197Y-110361589D01*
X158957322Y-110354313D01*
X158966027Y-110349539D01*
X158978065Y-110346551D01*
X158996189Y-110344632D01*
X159019625Y-110343245D01*
X159074555Y-110340422D01*
X159072517Y-110250111D01*
X159071782Y-110219562D01*
X159071065Y-110193352D01*
X159070424Y-110173388D01*
X159069920Y-110161576D01*
X159069695Y-110159173D01*
X159064063Y-110159073D01*
X159047785Y-110158927D01*
X159021502Y-110158738D01*
X158985859Y-110158509D01*
X158941496Y-110158244D01*
X158889056Y-110157947D01*
X158829181Y-110157621D01*
X158762515Y-110157269D01*
X158689699Y-110156895D01*
X158611375Y-110156503D01*
X158528187Y-110156095D01*
X158440776Y-110155675D01*
X158349785Y-110155247D01*
X158285744Y-110154951D01*
X157502578Y-110151356D01*
X157502578Y-110382698D01*
X157935789Y-110381357D01*
X158022912Y-110381117D01*
X158099636Y-110381003D01*
X158166849Y-110381060D01*
X158225441Y-110381335D01*
X158276301Y-110381873D01*
X158320317Y-110382722D01*
X158358378Y-110383928D01*
X158391375Y-110385536D01*
X158420195Y-110387593D01*
X158445728Y-110390146D01*
X158468863Y-110393240D01*
X158490489Y-110396922D01*
X158511495Y-110401238D01*
X158532769Y-110406234D01*
X158555202Y-110411957D01*
X158562930Y-110413992D01*
X158630816Y-110436651D01*
X158690296Y-110466395D01*
X158741165Y-110503046D01*
X158783216Y-110546424D01*
X158816243Y-110596350D01*
X158840040Y-110652643D01*
X158841261Y-110656511D01*
X158849090Y-110691085D01*
X158854000Y-110732241D01*
X158855799Y-110775607D01*
X158854294Y-110816810D01*
X158849757Y-110849372D01*
X158832553Y-110904628D01*
X158805898Y-110953741D01*
X158769842Y-110996662D01*
X158724435Y-111033343D01*
X158669730Y-111063736D01*
X158605775Y-111087792D01*
X158597472Y-111090253D01*
X158577264Y-111095925D01*
X158557827Y-111100927D01*
X158538323Y-111105308D01*
X158517915Y-111109115D01*
X158495766Y-111112398D01*
X158471038Y-111115205D01*
X158442893Y-111117584D01*
X158410495Y-111119583D01*
X158373004Y-111121252D01*
X158329586Y-111122638D01*
X158279400Y-111123791D01*
X158221611Y-111124758D01*
X158155381Y-111125588D01*
X158079872Y-111126329D01*
X157994246Y-111127030D01*
X157956955Y-111127310D01*
X157505400Y-111130645D01*
X157503608Y-111189911D01*
X157503199Y-111221368D01*
X157503632Y-111254944D01*
X157504809Y-111285116D01*
X157505509Y-111295545D01*
X157509202Y-111341912D01*
X157509202Y-111449461D01*
X157428331Y-111449556D01*
X157395333Y-111416558D01*
X157394683Y-111245379D01*
X157394555Y-111202055D01*
X157394505Y-111162016D01*
X157394529Y-111126759D01*
X157394625Y-111097778D01*
X157394789Y-111076570D01*
X157395017Y-111064629D01*
X157395112Y-111062911D01*
X157399661Y-111051544D01*
X157409426Y-111038334D01*
X157411284Y-111036380D01*
X157426378Y-111021138D01*
X157931555Y-111015453D01*
X158023749Y-111014400D01*
X158105422Y-111013411D01*
X158177340Y-111012442D01*
X158240273Y-111011449D01*
X158294986Y-111010388D01*
X158342247Y-111009214D01*
X158382824Y-111007885D01*
X158417484Y-111006355D01*
X158446994Y-111004582D01*
X158472121Y-111002520D01*
X158493633Y-111000125D01*
X158512297Y-110997355D01*
X158528881Y-110994164D01*
X158544151Y-110990509D01*
X158558875Y-110986345D01*
X158573820Y-110981629D01*
X158584856Y-110977965D01*
X158625100Y-110962537D01*
X158657063Y-110945510D01*
X158683751Y-110925063D01*
X158701043Y-110907586D01*
X158719866Y-110883182D01*
X158732796Y-110857270D01*
X158740520Y-110827402D01*
X158743725Y-110791127D01*
X158743510Y-110756198D01*
X158742230Y-110727786D01*
X158740189Y-110707128D01*
X158736646Y-110690686D01*
X158730863Y-110674927D01*
X158723004Y-110658147D01*
X158696704Y-110617322D01*
X158661034Y-110581938D01*
X158616823Y-110552599D01*
X158564903Y-110529913D01*
X158534994Y-110520911D01*
X158517230Y-110516342D01*
X158500856Y-110512317D01*
X158485058Y-110508796D01*
X158469021Y-110505740D01*
X158451930Y-110503108D01*
X158432970Y-110500862D01*
X158411326Y-110498960D01*
X158386183Y-110497365D01*
X158356726Y-110496035D01*
X158322141Y-110494932D01*
X158281613Y-110494015D01*
X158234325Y-110493245D01*
X158179464Y-110492583D01*
X158116215Y-110491987D01*
X158043762Y-110491420D01*
X157961291Y-110490841D01*
X157910541Y-110490497D01*
X157418215Y-110487178D01*
X157405363Y-110474328D01*
X157401833Y-110470575D01*
X157399006Y-110466317D01*
X157396789Y-110460330D01*
X157395094Y-110451387D01*
X157393828Y-110438262D01*
X157392902Y-110419729D01*
X157392224Y-110394563D01*
X157391705Y-110361537D01*
X157391252Y-110319427D01*
X157390879Y-110278531D01*
X157390466Y-110223227D01*
X157390422Y-110178088D01*
X157390911Y-110141992D01*
G36*
X157408519Y-105838978D02*
G01*
X157416484Y-105748134D01*
X157431274Y-105661360D01*
X157452511Y-105579703D01*
X157479818Y-105504209D01*
X157512819Y-105435926D01*
X157551136Y-105375900D01*
X157593069Y-105326512D01*
X157627123Y-105294908D01*
X157657136Y-105273300D01*
X157683678Y-105261381D01*
X157707317Y-105258842D01*
X157715499Y-105260233D01*
X157723355Y-105265128D01*
X157737771Y-105276900D01*
X157757469Y-105294302D01*
X157781168Y-105316088D01*
X157807590Y-105341011D01*
X157835455Y-105367826D01*
X157863485Y-105395286D01*
X157890399Y-105422145D01*
X157914920Y-105447156D01*
X157935767Y-105469073D01*
X157951661Y-105486650D01*
X157961323Y-105498641D01*
X157963079Y-105501442D01*
X157970479Y-105526424D01*
X157966638Y-105551801D01*
X157956712Y-105570688D01*
X157927689Y-105619809D01*
X157902257Y-105675363D01*
X157880999Y-105735019D01*
X157864497Y-105796448D01*
X157853334Y-105857320D01*
X157848092Y-105915303D01*
X157849354Y-105968068D01*
X157852122Y-105989044D01*
X157864308Y-106035903D01*
X157883327Y-106077298D01*
X157908197Y-106111674D01*
X157937935Y-106137474D01*
X157950490Y-106144799D01*
X157978077Y-106152951D01*
X158006900Y-106151095D01*
X158035048Y-106140067D01*
X158060612Y-106120700D01*
X158081678Y-106093828D01*
X158086278Y-106085530D01*
X158091576Y-106074909D01*
X158095663Y-106065289D01*
X158098760Y-106054978D01*
X158101085Y-106042282D01*
X158102858Y-106025509D01*
X158104299Y-106002967D01*
X158105626Y-105972963D01*
X158107059Y-105933806D01*
X158107472Y-105922029D01*
X158110126Y-105853523D01*
X158113064Y-105794945D01*
X158116510Y-105744931D01*
X158120689Y-105702121D01*
X158125825Y-105665153D01*
X158132144Y-105632664D01*
X158139871Y-105603293D01*
X158149231Y-105575678D01*
X158160447Y-105548457D01*
X158173746Y-105520269D01*
X158173846Y-105520067D01*
X158209586Y-105458236D01*
X158252460Y-105401706D01*
X158301138Y-105351703D01*
X158354291Y-105309451D01*
X158410588Y-105276174D01*
X158461293Y-105255412D01*
X158492393Y-105245772D01*
X158519971Y-105238536D01*
X158546598Y-105233369D01*
X158574845Y-105229937D01*
X158607282Y-105227907D01*
X158646478Y-105226945D01*
X158682267Y-105226724D01*
X158792333Y-105226556D01*
X158843133Y-105246441D01*
X158903140Y-105274394D01*
X158955845Y-105308908D01*
X159003087Y-105351441D01*
X159046705Y-105403451D01*
X159054241Y-105413830D01*
X159095640Y-105479871D01*
X159131766Y-105554383D01*
X159162837Y-105637910D01*
X159189073Y-105731000D01*
X159198914Y-105774067D01*
X159202138Y-105794912D01*
X159205044Y-105824398D01*
X159207529Y-105859882D01*
X159209491Y-105898717D01*
X159210827Y-105938259D01*
X159211434Y-105975862D01*
X159211209Y-106008882D01*
X159210051Y-106034673D01*
X159209326Y-106042178D01*
X159200335Y-106097058D01*
X159186211Y-106158037D01*
X159167983Y-106221751D01*
X159146678Y-106284838D01*
X159123322Y-106343935D01*
X159105051Y-106383667D01*
X159072000Y-106444767D01*
X159035000Y-106501731D01*
X158992090Y-106557261D01*
X158941308Y-106614063D01*
X158927800Y-106628115D01*
X158902626Y-106653771D01*
X158883672Y-106672385D01*
X158869437Y-106685150D01*
X158858422Y-106693261D01*
X158849125Y-106697910D01*
X158840046Y-106700293D01*
X158836413Y-106700844D01*
X158832718Y-106701333D01*
X158832718Y-106567111D01*
X158839137Y-106562860D01*
X158850938Y-106551200D01*
X158866756Y-106533774D01*
X158885225Y-106512222D01*
X158904978Y-106488186D01*
X158924651Y-106463309D01*
X158942876Y-106439231D01*
X158958290Y-106417594D01*
X158963075Y-106410430D01*
X158998294Y-106349365D01*
X159030149Y-106280218D01*
X159057605Y-106205955D01*
X159079624Y-106129541D01*
X159095173Y-106053941D01*
X159100114Y-106018104D01*
X159102368Y-105983874D01*
X159102587Y-105942494D01*
X159100942Y-105897883D01*
X159097607Y-105853963D01*
X159092752Y-105814653D01*
X159090648Y-105802289D01*
X159072549Y-105722775D01*
X159048961Y-105647481D01*
X159020535Y-105577893D01*
X158987923Y-105515499D01*
X158951777Y-105461784D01*
X158930088Y-105435891D01*
X158887376Y-105396835D01*
X158838881Y-105366069D01*
X158786532Y-105344586D01*
X158732255Y-105333385D01*
X158731600Y-105333317D01*
X158707110Y-105332327D01*
X158674874Y-105333161D01*
X158638233Y-105335529D01*
X158600531Y-105339140D01*
X158565110Y-105343704D01*
X158535311Y-105348932D01*
X158525507Y-105351197D01*
X158469627Y-105371153D01*
X158416780Y-105401305D01*
X158368026Y-105440733D01*
X158324423Y-105488518D01*
X158287031Y-105543742D01*
X158272466Y-105570867D01*
X158260589Y-105596183D01*
X158250791Y-105620808D01*
X158242822Y-105646264D01*
X158236433Y-105674076D01*
X158231375Y-105705766D01*
X158227398Y-105742859D01*
X158224251Y-105786878D01*
X158221686Y-105839347D01*
X158219748Y-105892600D01*
X158217901Y-105945289D01*
X158215993Y-105988241D01*
X158213790Y-106023007D01*
X158211059Y-106051137D01*
X158207567Y-106074182D01*
X158203082Y-106093692D01*
X158197370Y-106111218D01*
X158190198Y-106128311D01*
X158181706Y-106145786D01*
X158159081Y-106179578D01*
X158128575Y-106209341D01*
X158092431Y-106233934D01*
X158052889Y-106252212D01*
X158012190Y-106263032D01*
X157972574Y-106265251D01*
X157952826Y-106262558D01*
X157906803Y-106247045D01*
X157864409Y-106221531D01*
X157826526Y-106186965D01*
X157794036Y-106144294D01*
X157767818Y-106094466D01*
X157750456Y-106044802D01*
X157744772Y-106021578D01*
X157741121Y-105999012D01*
X157739148Y-105973603D01*
X157738502Y-105941847D01*
X157738537Y-105926467D01*
X157743711Y-105841638D01*
X157758393Y-105759054D01*
X157783019Y-105676893D01*
X157818024Y-105593337D01*
X157818326Y-105592702D01*
X157845557Y-105535515D01*
X157771358Y-105461469D01*
X157747587Y-105438060D01*
X157726307Y-105417695D01*
X157708880Y-105401630D01*
X157696668Y-105391121D01*
X157691063Y-105387422D01*
X157682028Y-105392138D01*
X157669050Y-105405090D01*
X157653366Y-105424482D01*
X157636212Y-105448519D01*
X157618828Y-105475408D01*
X157602448Y-105503354D01*
X157588312Y-105530561D01*
X157580695Y-105547523D01*
X157553974Y-105623780D01*
X157535020Y-105703486D01*
X157523658Y-105785368D01*
X157519711Y-105868148D01*
X157523004Y-105950552D01*
X157533361Y-106031305D01*
X157550604Y-106109130D01*
X157574558Y-106182753D01*
X157605048Y-106250897D01*
X157641896Y-106312288D01*
X157684927Y-106365649D01*
X157695092Y-106376071D01*
X157744247Y-106417171D01*
X157799614Y-106450008D01*
X157858932Y-106473339D01*
X157884260Y-106479956D01*
X157932672Y-106486860D01*
X157987358Y-106488168D01*
X158045009Y-106484252D01*
X158102319Y-106475486D01*
X158155981Y-106462244D01*
X158202686Y-106444899D01*
X158205311Y-106443682D01*
X158254947Y-106414244D01*
X158299717Y-106375406D01*
X158338766Y-106328316D01*
X158371243Y-106274124D01*
X158396294Y-106213981D01*
X158408904Y-106169178D01*
X158413174Y-106144962D01*
X158417199Y-106111682D01*
X158420821Y-106071561D01*
X158423881Y-106026823D01*
X158426222Y-105979692D01*
X158427687Y-105932391D01*
X158428115Y-105898245D01*
X158431311Y-105822105D01*
X158440289Y-105755100D01*
X158454981Y-105697342D01*
X158475319Y-105648943D01*
X158501237Y-105610015D01*
X158532669Y-105580672D01*
X158569545Y-105561025D01*
X158611800Y-105551186D01*
X158636114Y-105549986D01*
X158672254Y-105555757D01*
X158708145Y-105572125D01*
X158742972Y-105598412D01*
X158775918Y-105633939D01*
X158806166Y-105678030D01*
X158819714Y-105702475D01*
X158836751Y-105737289D01*
X158849606Y-105768692D01*
X158858829Y-105799298D01*
X158864971Y-105831722D01*
X158868584Y-105868580D01*
X158870219Y-105912484D01*
X158870479Y-105943400D01*
X158870341Y-105982263D01*
X158869687Y-106012223D01*
X158868319Y-106035660D01*
X158866043Y-106054956D01*
X158862663Y-106072490D01*
X158858530Y-106088677D01*
X158840404Y-106142686D01*
X158815317Y-106200722D01*
X158784964Y-106259560D01*
X158751038Y-106315978D01*
X158715233Y-106366753D01*
X158706758Y-106377482D01*
X158675227Y-106416453D01*
X158751124Y-106491782D01*
X158775173Y-106515365D01*
X158796691Y-106535928D01*
X158814336Y-106552231D01*
X158826768Y-106563037D01*
X158832645Y-106567106D01*
X158832718Y-106567111D01*
X158832718Y-106701333D01*
X158812759Y-106703975D01*
X158706590Y-106602205D01*
X158666242Y-106563495D01*
X158633288Y-106531735D01*
X158606960Y-106506079D01*
X158586487Y-106485681D01*
X158571102Y-106469693D01*
X158560034Y-106457271D01*
X158552514Y-106447567D01*
X158547772Y-106439736D01*
X158545040Y-106432930D01*
X158543547Y-106426305D01*
X158542944Y-106422198D01*
X158542068Y-106412467D01*
X158543168Y-106403988D01*
X158547401Y-106394761D01*
X158555925Y-106382787D01*
X158569897Y-106366067D01*
X158586249Y-106347393D01*
X158633274Y-106289304D01*
X158674541Y-106228717D01*
X158708919Y-106167608D01*
X158735275Y-106107953D01*
X158750220Y-106061072D01*
X158756165Y-106028616D01*
X158759879Y-105988818D01*
X158761312Y-105945411D01*
X158760416Y-105902130D01*
X158757139Y-105862707D01*
X158753178Y-105838327D01*
X158743180Y-105803702D01*
X158728257Y-105767941D01*
X158709913Y-105733640D01*
X158689649Y-105703393D01*
X158668967Y-105679796D01*
X158654893Y-105668526D01*
X158635588Y-105662384D01*
X158613746Y-105664574D01*
X158593365Y-105674221D01*
X158582572Y-105684352D01*
X158572401Y-105699515D01*
X158563824Y-105718118D01*
X158556668Y-105741248D01*
X158550756Y-105769994D01*
X158545916Y-105805444D01*
X158541972Y-105848686D01*
X158538750Y-105900807D01*
X158536075Y-105962896D01*
X158535568Y-105977267D01*
X158533093Y-106038284D01*
X158530032Y-106089761D01*
X158526124Y-106133444D01*
X158521108Y-106171076D01*
X158514723Y-106204403D01*
X158506707Y-106235170D01*
X158496800Y-106265121D01*
X158489701Y-106283776D01*
X158457451Y-106350594D01*
X158416713Y-106410706D01*
X158368275Y-106463416D01*
X158312925Y-106508026D01*
X158251451Y-106543839D01*
X158184642Y-106570158D01*
X158157333Y-106577694D01*
X158070527Y-106594081D01*
X157987598Y-106600056D01*
X157908855Y-106595767D01*
X157834604Y-106581361D01*
X157765154Y-106556983D01*
X157700811Y-106522781D01*
X157641884Y-106478901D01*
X157588681Y-106425491D01*
X157541508Y-106362697D01*
X157500674Y-106290665D01*
X157485233Y-106257100D01*
X157451921Y-106166767D01*
X157427569Y-106072031D01*
X157412631Y-105975372D01*
X157407563Y-105879271D01*
X157408519Y-105838978D01*
G37*
X157408519Y-105838978D02*
X157416484Y-105748134D01*
X157431274Y-105661360D01*
X157452511Y-105579703D01*
X157479818Y-105504209D01*
X157512819Y-105435926D01*
X157551136Y-105375900D01*
X157593069Y-105326512D01*
X157627123Y-105294908D01*
X157657136Y-105273300D01*
X157683678Y-105261381D01*
X157707317Y-105258842D01*
X157715499Y-105260233D01*
X157723355Y-105265128D01*
X157737771Y-105276900D01*
X157757469Y-105294302D01*
X157781168Y-105316088D01*
X157807590Y-105341011D01*
X157835455Y-105367826D01*
X157863485Y-105395286D01*
X157890399Y-105422145D01*
X157914920Y-105447156D01*
X157935767Y-105469073D01*
X157951661Y-105486650D01*
X157961323Y-105498641D01*
X157963079Y-105501442D01*
X157970479Y-105526424D01*
X157966638Y-105551801D01*
X157956712Y-105570688D01*
X157927689Y-105619809D01*
X157902257Y-105675363D01*
X157880999Y-105735019D01*
X157864497Y-105796448D01*
X157853334Y-105857320D01*
X157848092Y-105915303D01*
X157849354Y-105968068D01*
X157852122Y-105989044D01*
X157864308Y-106035903D01*
X157883327Y-106077298D01*
X157908197Y-106111674D01*
X157937935Y-106137474D01*
X157950490Y-106144799D01*
X157978077Y-106152951D01*
X158006900Y-106151095D01*
X158035048Y-106140067D01*
X158060612Y-106120700D01*
X158081678Y-106093828D01*
X158086278Y-106085530D01*
X158091576Y-106074909D01*
X158095663Y-106065289D01*
X158098760Y-106054978D01*
X158101085Y-106042282D01*
X158102858Y-106025509D01*
X158104299Y-106002967D01*
X158105626Y-105972963D01*
X158107059Y-105933806D01*
X158107472Y-105922029D01*
X158110126Y-105853523D01*
X158113064Y-105794945D01*
X158116510Y-105744931D01*
X158120689Y-105702121D01*
X158125825Y-105665153D01*
X158132144Y-105632664D01*
X158139871Y-105603293D01*
X158149231Y-105575678D01*
X158160447Y-105548457D01*
X158173746Y-105520269D01*
X158173846Y-105520067D01*
X158209586Y-105458236D01*
X158252460Y-105401706D01*
X158301138Y-105351703D01*
X158354291Y-105309451D01*
X158410588Y-105276174D01*
X158461293Y-105255412D01*
X158492393Y-105245772D01*
X158519971Y-105238536D01*
X158546598Y-105233369D01*
X158574845Y-105229937D01*
X158607282Y-105227907D01*
X158646478Y-105226945D01*
X158682267Y-105226724D01*
X158792333Y-105226556D01*
X158843133Y-105246441D01*
X158903140Y-105274394D01*
X158955845Y-105308908D01*
X159003087Y-105351441D01*
X159046705Y-105403451D01*
X159054241Y-105413830D01*
X159095640Y-105479871D01*
X159131766Y-105554383D01*
X159162837Y-105637910D01*
X159189073Y-105731000D01*
X159198914Y-105774067D01*
X159202138Y-105794912D01*
X159205044Y-105824398D01*
X159207529Y-105859882D01*
X159209491Y-105898717D01*
X159210827Y-105938259D01*
X159211434Y-105975862D01*
X159211209Y-106008882D01*
X159210051Y-106034673D01*
X159209326Y-106042178D01*
X159200335Y-106097058D01*
X159186211Y-106158037D01*
X159167983Y-106221751D01*
X159146678Y-106284838D01*
X159123322Y-106343935D01*
X159105051Y-106383667D01*
X159072000Y-106444767D01*
X159035000Y-106501731D01*
X158992090Y-106557261D01*
X158941308Y-106614063D01*
X158927800Y-106628115D01*
X158902626Y-106653771D01*
X158883672Y-106672385D01*
X158869437Y-106685150D01*
X158858422Y-106693261D01*
X158849125Y-106697910D01*
X158840046Y-106700293D01*
X158836413Y-106700844D01*
X158832718Y-106701333D01*
X158832718Y-106567111D01*
X158839137Y-106562860D01*
X158850938Y-106551200D01*
X158866756Y-106533774D01*
X158885225Y-106512222D01*
X158904978Y-106488186D01*
X158924651Y-106463309D01*
X158942876Y-106439231D01*
X158958290Y-106417594D01*
X158963075Y-106410430D01*
X158998294Y-106349365D01*
X159030149Y-106280218D01*
X159057605Y-106205955D01*
X159079624Y-106129541D01*
X159095173Y-106053941D01*
X159100114Y-106018104D01*
X159102368Y-105983874D01*
X159102587Y-105942494D01*
X159100942Y-105897883D01*
X159097607Y-105853963D01*
X159092752Y-105814653D01*
X159090648Y-105802289D01*
X159072549Y-105722775D01*
X159048961Y-105647481D01*
X159020535Y-105577893D01*
X158987923Y-105515499D01*
X158951777Y-105461784D01*
X158930088Y-105435891D01*
X158887376Y-105396835D01*
X158838881Y-105366069D01*
X158786532Y-105344586D01*
X158732255Y-105333385D01*
X158731600Y-105333317D01*
X158707110Y-105332327D01*
X158674874Y-105333161D01*
X158638233Y-105335529D01*
X158600531Y-105339140D01*
X158565110Y-105343704D01*
X158535311Y-105348932D01*
X158525507Y-105351197D01*
X158469627Y-105371153D01*
X158416780Y-105401305D01*
X158368026Y-105440733D01*
X158324423Y-105488518D01*
X158287031Y-105543742D01*
X158272466Y-105570867D01*
X158260589Y-105596183D01*
X158250791Y-105620808D01*
X158242822Y-105646264D01*
X158236433Y-105674076D01*
X158231375Y-105705766D01*
X158227398Y-105742859D01*
X158224251Y-105786878D01*
X158221686Y-105839347D01*
X158219748Y-105892600D01*
X158217901Y-105945289D01*
X158215993Y-105988241D01*
X158213790Y-106023007D01*
X158211059Y-106051137D01*
X158207567Y-106074182D01*
X158203082Y-106093692D01*
X158197370Y-106111218D01*
X158190198Y-106128311D01*
X158181706Y-106145786D01*
X158159081Y-106179578D01*
X158128575Y-106209341D01*
X158092431Y-106233934D01*
X158052889Y-106252212D01*
X158012190Y-106263032D01*
X157972574Y-106265251D01*
X157952826Y-106262558D01*
X157906803Y-106247045D01*
X157864409Y-106221531D01*
X157826526Y-106186965D01*
X157794036Y-106144294D01*
X157767818Y-106094466D01*
X157750456Y-106044802D01*
X157744772Y-106021578D01*
X157741121Y-105999012D01*
X157739148Y-105973603D01*
X157738502Y-105941847D01*
X157738537Y-105926467D01*
X157743711Y-105841638D01*
X157758393Y-105759054D01*
X157783019Y-105676893D01*
X157818024Y-105593337D01*
X157818326Y-105592702D01*
X157845557Y-105535515D01*
X157771358Y-105461469D01*
X157747587Y-105438060D01*
X157726307Y-105417695D01*
X157708880Y-105401630D01*
X157696668Y-105391121D01*
X157691063Y-105387422D01*
X157682028Y-105392138D01*
X157669050Y-105405090D01*
X157653366Y-105424482D01*
X157636212Y-105448519D01*
X157618828Y-105475408D01*
X157602448Y-105503354D01*
X157588312Y-105530561D01*
X157580695Y-105547523D01*
X157553974Y-105623780D01*
X157535020Y-105703486D01*
X157523658Y-105785368D01*
X157519711Y-105868148D01*
X157523004Y-105950552D01*
X157533361Y-106031305D01*
X157550604Y-106109130D01*
X157574558Y-106182753D01*
X157605048Y-106250897D01*
X157641896Y-106312288D01*
X157684927Y-106365649D01*
X157695092Y-106376071D01*
X157744247Y-106417171D01*
X157799614Y-106450008D01*
X157858932Y-106473339D01*
X157884260Y-106479956D01*
X157932672Y-106486860D01*
X157987358Y-106488168D01*
X158045009Y-106484252D01*
X158102319Y-106475486D01*
X158155981Y-106462244D01*
X158202686Y-106444899D01*
X158205311Y-106443682D01*
X158254947Y-106414244D01*
X158299717Y-106375406D01*
X158338766Y-106328316D01*
X158371243Y-106274124D01*
X158396294Y-106213981D01*
X158408904Y-106169178D01*
X158413174Y-106144962D01*
X158417199Y-106111682D01*
X158420821Y-106071561D01*
X158423881Y-106026823D01*
X158426222Y-105979692D01*
X158427687Y-105932391D01*
X158428115Y-105898245D01*
X158431311Y-105822105D01*
X158440289Y-105755100D01*
X158454981Y-105697342D01*
X158475319Y-105648943D01*
X158501237Y-105610015D01*
X158532669Y-105580672D01*
X158569545Y-105561025D01*
X158611800Y-105551186D01*
X158636114Y-105549986D01*
X158672254Y-105555757D01*
X158708145Y-105572125D01*
X158742972Y-105598412D01*
X158775918Y-105633939D01*
X158806166Y-105678030D01*
X158819714Y-105702475D01*
X158836751Y-105737289D01*
X158849606Y-105768692D01*
X158858829Y-105799298D01*
X158864971Y-105831722D01*
X158868584Y-105868580D01*
X158870219Y-105912484D01*
X158870479Y-105943400D01*
X158870341Y-105982263D01*
X158869687Y-106012223D01*
X158868319Y-106035660D01*
X158866043Y-106054956D01*
X158862663Y-106072490D01*
X158858530Y-106088677D01*
X158840404Y-106142686D01*
X158815317Y-106200722D01*
X158784964Y-106259560D01*
X158751038Y-106315978D01*
X158715233Y-106366753D01*
X158706758Y-106377482D01*
X158675227Y-106416453D01*
X158751124Y-106491782D01*
X158775173Y-106515365D01*
X158796691Y-106535928D01*
X158814336Y-106552231D01*
X158826768Y-106563037D01*
X158832645Y-106567106D01*
X158832718Y-106567111D01*
X158832718Y-106701333D01*
X158812759Y-106703975D01*
X158706590Y-106602205D01*
X158666242Y-106563495D01*
X158633288Y-106531735D01*
X158606960Y-106506079D01*
X158586487Y-106485681D01*
X158571102Y-106469693D01*
X158560034Y-106457271D01*
X158552514Y-106447567D01*
X158547772Y-106439736D01*
X158545040Y-106432930D01*
X158543547Y-106426305D01*
X158542944Y-106422198D01*
X158542068Y-106412467D01*
X158543168Y-106403988D01*
X158547401Y-106394761D01*
X158555925Y-106382787D01*
X158569897Y-106366067D01*
X158586249Y-106347393D01*
X158633274Y-106289304D01*
X158674541Y-106228717D01*
X158708919Y-106167608D01*
X158735275Y-106107953D01*
X158750220Y-106061072D01*
X158756165Y-106028616D01*
X158759879Y-105988818D01*
X158761312Y-105945411D01*
X158760416Y-105902130D01*
X158757139Y-105862707D01*
X158753178Y-105838327D01*
X158743180Y-105803702D01*
X158728257Y-105767941D01*
X158709913Y-105733640D01*
X158689649Y-105703393D01*
X158668967Y-105679796D01*
X158654893Y-105668526D01*
X158635588Y-105662384D01*
X158613746Y-105664574D01*
X158593365Y-105674221D01*
X158582572Y-105684352D01*
X158572401Y-105699515D01*
X158563824Y-105718118D01*
X158556668Y-105741248D01*
X158550756Y-105769994D01*
X158545916Y-105805444D01*
X158541972Y-105848686D01*
X158538750Y-105900807D01*
X158536075Y-105962896D01*
X158535568Y-105977267D01*
X158533093Y-106038284D01*
X158530032Y-106089761D01*
X158526124Y-106133444D01*
X158521108Y-106171076D01*
X158514723Y-106204403D01*
X158506707Y-106235170D01*
X158496800Y-106265121D01*
X158489701Y-106283776D01*
X158457451Y-106350594D01*
X158416713Y-106410706D01*
X158368275Y-106463416D01*
X158312925Y-106508026D01*
X158251451Y-106543839D01*
X158184642Y-106570158D01*
X158157333Y-106577694D01*
X158070527Y-106594081D01*
X157987598Y-106600056D01*
X157908855Y-106595767D01*
X157834604Y-106581361D01*
X157765154Y-106556983D01*
X157700811Y-106522781D01*
X157641884Y-106478901D01*
X157588681Y-106425491D01*
X157541508Y-106362697D01*
X157500674Y-106290665D01*
X157485233Y-106257100D01*
X157451921Y-106166767D01*
X157427569Y-106072031D01*
X157412631Y-105975372D01*
X157407563Y-105879271D01*
X157408519Y-105838978D01*
%TO.C,R3*%
D14*
X155094000Y-97553428D02*
X154894000Y-97267714D01*
X154751142Y-97553428D02*
X154751142Y-96953428D01*
X154979714Y-96953428D01*
X155036857Y-96982000D01*
X155065428Y-97010571D01*
X155094000Y-97067714D01*
X155094000Y-97153428D01*
X155065428Y-97210571D01*
X155036857Y-97239142D01*
X154979714Y-97267714D01*
X154751142Y-97267714D01*
X155294000Y-96953428D02*
X155665428Y-96953428D01*
X155465428Y-97182000D01*
X155551142Y-97182000D01*
X155608285Y-97210571D01*
X155636857Y-97239142D01*
X155665428Y-97296285D01*
X155665428Y-97439142D01*
X155636857Y-97496285D01*
X155608285Y-97524857D01*
X155551142Y-97553428D01*
X155379714Y-97553428D01*
X155322571Y-97524857D01*
X155294000Y-97496285D01*
%TO.C,R2*%
X155094000Y-100093428D02*
X154894000Y-99807714D01*
X154751142Y-100093428D02*
X154751142Y-99493428D01*
X154979714Y-99493428D01*
X155036857Y-99522000D01*
X155065428Y-99550571D01*
X155094000Y-99607714D01*
X155094000Y-99693428D01*
X155065428Y-99750571D01*
X155036857Y-99779142D01*
X154979714Y-99807714D01*
X154751142Y-99807714D01*
X155322571Y-99550571D02*
X155351142Y-99522000D01*
X155408285Y-99493428D01*
X155551142Y-99493428D01*
X155608285Y-99522000D01*
X155636857Y-99550571D01*
X155665428Y-99607714D01*
X155665428Y-99664857D01*
X155636857Y-99750571D01*
X155294000Y-100093428D01*
X155665428Y-100093428D01*
%TO.C,R1*%
X155094000Y-102633428D02*
X154894000Y-102347714D01*
X154751142Y-102633428D02*
X154751142Y-102033428D01*
X154979714Y-102033428D01*
X155036857Y-102062000D01*
X155065428Y-102090571D01*
X155094000Y-102147714D01*
X155094000Y-102233428D01*
X155065428Y-102290571D01*
X155036857Y-102319142D01*
X154979714Y-102347714D01*
X154751142Y-102347714D01*
X155665428Y-102633428D02*
X155322571Y-102633428D01*
X155494000Y-102633428D02*
X155494000Y-102033428D01*
X155436857Y-102119142D01*
X155379714Y-102176285D01*
X155322571Y-102204857D01*
%TO.C,D3*%
X160593142Y-97553428D02*
X160593142Y-96953428D01*
X160736000Y-96953428D01*
X160821714Y-96982000D01*
X160878857Y-97039142D01*
X160907428Y-97096285D01*
X160936000Y-97210571D01*
X160936000Y-97296285D01*
X160907428Y-97410571D01*
X160878857Y-97467714D01*
X160821714Y-97524857D01*
X160736000Y-97553428D01*
X160593142Y-97553428D01*
X161136000Y-96953428D02*
X161507428Y-96953428D01*
X161307428Y-97182000D01*
X161393142Y-97182000D01*
X161450285Y-97210571D01*
X161478857Y-97239142D01*
X161507428Y-97296285D01*
X161507428Y-97439142D01*
X161478857Y-97496285D01*
X161450285Y-97524857D01*
X161393142Y-97553428D01*
X161221714Y-97553428D01*
X161164571Y-97524857D01*
X161136000Y-97496285D01*
%TO.C,D2*%
X160593142Y-100093428D02*
X160593142Y-99493428D01*
X160736000Y-99493428D01*
X160821714Y-99522000D01*
X160878857Y-99579142D01*
X160907428Y-99636285D01*
X160936000Y-99750571D01*
X160936000Y-99836285D01*
X160907428Y-99950571D01*
X160878857Y-100007714D01*
X160821714Y-100064857D01*
X160736000Y-100093428D01*
X160593142Y-100093428D01*
X161164571Y-99550571D02*
X161193142Y-99522000D01*
X161250285Y-99493428D01*
X161393142Y-99493428D01*
X161450285Y-99522000D01*
X161478857Y-99550571D01*
X161507428Y-99607714D01*
X161507428Y-99664857D01*
X161478857Y-99750571D01*
X161136000Y-100093428D01*
X161507428Y-100093428D01*
%TO.C,D1*%
X160593142Y-102633428D02*
X160593142Y-102033428D01*
X160736000Y-102033428D01*
X160821714Y-102062000D01*
X160878857Y-102119142D01*
X160907428Y-102176285D01*
X160936000Y-102290571D01*
X160936000Y-102376285D01*
X160907428Y-102490571D01*
X160878857Y-102547714D01*
X160821714Y-102604857D01*
X160736000Y-102633428D01*
X160593142Y-102633428D01*
X161507428Y-102633428D02*
X161164571Y-102633428D01*
X161336000Y-102633428D02*
X161336000Y-102033428D01*
X161278857Y-102119142D01*
X161221714Y-102176285D01*
X161164571Y-102204857D01*
%TO.C,U1*%
X115832428Y-90119142D02*
X116318142Y-90119142D01*
X116375285Y-90090571D01*
X116403857Y-90062000D01*
X116432428Y-90004857D01*
X116432428Y-89890571D01*
X116403857Y-89833428D01*
X116375285Y-89804857D01*
X116318142Y-89776285D01*
X115832428Y-89776285D01*
X116432428Y-89176285D02*
X116432428Y-89519142D01*
X116432428Y-89347714D02*
X115832428Y-89347714D01*
X115918142Y-89404857D01*
X115975285Y-89462000D01*
X116003857Y-89519142D01*
%TO.C,C2*%
X146712000Y-97496285D02*
X146683428Y-97524857D01*
X146597714Y-97553428D01*
X146540571Y-97553428D01*
X146454857Y-97524857D01*
X146397714Y-97467714D01*
X146369142Y-97410571D01*
X146340571Y-97296285D01*
X146340571Y-97210571D01*
X146369142Y-97096285D01*
X146397714Y-97039142D01*
X146454857Y-96982000D01*
X146540571Y-96953428D01*
X146597714Y-96953428D01*
X146683428Y-96982000D01*
X146712000Y-97010571D01*
X146940571Y-97010571D02*
X146969142Y-96982000D01*
X147026285Y-96953428D01*
X147169142Y-96953428D01*
X147226285Y-96982000D01*
X147254857Y-97010571D01*
X147283428Y-97067714D01*
X147283428Y-97124857D01*
X147254857Y-97210571D01*
X146912000Y-97553428D01*
X147283428Y-97553428D01*
%TO.C,J4*%
X161852000Y-113717428D02*
X161852000Y-114146000D01*
X161823428Y-114231714D01*
X161766285Y-114288857D01*
X161680571Y-114317428D01*
X161623428Y-114317428D01*
X162394857Y-113917428D02*
X162394857Y-114317428D01*
X162252000Y-113688857D02*
X162109142Y-114117428D01*
X162480571Y-114117428D01*
%TO.C,C1*%
X103532000Y-119848285D02*
X103503428Y-119876857D01*
X103417714Y-119905428D01*
X103360571Y-119905428D01*
X103274857Y-119876857D01*
X103217714Y-119819714D01*
X103189142Y-119762571D01*
X103160571Y-119648285D01*
X103160571Y-119562571D01*
X103189142Y-119448285D01*
X103217714Y-119391142D01*
X103274857Y-119334000D01*
X103360571Y-119305428D01*
X103417714Y-119305428D01*
X103503428Y-119334000D01*
X103532000Y-119362571D01*
X104103428Y-119905428D02*
X103760571Y-119905428D01*
X103932000Y-119905428D02*
X103932000Y-119305428D01*
X103874857Y-119391142D01*
X103817714Y-119448285D01*
X103760571Y-119476857D01*
%TD*%
M02*
