M48
; DRILL file {KiCad (5.1.9-0-10_14)} date Saturday, February 13, 2021 at 05:17:25 PM
; FORMAT={-:-/ absolute / inch / decimal}
; #@! TF.CreationDate,2021-02-13T17:17:25+01:00
; #@! TF.GenerationSoftware,Kicad,Pcbnew,(5.1.9-0-10_14)
FMAT,2
INCH
T1C0.0315
T2C0.0394
T3C0.0472
T4C0.0866
T5C0.1260
%
G90
G05
T1
X4.665Y-3.38
X4.665Y-3.68
X4.765Y-3.38
X4.765Y-3.68
X4.865Y-3.38
X4.865Y-3.68
X4.965Y-3.38
X4.965Y-3.68
X5.065Y-3.38
X5.065Y-3.68
X5.165Y-3.38
X5.165Y-3.68
X5.265Y-3.38
X5.265Y-3.68
X5.365Y-3.38
X5.365Y-3.68
X5.465Y-3.38
X5.465Y-3.68
X5.565Y-3.38
X5.565Y-3.68
X5.665Y-3.38
X5.665Y-3.68
X5.765Y-3.38
X5.765Y-3.68
X5.865Y-3.38
X5.865Y-3.68
X5.965Y-3.38
X5.965Y-3.68
T2
X4.74Y-3.0
X4.803Y-4.9
X4.84Y-3.0
X4.903Y-4.9
X4.94Y-3.0
X5.04Y-3.0
X5.1Y-4.9
X5.14Y-3.0
X5.2Y-4.9
X5.24Y-3.0
X5.3Y-4.9
X5.34Y-3.0
X5.4Y-4.9
X5.44Y-3.0
X5.5Y-4.9
X5.54Y-3.0
X5.6Y-4.9
X5.64Y-3.0
X5.7Y-4.9
X5.8Y-3.0
X5.8Y-4.9
X5.9Y-3.0
X6.0Y-3.0
X6.0Y-4.9
X6.1Y-3.0
X6.1Y-4.9
X6.2Y-3.0
X6.2Y-4.9
X6.3Y-3.0
X6.3Y-4.9
X6.4Y-3.0
X6.4Y-4.9
X6.43Y-4.2
X6.43Y-4.3
X6.43Y-4.4
X6.5Y-3.0
X6.5Y-4.9
X6.53Y-4.2
X6.53Y-4.3
X6.53Y-4.4
T3
X4.19Y-3.555
X4.19Y-3.73
X4.19Y-3.905
X4.19Y-4.08
X4.19Y-4.255
X4.19Y-4.43
T4
X4.23Y-3.21
X4.23Y-4.63
X6.21Y-3.21
X6.21Y-4.63
T5
X4.55Y-4.9
X4.6Y-3.0
X6.6Y-3.6
X6.6Y-4.7
T0
M30
