%TF.GenerationSoftware,KiCad,Pcbnew,(5.1.9-0-10_14)*%
%TF.CreationDate,2021-02-13T17:17:21+01:00*%
%TF.ProjectId,Arduino Uno ISP Shield,41726475-696e-46f2-9055-6e6f20495350,rev?*%
%TF.SameCoordinates,Original*%
%TF.FileFunction,Copper,L2,Bot*%
%TF.FilePolarity,Positive*%
%FSLAX46Y46*%
G04 Gerber Fmt 4.6, Leading zero omitted, Abs format (unit mm)*
G04 Created by KiCad (PCBNEW (5.1.9-0-10_14)) date 2021-02-13 17:17:21*
%MOMM*%
%LPD*%
G01*
G04 APERTURE LIST*
%TA.AperFunction,ComponentPad*%
%ADD10O,1.600000X1.600000*%
%TD*%
%TA.AperFunction,ComponentPad*%
%ADD11R,1.600000X1.600000*%
%TD*%
%TA.AperFunction,ComponentPad*%
%ADD12C,3.500120*%
%TD*%
%TA.AperFunction,ComponentPad*%
%ADD13O,1.700000X1.700000*%
%TD*%
%TA.AperFunction,ComponentPad*%
%ADD14R,1.700000X1.700000*%
%TD*%
%TA.AperFunction,Conductor*%
%ADD15C,0.250000*%
%TD*%
%TA.AperFunction,Conductor*%
%ADD16C,0.254000*%
%TD*%
%TA.AperFunction,Conductor*%
%ADD17C,0.100000*%
%TD*%
G04 APERTURE END LIST*
D10*
%TO.P,U1,28*%
%TO.N,Net-(U1-Pad28)*%
X118491000Y-85852000D03*
%TO.P,U1,14*%
%TO.N,Net-(U1-Pad14)*%
X151511000Y-93472000D03*
%TO.P,U1,27*%
%TO.N,Net-(U1-Pad27)*%
X121031000Y-85852000D03*
%TO.P,U1,13*%
%TO.N,Net-(U1-Pad13)*%
X148971000Y-93472000D03*
%TO.P,U1,26*%
%TO.N,Net-(U1-Pad26)*%
X123571000Y-85852000D03*
%TO.P,U1,12*%
%TO.N,Net-(U1-Pad12)*%
X146431000Y-93472000D03*
%TO.P,U1,25*%
%TO.N,Net-(U1-Pad25)*%
X126111000Y-85852000D03*
%TO.P,U1,11*%
%TO.N,Net-(U1-Pad11)*%
X143891000Y-93472000D03*
%TO.P,U1,24*%
%TO.N,Net-(U1-Pad24)*%
X128651000Y-85852000D03*
%TO.P,U1,10*%
%TO.N,Net-(U1-Pad10)*%
X141351000Y-93472000D03*
%TO.P,U1,23*%
%TO.N,Net-(U1-Pad23)*%
X131191000Y-85852000D03*
%TO.P,U1,9*%
%TO.N,Net-(U1-Pad9)*%
X138811000Y-93472000D03*
%TO.P,U1,22*%
%TO.N,GND*%
X133731000Y-85852000D03*
%TO.P,U1,8*%
X136271000Y-93472000D03*
%TO.P,U1,21*%
%TO.N,Net-(U1-Pad21)*%
X136271000Y-85852000D03*
%TO.P,U1,7*%
%TO.N,ICSP_5V*%
X133731000Y-93472000D03*
%TO.P,U1,20*%
X138811000Y-85852000D03*
%TO.P,U1,6*%
%TO.N,Net-(U1-Pad6)*%
X131191000Y-93472000D03*
%TO.P,U1,19*%
%TO.N,ICSP_SCK*%
X141351000Y-85852000D03*
%TO.P,U1,5*%
%TO.N,Net-(U1-Pad5)*%
X128651000Y-93472000D03*
%TO.P,U1,18*%
%TO.N,ICSP_MISO*%
X143891000Y-85852000D03*
%TO.P,U1,4*%
%TO.N,Net-(U1-Pad4)*%
X126111000Y-93472000D03*
%TO.P,U1,17*%
%TO.N,ICSP_MOSI*%
X146431000Y-85852000D03*
%TO.P,U1,3*%
%TO.N,Net-(U1-Pad3)*%
X123571000Y-93472000D03*
%TO.P,U1,16*%
%TO.N,Net-(U1-Pad16)*%
X148971000Y-85852000D03*
%TO.P,U1,2*%
%TO.N,Net-(U1-Pad2)*%
X121031000Y-93472000D03*
%TO.P,U1,15*%
%TO.N,Net-(U1-Pad15)*%
X151511000Y-85852000D03*
D11*
%TO.P,U1,1*%
%TO.N,ICSP_RST*%
X118491000Y-93472000D03*
%TD*%
D12*
%TO.P,J10,1*%
%TO.N,GND*%
X106426000Y-90297000D03*
%TD*%
%TO.P,J9,1*%
%TO.N,ICSP_5V*%
X106426000Y-94742000D03*
%TD*%
%TO.P,J8,1*%
%TO.N,ICSP_RST*%
X106426000Y-99187000D03*
%TD*%
%TO.P,J7,1*%
%TO.N,ICSP_MOSI*%
X106426000Y-103632000D03*
%TD*%
%TO.P,J6,1*%
%TO.N,ICSP_MISO*%
X106426000Y-108077000D03*
%TD*%
%TO.P,J5,1*%
%TO.N,ICSP_SCK*%
X106426000Y-112522000D03*
%TD*%
D13*
%TO.P,J4,6*%
%TO.N,GND*%
X165862000Y-111760000D03*
%TO.P,J4,5*%
%TO.N,ICSP_RST*%
X163322000Y-111760000D03*
%TO.P,J4,4*%
%TO.N,ICSP_MOSI*%
X165862000Y-109220000D03*
%TO.P,J4,3*%
%TO.N,ICSP_SCK*%
X163322000Y-109220000D03*
%TO.P,J4,2*%
%TO.N,ICSP_5V*%
X165862000Y-106680000D03*
D14*
%TO.P,J4,1*%
%TO.N,ICSP_MISO*%
X163322000Y-106680000D03*
%TD*%
D13*
%TO.P,J3,2*%
%TO.N,Net-(J1-Pad3)*%
X124536200Y-124460000D03*
D14*
%TO.P,J3,1*%
%TO.N,Net-(C1-Pad1)*%
X121996200Y-124460000D03*
%TD*%
D13*
%TO.P,J1,8*%
%TO.N,Net-(J1-Pad8)*%
X147320000Y-124460000D03*
%TO.P,J1,7*%
%TO.N,GND*%
X144780000Y-124460000D03*
%TO.P,J1,6*%
X142240000Y-124460000D03*
%TO.P,J1,5*%
%TO.N,ICSP_5V*%
X139700000Y-124460000D03*
%TO.P,J1,4*%
%TO.N,Net-(J1-Pad4)*%
X137160000Y-124460000D03*
%TO.P,J1,3*%
%TO.N,Net-(J1-Pad3)*%
X134620000Y-124460000D03*
%TO.P,J1,2*%
%TO.N,Net-(J1-Pad2)*%
X132080000Y-124460000D03*
D14*
%TO.P,J1,1*%
%TO.N,Net-(J1-Pad1)*%
X129540000Y-124460000D03*
%TD*%
%TO.P,J2,1*%
%TO.N,Net-(J2-Pad1)*%
X152400000Y-124460000D03*
D13*
%TO.P,J2,2*%
%TO.N,Net-(J2-Pad2)*%
X154940000Y-124460000D03*
%TO.P,J2,3*%
%TO.N,Net-(J2-Pad3)*%
X157480000Y-124460000D03*
%TO.P,J2,4*%
%TO.N,Net-(J2-Pad4)*%
X160020000Y-124460000D03*
%TO.P,J2,5*%
%TO.N,Net-(J2-Pad5)*%
X162560000Y-124460000D03*
%TO.P,J2,6*%
%TO.N,Net-(J2-Pad6)*%
X165100000Y-124460000D03*
%TD*%
D14*
%TO.P,J34,1*%
%TO.N,LED_ERR*%
X143256000Y-76200000D03*
D13*
%TO.P,J34,2*%
%TO.N,LED_BEAT*%
X140716000Y-76200000D03*
%TO.P,J34,3*%
%TO.N,ICSP_RST*%
X138176000Y-76200000D03*
%TO.P,J34,4*%
%TO.N,ICSP_MOSI*%
X135636000Y-76200000D03*
%TO.P,J34,5*%
%TO.N,ICSP_MISO*%
X133096000Y-76200000D03*
%TO.P,J34,6*%
%TO.N,ICSP_SCK*%
X130556000Y-76200000D03*
%TO.P,J34,7*%
%TO.N,GND*%
X128016000Y-76200000D03*
%TO.P,J34,8*%
%TO.N,Net-(J34-Pad8)*%
X125476000Y-76200000D03*
%TO.P,J34,9*%
%TO.N,Net-(J34-Pad9)*%
X122936000Y-76200000D03*
%TO.P,J34,10*%
%TO.N,Net-(J34-Pad10)*%
X120396000Y-76200000D03*
%TD*%
D14*
%TO.P,J35,1*%
%TO.N,Net-(J35-Pad1)*%
X165100000Y-76200000D03*
D13*
%TO.P,J35,2*%
%TO.N,Net-(J35-Pad2)*%
X162560000Y-76200000D03*
%TO.P,J35,3*%
%TO.N,Net-(J35-Pad3)*%
X160020000Y-76200000D03*
%TO.P,J35,4*%
%TO.N,Net-(J35-Pad4)*%
X157480000Y-76200000D03*
%TO.P,J35,5*%
%TO.N,Net-(J35-Pad5)*%
X154940000Y-76200000D03*
%TO.P,J35,6*%
%TO.N,Net-(J35-Pad6)*%
X152400000Y-76200000D03*
%TO.P,J35,7*%
%TO.N,Net-(J35-Pad7)*%
X149860000Y-76200000D03*
%TO.P,J35,8*%
%TO.N,LED_PROG*%
X147320000Y-76200000D03*
%TD*%
D15*
%TO.N,ICSP_RST*%
X106426000Y-99187000D02*
X108839000Y-96774000D01*
X108839000Y-96774000D02*
X108839000Y-94869000D01*
X108839000Y-94869000D02*
X110236000Y-93472000D01*
X113157000Y-93472000D02*
X118491000Y-93472000D01*
X110236000Y-93472000D02*
X113157000Y-93472000D01*
X163322000Y-111760000D02*
X164497001Y-110584999D01*
X167836009Y-105604599D02*
X167064400Y-104832990D01*
X167836009Y-108984993D02*
X167836009Y-105604599D01*
X166426001Y-110395001D02*
X167836009Y-108984993D01*
X164686999Y-110395001D02*
X166426001Y-110395001D01*
X163322000Y-111760000D02*
X164686999Y-110395001D01*
X112706990Y-104832990D02*
X109912990Y-104832990D01*
X167064400Y-104832990D02*
X112706990Y-104832990D01*
X112706990Y-104832990D02*
X111182990Y-104832990D01*
X109912990Y-104832990D02*
X109093000Y-104013000D01*
X109093000Y-104013000D02*
X109093000Y-101854000D01*
X109093000Y-101854000D02*
X108521500Y-101282500D01*
X108521500Y-101282500D02*
X106426000Y-99187000D01*
X108712000Y-101473000D02*
X108521500Y-101282500D01*
X138176000Y-78359000D02*
X138176000Y-77216000D01*
X138176000Y-77216000D02*
X138176000Y-76200000D01*
X119616001Y-92346999D02*
X119616001Y-81932999D01*
X135693990Y-80841010D02*
X138176000Y-78359000D01*
X120707990Y-80841010D02*
X135693990Y-80841010D01*
X119616001Y-81932999D02*
X120707990Y-80841010D01*
X118491000Y-93472000D02*
X119616001Y-92346999D01*
%TO.N,ICSP_MOSI*%
X104350939Y-89300970D02*
X113260909Y-80391000D01*
X104350939Y-101556939D02*
X104350939Y-89300970D01*
X106426000Y-103632000D02*
X104350939Y-101556939D01*
X113260909Y-80391000D02*
X133350000Y-80391000D01*
X135636000Y-78105000D02*
X135636000Y-76200000D01*
X133350000Y-80391000D02*
X135636000Y-78105000D01*
X165862000Y-109220000D02*
X167386000Y-107696000D01*
X167386000Y-107696000D02*
X167386000Y-105791000D01*
X167386000Y-105791000D02*
X166878000Y-105283000D01*
X108077000Y-105283000D02*
X106426000Y-103632000D01*
X166878000Y-105283000D02*
X108077000Y-105283000D01*
%TO.N,ICSP_SCK*%
X106426000Y-112522000D02*
X103450920Y-109546920D01*
X103450920Y-109546920D02*
X103450921Y-88928168D01*
X103450921Y-88928168D02*
X112888109Y-79490980D01*
X112888109Y-79490980D02*
X129170020Y-79490980D01*
X130556000Y-78105000D02*
X130556000Y-76200000D01*
X129170020Y-79490980D02*
X130556000Y-78105000D01*
X109843980Y-106183020D02*
X109029500Y-106997500D01*
X160285020Y-106183020D02*
X109843980Y-106183020D01*
X161036000Y-106934000D02*
X160285020Y-106183020D01*
X161036000Y-108331000D02*
X161036000Y-106934000D01*
X109029500Y-109918500D02*
X106426000Y-112522000D01*
X161925000Y-109220000D02*
X161036000Y-108331000D01*
X109029500Y-106997500D02*
X109029500Y-109918500D01*
X163322000Y-109220000D02*
X161925000Y-109220000D01*
%TO.N,ICSP_MISO*%
X106426000Y-108077000D02*
X103900929Y-105551929D01*
X103900930Y-89114569D02*
X113074509Y-79940990D01*
X103900929Y-105551929D02*
X103900930Y-89114569D01*
X113074509Y-79940990D02*
X131260010Y-79940990D01*
X133096000Y-78105000D02*
X133096000Y-76200000D01*
X131260010Y-79940990D02*
X133096000Y-78105000D01*
X107759500Y-106743500D02*
X106426000Y-108077000D01*
X162222000Y-106680000D02*
X161275010Y-105733010D01*
X108769990Y-105733010D02*
X107759500Y-106743500D01*
X161275010Y-105733010D02*
X108769990Y-105733010D01*
X163322000Y-106680000D02*
X162222000Y-106680000D01*
%TD*%
D16*
%TO.N,GND*%
X115415271Y-74463962D02*
X115103962Y-74775271D01*
X114859369Y-75141331D01*
X114690890Y-75548075D01*
X114605000Y-75979872D01*
X114605000Y-76420128D01*
X114690890Y-76851925D01*
X114859369Y-77258669D01*
X115103962Y-77624729D01*
X115415271Y-77936038D01*
X115781331Y-78180631D01*
X116188075Y-78349110D01*
X116619872Y-78435000D01*
X117060128Y-78435000D01*
X117491925Y-78349110D01*
X117898669Y-78180631D01*
X118264729Y-77936038D01*
X118576038Y-77624729D01*
X118820631Y-77258669D01*
X118989110Y-76851925D01*
X119011681Y-76738451D01*
X119080010Y-76903411D01*
X119242525Y-77146632D01*
X119449368Y-77353475D01*
X119692589Y-77515990D01*
X119962842Y-77627932D01*
X120249740Y-77685000D01*
X120542260Y-77685000D01*
X120829158Y-77627932D01*
X121099411Y-77515990D01*
X121342632Y-77353475D01*
X121549475Y-77146632D01*
X121666000Y-76972240D01*
X121782525Y-77146632D01*
X121989368Y-77353475D01*
X122232589Y-77515990D01*
X122502842Y-77627932D01*
X122789740Y-77685000D01*
X123082260Y-77685000D01*
X123369158Y-77627932D01*
X123639411Y-77515990D01*
X123882632Y-77353475D01*
X124089475Y-77146632D01*
X124206000Y-76972240D01*
X124322525Y-77146632D01*
X124529368Y-77353475D01*
X124772589Y-77515990D01*
X125042842Y-77627932D01*
X125329740Y-77685000D01*
X125622260Y-77685000D01*
X125909158Y-77627932D01*
X126179411Y-77515990D01*
X126422632Y-77353475D01*
X126629475Y-77146632D01*
X126751195Y-76964466D01*
X126820822Y-77081355D01*
X127015731Y-77297588D01*
X127249080Y-77471641D01*
X127511901Y-77596825D01*
X127659110Y-77641476D01*
X127889000Y-77520155D01*
X127889000Y-76327000D01*
X127869000Y-76327000D01*
X127869000Y-76073000D01*
X127889000Y-76073000D01*
X127889000Y-74879845D01*
X127659110Y-74758524D01*
X127511901Y-74803175D01*
X127249080Y-74928359D01*
X127015731Y-75102412D01*
X126820822Y-75318645D01*
X126751195Y-75435534D01*
X126629475Y-75253368D01*
X126422632Y-75046525D01*
X126179411Y-74884010D01*
X125909158Y-74772068D01*
X125622260Y-74715000D01*
X125329740Y-74715000D01*
X125042842Y-74772068D01*
X124772589Y-74884010D01*
X124529368Y-75046525D01*
X124322525Y-75253368D01*
X124206000Y-75427760D01*
X124089475Y-75253368D01*
X123882632Y-75046525D01*
X123639411Y-74884010D01*
X123369158Y-74772068D01*
X123082260Y-74715000D01*
X122789740Y-74715000D01*
X122502842Y-74772068D01*
X122232589Y-74884010D01*
X121989368Y-75046525D01*
X121782525Y-75253368D01*
X121666000Y-75427760D01*
X121549475Y-75253368D01*
X121342632Y-75046525D01*
X121099411Y-74884010D01*
X120829158Y-74772068D01*
X120542260Y-74715000D01*
X120249740Y-74715000D01*
X119962842Y-74772068D01*
X119692589Y-74884010D01*
X119449368Y-75046525D01*
X119242525Y-75253368D01*
X119080010Y-75496589D01*
X119011681Y-75661549D01*
X118989110Y-75548075D01*
X118820631Y-75141331D01*
X118576038Y-74775271D01*
X118264729Y-74463962D01*
X118049274Y-74320000D01*
X165842620Y-74320000D01*
X166980001Y-75457382D01*
X166980000Y-86581591D01*
X166976808Y-86614000D01*
X166980000Y-86646409D01*
X166980000Y-86646418D01*
X166989550Y-86743382D01*
X167027290Y-86867792D01*
X167088575Y-86982450D01*
X167136689Y-87041076D01*
X167171052Y-87082948D01*
X167196236Y-87103616D01*
X169520001Y-89427382D01*
X169520001Y-90230727D01*
X169376038Y-90015271D01*
X169064729Y-89703962D01*
X168698669Y-89459369D01*
X168291925Y-89290890D01*
X167860128Y-89205000D01*
X167419872Y-89205000D01*
X166988075Y-89290890D01*
X166581331Y-89459369D01*
X166215271Y-89703962D01*
X165903962Y-90015271D01*
X165659369Y-90381331D01*
X165490890Y-90788075D01*
X165405000Y-91219872D01*
X165405000Y-91660128D01*
X165490890Y-92091925D01*
X165659369Y-92498669D01*
X165903962Y-92864729D01*
X166215271Y-93176038D01*
X166581331Y-93420631D01*
X166988075Y-93589110D01*
X167419872Y-93675000D01*
X167860128Y-93675000D01*
X168291925Y-93589110D01*
X168698669Y-93420631D01*
X169064729Y-93176038D01*
X169376038Y-92864729D01*
X169520001Y-92649273D01*
X169520000Y-96552418D01*
X169520001Y-96552428D01*
X169520000Y-109252418D01*
X169520001Y-109252428D01*
X169520000Y-118170726D01*
X169376038Y-117955271D01*
X169064729Y-117643962D01*
X168698669Y-117399369D01*
X168291925Y-117230890D01*
X167860128Y-117145000D01*
X167419872Y-117145000D01*
X166988075Y-117230890D01*
X166581331Y-117399369D01*
X166215271Y-117643962D01*
X165903962Y-117955271D01*
X165659369Y-118321331D01*
X165490890Y-118728075D01*
X165405000Y-119159872D01*
X165405000Y-119600128D01*
X165490890Y-120031925D01*
X165659369Y-120438669D01*
X165903962Y-120804729D01*
X166215271Y-121116038D01*
X166581331Y-121360631D01*
X166988075Y-121529110D01*
X167419872Y-121615000D01*
X167860128Y-121615000D01*
X168291925Y-121529110D01*
X168698669Y-121360631D01*
X169064729Y-121116038D01*
X169376038Y-120804729D01*
X169520000Y-120589274D01*
X169520000Y-121646619D01*
X167196232Y-123970388D01*
X167171053Y-123991052D01*
X167150389Y-124016231D01*
X167150386Y-124016234D01*
X167088575Y-124091550D01*
X167027290Y-124206208D01*
X166989551Y-124330618D01*
X166976808Y-124460000D01*
X166980001Y-124492419D01*
X166980000Y-126340000D01*
X116779274Y-126340000D01*
X116994729Y-126196038D01*
X117306038Y-125884729D01*
X117550631Y-125518669D01*
X117719110Y-125111925D01*
X117805000Y-124680128D01*
X117805000Y-124239872D01*
X117719110Y-123808075D01*
X117637065Y-123610000D01*
X120508128Y-123610000D01*
X120508128Y-125310000D01*
X120520388Y-125434482D01*
X120556698Y-125554180D01*
X120615663Y-125664494D01*
X120695015Y-125761185D01*
X120791706Y-125840537D01*
X120902020Y-125899502D01*
X121021718Y-125935812D01*
X121146200Y-125948072D01*
X122846200Y-125948072D01*
X122970682Y-125935812D01*
X123090380Y-125899502D01*
X123200694Y-125840537D01*
X123297385Y-125761185D01*
X123376737Y-125664494D01*
X123435702Y-125554180D01*
X123457713Y-125481620D01*
X123589568Y-125613475D01*
X123832789Y-125775990D01*
X124103042Y-125887932D01*
X124389940Y-125945000D01*
X124682460Y-125945000D01*
X124969358Y-125887932D01*
X125239611Y-125775990D01*
X125482832Y-125613475D01*
X125689675Y-125406632D01*
X125852190Y-125163411D01*
X125964132Y-124893158D01*
X126021200Y-124606260D01*
X126021200Y-124313740D01*
X125964132Y-124026842D01*
X125852190Y-123756589D01*
X125754243Y-123610000D01*
X128051928Y-123610000D01*
X128051928Y-125310000D01*
X128064188Y-125434482D01*
X128100498Y-125554180D01*
X128159463Y-125664494D01*
X128238815Y-125761185D01*
X128335506Y-125840537D01*
X128445820Y-125899502D01*
X128565518Y-125935812D01*
X128690000Y-125948072D01*
X130390000Y-125948072D01*
X130514482Y-125935812D01*
X130634180Y-125899502D01*
X130744494Y-125840537D01*
X130841185Y-125761185D01*
X130920537Y-125664494D01*
X130979502Y-125554180D01*
X131001513Y-125481620D01*
X131133368Y-125613475D01*
X131376589Y-125775990D01*
X131646842Y-125887932D01*
X131933740Y-125945000D01*
X132226260Y-125945000D01*
X132513158Y-125887932D01*
X132783411Y-125775990D01*
X133026632Y-125613475D01*
X133233475Y-125406632D01*
X133350000Y-125232240D01*
X133466525Y-125406632D01*
X133673368Y-125613475D01*
X133916589Y-125775990D01*
X134186842Y-125887932D01*
X134473740Y-125945000D01*
X134766260Y-125945000D01*
X135053158Y-125887932D01*
X135323411Y-125775990D01*
X135566632Y-125613475D01*
X135773475Y-125406632D01*
X135890000Y-125232240D01*
X136006525Y-125406632D01*
X136213368Y-125613475D01*
X136456589Y-125775990D01*
X136726842Y-125887932D01*
X137013740Y-125945000D01*
X137306260Y-125945000D01*
X137593158Y-125887932D01*
X137863411Y-125775990D01*
X138106632Y-125613475D01*
X138313475Y-125406632D01*
X138430000Y-125232240D01*
X138546525Y-125406632D01*
X138753368Y-125613475D01*
X138996589Y-125775990D01*
X139266842Y-125887932D01*
X139553740Y-125945000D01*
X139846260Y-125945000D01*
X140133158Y-125887932D01*
X140403411Y-125775990D01*
X140646632Y-125613475D01*
X140853475Y-125406632D01*
X140975195Y-125224466D01*
X141044822Y-125341355D01*
X141239731Y-125557588D01*
X141473080Y-125731641D01*
X141735901Y-125856825D01*
X141883110Y-125901476D01*
X142113000Y-125780155D01*
X142113000Y-124587000D01*
X142367000Y-124587000D01*
X142367000Y-125780155D01*
X142596890Y-125901476D01*
X142744099Y-125856825D01*
X143006920Y-125731641D01*
X143240269Y-125557588D01*
X143435178Y-125341355D01*
X143510000Y-125215745D01*
X143584822Y-125341355D01*
X143779731Y-125557588D01*
X144013080Y-125731641D01*
X144275901Y-125856825D01*
X144423110Y-125901476D01*
X144653000Y-125780155D01*
X144653000Y-124587000D01*
X142367000Y-124587000D01*
X142113000Y-124587000D01*
X142093000Y-124587000D01*
X142093000Y-124333000D01*
X142113000Y-124333000D01*
X142113000Y-123139845D01*
X142367000Y-123139845D01*
X142367000Y-124333000D01*
X144653000Y-124333000D01*
X144653000Y-123139845D01*
X144907000Y-123139845D01*
X144907000Y-124333000D01*
X144927000Y-124333000D01*
X144927000Y-124587000D01*
X144907000Y-124587000D01*
X144907000Y-125780155D01*
X145136890Y-125901476D01*
X145284099Y-125856825D01*
X145546920Y-125731641D01*
X145780269Y-125557588D01*
X145975178Y-125341355D01*
X146044805Y-125224466D01*
X146166525Y-125406632D01*
X146373368Y-125613475D01*
X146616589Y-125775990D01*
X146886842Y-125887932D01*
X147173740Y-125945000D01*
X147466260Y-125945000D01*
X147753158Y-125887932D01*
X148023411Y-125775990D01*
X148266632Y-125613475D01*
X148473475Y-125406632D01*
X148635990Y-125163411D01*
X148747932Y-124893158D01*
X148805000Y-124606260D01*
X148805000Y-124313740D01*
X148747932Y-124026842D01*
X148635990Y-123756589D01*
X148538043Y-123610000D01*
X150911928Y-123610000D01*
X150911928Y-125310000D01*
X150924188Y-125434482D01*
X150960498Y-125554180D01*
X151019463Y-125664494D01*
X151098815Y-125761185D01*
X151195506Y-125840537D01*
X151305820Y-125899502D01*
X151425518Y-125935812D01*
X151550000Y-125948072D01*
X153250000Y-125948072D01*
X153374482Y-125935812D01*
X153494180Y-125899502D01*
X153604494Y-125840537D01*
X153701185Y-125761185D01*
X153780537Y-125664494D01*
X153839502Y-125554180D01*
X153861513Y-125481620D01*
X153993368Y-125613475D01*
X154236589Y-125775990D01*
X154506842Y-125887932D01*
X154793740Y-125945000D01*
X155086260Y-125945000D01*
X155373158Y-125887932D01*
X155643411Y-125775990D01*
X155886632Y-125613475D01*
X156093475Y-125406632D01*
X156210000Y-125232240D01*
X156326525Y-125406632D01*
X156533368Y-125613475D01*
X156776589Y-125775990D01*
X157046842Y-125887932D01*
X157333740Y-125945000D01*
X157626260Y-125945000D01*
X157913158Y-125887932D01*
X158183411Y-125775990D01*
X158426632Y-125613475D01*
X158633475Y-125406632D01*
X158750000Y-125232240D01*
X158866525Y-125406632D01*
X159073368Y-125613475D01*
X159316589Y-125775990D01*
X159586842Y-125887932D01*
X159873740Y-125945000D01*
X160166260Y-125945000D01*
X160453158Y-125887932D01*
X160723411Y-125775990D01*
X160966632Y-125613475D01*
X161173475Y-125406632D01*
X161290000Y-125232240D01*
X161406525Y-125406632D01*
X161613368Y-125613475D01*
X161856589Y-125775990D01*
X162126842Y-125887932D01*
X162413740Y-125945000D01*
X162706260Y-125945000D01*
X162993158Y-125887932D01*
X163263411Y-125775990D01*
X163506632Y-125613475D01*
X163713475Y-125406632D01*
X163830000Y-125232240D01*
X163946525Y-125406632D01*
X164153368Y-125613475D01*
X164396589Y-125775990D01*
X164666842Y-125887932D01*
X164953740Y-125945000D01*
X165246260Y-125945000D01*
X165533158Y-125887932D01*
X165803411Y-125775990D01*
X166046632Y-125613475D01*
X166253475Y-125406632D01*
X166415990Y-125163411D01*
X166527932Y-124893158D01*
X166585000Y-124606260D01*
X166585000Y-124313740D01*
X166527932Y-124026842D01*
X166415990Y-123756589D01*
X166253475Y-123513368D01*
X166046632Y-123306525D01*
X165803411Y-123144010D01*
X165533158Y-123032068D01*
X165246260Y-122975000D01*
X164953740Y-122975000D01*
X164666842Y-123032068D01*
X164396589Y-123144010D01*
X164153368Y-123306525D01*
X163946525Y-123513368D01*
X163830000Y-123687760D01*
X163713475Y-123513368D01*
X163506632Y-123306525D01*
X163263411Y-123144010D01*
X162993158Y-123032068D01*
X162706260Y-122975000D01*
X162413740Y-122975000D01*
X162126842Y-123032068D01*
X161856589Y-123144010D01*
X161613368Y-123306525D01*
X161406525Y-123513368D01*
X161290000Y-123687760D01*
X161173475Y-123513368D01*
X160966632Y-123306525D01*
X160723411Y-123144010D01*
X160453158Y-123032068D01*
X160166260Y-122975000D01*
X159873740Y-122975000D01*
X159586842Y-123032068D01*
X159316589Y-123144010D01*
X159073368Y-123306525D01*
X158866525Y-123513368D01*
X158750000Y-123687760D01*
X158633475Y-123513368D01*
X158426632Y-123306525D01*
X158183411Y-123144010D01*
X157913158Y-123032068D01*
X157626260Y-122975000D01*
X157333740Y-122975000D01*
X157046842Y-123032068D01*
X156776589Y-123144010D01*
X156533368Y-123306525D01*
X156326525Y-123513368D01*
X156210000Y-123687760D01*
X156093475Y-123513368D01*
X155886632Y-123306525D01*
X155643411Y-123144010D01*
X155373158Y-123032068D01*
X155086260Y-122975000D01*
X154793740Y-122975000D01*
X154506842Y-123032068D01*
X154236589Y-123144010D01*
X153993368Y-123306525D01*
X153861513Y-123438380D01*
X153839502Y-123365820D01*
X153780537Y-123255506D01*
X153701185Y-123158815D01*
X153604494Y-123079463D01*
X153494180Y-123020498D01*
X153374482Y-122984188D01*
X153250000Y-122971928D01*
X151550000Y-122971928D01*
X151425518Y-122984188D01*
X151305820Y-123020498D01*
X151195506Y-123079463D01*
X151098815Y-123158815D01*
X151019463Y-123255506D01*
X150960498Y-123365820D01*
X150924188Y-123485518D01*
X150911928Y-123610000D01*
X148538043Y-123610000D01*
X148473475Y-123513368D01*
X148266632Y-123306525D01*
X148023411Y-123144010D01*
X147753158Y-123032068D01*
X147466260Y-122975000D01*
X147173740Y-122975000D01*
X146886842Y-123032068D01*
X146616589Y-123144010D01*
X146373368Y-123306525D01*
X146166525Y-123513368D01*
X146044805Y-123695534D01*
X145975178Y-123578645D01*
X145780269Y-123362412D01*
X145546920Y-123188359D01*
X145284099Y-123063175D01*
X145136890Y-123018524D01*
X144907000Y-123139845D01*
X144653000Y-123139845D01*
X144423110Y-123018524D01*
X144275901Y-123063175D01*
X144013080Y-123188359D01*
X143779731Y-123362412D01*
X143584822Y-123578645D01*
X143510000Y-123704255D01*
X143435178Y-123578645D01*
X143240269Y-123362412D01*
X143006920Y-123188359D01*
X142744099Y-123063175D01*
X142596890Y-123018524D01*
X142367000Y-123139845D01*
X142113000Y-123139845D01*
X141883110Y-123018524D01*
X141735901Y-123063175D01*
X141473080Y-123188359D01*
X141239731Y-123362412D01*
X141044822Y-123578645D01*
X140975195Y-123695534D01*
X140853475Y-123513368D01*
X140646632Y-123306525D01*
X140403411Y-123144010D01*
X140133158Y-123032068D01*
X139846260Y-122975000D01*
X139553740Y-122975000D01*
X139266842Y-123032068D01*
X138996589Y-123144010D01*
X138753368Y-123306525D01*
X138546525Y-123513368D01*
X138430000Y-123687760D01*
X138313475Y-123513368D01*
X138106632Y-123306525D01*
X137863411Y-123144010D01*
X137593158Y-123032068D01*
X137306260Y-122975000D01*
X137013740Y-122975000D01*
X136726842Y-123032068D01*
X136456589Y-123144010D01*
X136213368Y-123306525D01*
X136006525Y-123513368D01*
X135890000Y-123687760D01*
X135773475Y-123513368D01*
X135566632Y-123306525D01*
X135323411Y-123144010D01*
X135053158Y-123032068D01*
X134766260Y-122975000D01*
X134473740Y-122975000D01*
X134186842Y-123032068D01*
X133916589Y-123144010D01*
X133673368Y-123306525D01*
X133466525Y-123513368D01*
X133350000Y-123687760D01*
X133233475Y-123513368D01*
X133026632Y-123306525D01*
X132783411Y-123144010D01*
X132513158Y-123032068D01*
X132226260Y-122975000D01*
X131933740Y-122975000D01*
X131646842Y-123032068D01*
X131376589Y-123144010D01*
X131133368Y-123306525D01*
X131001513Y-123438380D01*
X130979502Y-123365820D01*
X130920537Y-123255506D01*
X130841185Y-123158815D01*
X130744494Y-123079463D01*
X130634180Y-123020498D01*
X130514482Y-122984188D01*
X130390000Y-122971928D01*
X128690000Y-122971928D01*
X128565518Y-122984188D01*
X128445820Y-123020498D01*
X128335506Y-123079463D01*
X128238815Y-123158815D01*
X128159463Y-123255506D01*
X128100498Y-123365820D01*
X128064188Y-123485518D01*
X128051928Y-123610000D01*
X125754243Y-123610000D01*
X125689675Y-123513368D01*
X125482832Y-123306525D01*
X125239611Y-123144010D01*
X124969358Y-123032068D01*
X124682460Y-122975000D01*
X124389940Y-122975000D01*
X124103042Y-123032068D01*
X123832789Y-123144010D01*
X123589568Y-123306525D01*
X123457713Y-123438380D01*
X123435702Y-123365820D01*
X123376737Y-123255506D01*
X123297385Y-123158815D01*
X123200694Y-123079463D01*
X123090380Y-123020498D01*
X122970682Y-122984188D01*
X122846200Y-122971928D01*
X121146200Y-122971928D01*
X121021718Y-122984188D01*
X120902020Y-123020498D01*
X120791706Y-123079463D01*
X120695015Y-123158815D01*
X120615663Y-123255506D01*
X120556698Y-123365820D01*
X120520388Y-123485518D01*
X120508128Y-123610000D01*
X117637065Y-123610000D01*
X117550631Y-123401331D01*
X117306038Y-123035271D01*
X116994729Y-122723962D01*
X116628669Y-122479369D01*
X116221925Y-122310890D01*
X115790128Y-122225000D01*
X115349872Y-122225000D01*
X114918075Y-122310890D01*
X114511331Y-122479369D01*
X114145271Y-122723962D01*
X113833962Y-123035271D01*
X113589369Y-123401331D01*
X113420890Y-123808075D01*
X113335000Y-124239872D01*
X113335000Y-124680128D01*
X113420890Y-125111925D01*
X113589369Y-125518669D01*
X113833962Y-125884729D01*
X114145271Y-126196038D01*
X114360726Y-126340000D01*
X102260000Y-126340000D01*
X102260000Y-117431117D01*
X105707000Y-117431117D01*
X105707000Y-117772883D01*
X105773675Y-118108081D01*
X105904463Y-118423831D01*
X106094337Y-118707998D01*
X106336002Y-118949663D01*
X106620169Y-119139537D01*
X106935919Y-119270325D01*
X107271117Y-119337000D01*
X107612883Y-119337000D01*
X107948081Y-119270325D01*
X108263831Y-119139537D01*
X108547998Y-118949663D01*
X108789663Y-118707998D01*
X108979537Y-118423831D01*
X109110325Y-118108081D01*
X109177000Y-117772883D01*
X109177000Y-117431117D01*
X155999000Y-117431117D01*
X155999000Y-117772883D01*
X156065675Y-118108081D01*
X156196463Y-118423831D01*
X156386337Y-118707998D01*
X156628002Y-118949663D01*
X156912169Y-119139537D01*
X157227919Y-119270325D01*
X157563117Y-119337000D01*
X157904883Y-119337000D01*
X158240081Y-119270325D01*
X158555831Y-119139537D01*
X158839998Y-118949663D01*
X159081663Y-118707998D01*
X159271537Y-118423831D01*
X159402325Y-118108081D01*
X159469000Y-117772883D01*
X159469000Y-117431117D01*
X159402325Y-117095919D01*
X159271537Y-116780169D01*
X159081663Y-116496002D01*
X158839998Y-116254337D01*
X158555831Y-116064463D01*
X158240081Y-115933675D01*
X157904883Y-115867000D01*
X157563117Y-115867000D01*
X157227919Y-115933675D01*
X156912169Y-116064463D01*
X156628002Y-116254337D01*
X156386337Y-116496002D01*
X156196463Y-116780169D01*
X156065675Y-117095919D01*
X155999000Y-117431117D01*
X109177000Y-117431117D01*
X109110325Y-117095919D01*
X108979537Y-116780169D01*
X108789663Y-116496002D01*
X108547998Y-116254337D01*
X108263831Y-116064463D01*
X107948081Y-115933675D01*
X107612883Y-115867000D01*
X107271117Y-115867000D01*
X106935919Y-115933675D01*
X106620169Y-116064463D01*
X106336002Y-116254337D01*
X106094337Y-116496002D01*
X105904463Y-116780169D01*
X105773675Y-117095919D01*
X105707000Y-117431117D01*
X102260000Y-117431117D01*
X102260000Y-109546920D01*
X102687244Y-109546920D01*
X102690920Y-109584242D01*
X102690920Y-109584252D01*
X102701917Y-109695905D01*
X102742958Y-109831202D01*
X102745374Y-109839166D01*
X102815946Y-109971196D01*
X102856984Y-110021200D01*
X102910919Y-110086920D01*
X102939917Y-110110718D01*
X104285752Y-111456554D01*
X104132597Y-111826304D01*
X104040940Y-112287092D01*
X104040940Y-112756908D01*
X104132597Y-113217696D01*
X104312387Y-113651749D01*
X104573403Y-114042387D01*
X104905613Y-114374597D01*
X105296251Y-114635613D01*
X105730304Y-114815403D01*
X106191092Y-114907060D01*
X106660908Y-114907060D01*
X107121696Y-114815403D01*
X107555749Y-114635613D01*
X107946387Y-114374597D01*
X108278597Y-114042387D01*
X108539613Y-113651749D01*
X108719403Y-113217696D01*
X108811060Y-112756908D01*
X108811060Y-112287092D01*
X108719403Y-111826304D01*
X108566248Y-111456554D01*
X109540503Y-110482299D01*
X109569501Y-110458501D01*
X109595832Y-110426417D01*
X109664474Y-110342777D01*
X109735046Y-110210747D01*
X109743798Y-110181894D01*
X109778503Y-110067486D01*
X109789500Y-109955833D01*
X109789500Y-109955823D01*
X109793176Y-109918501D01*
X109789500Y-109881178D01*
X109789500Y-107312301D01*
X110158782Y-106943020D01*
X159970219Y-106943020D01*
X160276001Y-107248802D01*
X160276000Y-108293677D01*
X160272324Y-108331000D01*
X160276000Y-108368322D01*
X160276000Y-108368332D01*
X160286997Y-108479985D01*
X160325614Y-108607290D01*
X160330454Y-108623246D01*
X160401026Y-108755276D01*
X160423979Y-108783244D01*
X160495999Y-108871001D01*
X160525002Y-108894803D01*
X161361201Y-109731003D01*
X161384999Y-109760001D01*
X161500724Y-109854974D01*
X161632753Y-109925546D01*
X161776014Y-109969003D01*
X161887667Y-109980000D01*
X161887677Y-109980000D01*
X161925000Y-109983676D01*
X161962323Y-109980000D01*
X162043822Y-109980000D01*
X162168525Y-110166632D01*
X162375368Y-110373475D01*
X162549760Y-110490000D01*
X162375368Y-110606525D01*
X162168525Y-110813368D01*
X162006010Y-111056589D01*
X161894068Y-111326842D01*
X161837000Y-111613740D01*
X161837000Y-111906260D01*
X161894068Y-112193158D01*
X162006010Y-112463411D01*
X162168525Y-112706632D01*
X162375368Y-112913475D01*
X162618589Y-113075990D01*
X162888842Y-113187932D01*
X163175740Y-113245000D01*
X163468260Y-113245000D01*
X163755158Y-113187932D01*
X164025411Y-113075990D01*
X164268632Y-112913475D01*
X164475475Y-112706632D01*
X164593100Y-112530594D01*
X164764412Y-112760269D01*
X164980645Y-112955178D01*
X165230748Y-113104157D01*
X165505109Y-113201481D01*
X165735000Y-113080814D01*
X165735000Y-111887000D01*
X165989000Y-111887000D01*
X165989000Y-113080814D01*
X166218891Y-113201481D01*
X166493252Y-113104157D01*
X166743355Y-112955178D01*
X166959588Y-112760269D01*
X167133641Y-112526920D01*
X167258825Y-112264099D01*
X167303476Y-112116890D01*
X167182155Y-111887000D01*
X165989000Y-111887000D01*
X165735000Y-111887000D01*
X165715000Y-111887000D01*
X165715000Y-111633000D01*
X165735000Y-111633000D01*
X165735000Y-111613000D01*
X165989000Y-111613000D01*
X165989000Y-111633000D01*
X167182155Y-111633000D01*
X167303476Y-111403110D01*
X167258825Y-111255901D01*
X167133641Y-110993080D01*
X167034987Y-110860816D01*
X168347018Y-109548787D01*
X168376010Y-109524994D01*
X168399804Y-109496001D01*
X168399808Y-109495997D01*
X168470982Y-109409270D01*
X168470983Y-109409269D01*
X168541555Y-109277240D01*
X168585012Y-109133979D01*
X168596009Y-109022326D01*
X168596009Y-109022317D01*
X168599685Y-108984994D01*
X168596009Y-108947671D01*
X168596009Y-105641922D01*
X168599685Y-105604599D01*
X168596009Y-105567276D01*
X168596009Y-105567266D01*
X168585012Y-105455613D01*
X168541555Y-105312352D01*
X168524261Y-105279997D01*
X168470983Y-105180322D01*
X168399808Y-105093596D01*
X168376010Y-105064598D01*
X168347011Y-105040800D01*
X167628203Y-104321992D01*
X167604401Y-104292989D01*
X167488676Y-104198016D01*
X167356647Y-104127444D01*
X167213386Y-104083987D01*
X167101733Y-104072990D01*
X167101722Y-104072990D01*
X167064400Y-104069314D01*
X167027078Y-104072990D01*
X110227792Y-104072990D01*
X109853000Y-103698199D01*
X109853000Y-101891322D01*
X109856676Y-101853999D01*
X109853000Y-101816676D01*
X109853000Y-101816667D01*
X109842003Y-101705014D01*
X109798546Y-101561753D01*
X109728916Y-101431486D01*
X109727974Y-101429723D01*
X109656799Y-101342997D01*
X109633001Y-101313999D01*
X109604002Y-101290200D01*
X109085303Y-100771502D01*
X109085299Y-100771497D01*
X108566248Y-100252446D01*
X108719403Y-99882696D01*
X108811060Y-99421908D01*
X108811060Y-98952092D01*
X108719403Y-98491304D01*
X108566248Y-98121554D01*
X109350004Y-97337798D01*
X109379001Y-97314001D01*
X109473974Y-97198276D01*
X109544546Y-97066247D01*
X109588003Y-96922986D01*
X109599000Y-96811333D01*
X109599000Y-96811324D01*
X109602676Y-96774001D01*
X109599000Y-96736678D01*
X109599000Y-95183801D01*
X110550802Y-94232000D01*
X117052928Y-94232000D01*
X117052928Y-94272000D01*
X117065188Y-94396482D01*
X117101498Y-94516180D01*
X117160463Y-94626494D01*
X117239815Y-94723185D01*
X117336506Y-94802537D01*
X117446820Y-94861502D01*
X117566518Y-94897812D01*
X117691000Y-94910072D01*
X119291000Y-94910072D01*
X119415482Y-94897812D01*
X119535180Y-94861502D01*
X119645494Y-94802537D01*
X119742185Y-94723185D01*
X119821537Y-94626494D01*
X119880502Y-94516180D01*
X119916812Y-94396482D01*
X119917643Y-94388039D01*
X120116241Y-94586637D01*
X120351273Y-94743680D01*
X120612426Y-94851853D01*
X120889665Y-94907000D01*
X121172335Y-94907000D01*
X121449574Y-94851853D01*
X121710727Y-94743680D01*
X121945759Y-94586637D01*
X122145637Y-94386759D01*
X122301000Y-94154241D01*
X122456363Y-94386759D01*
X122656241Y-94586637D01*
X122891273Y-94743680D01*
X123152426Y-94851853D01*
X123429665Y-94907000D01*
X123712335Y-94907000D01*
X123989574Y-94851853D01*
X124250727Y-94743680D01*
X124485759Y-94586637D01*
X124685637Y-94386759D01*
X124841000Y-94154241D01*
X124996363Y-94386759D01*
X125196241Y-94586637D01*
X125431273Y-94743680D01*
X125692426Y-94851853D01*
X125969665Y-94907000D01*
X126252335Y-94907000D01*
X126529574Y-94851853D01*
X126790727Y-94743680D01*
X127025759Y-94586637D01*
X127225637Y-94386759D01*
X127381000Y-94154241D01*
X127536363Y-94386759D01*
X127736241Y-94586637D01*
X127971273Y-94743680D01*
X128232426Y-94851853D01*
X128509665Y-94907000D01*
X128792335Y-94907000D01*
X129069574Y-94851853D01*
X129330727Y-94743680D01*
X129565759Y-94586637D01*
X129765637Y-94386759D01*
X129921000Y-94154241D01*
X130076363Y-94386759D01*
X130276241Y-94586637D01*
X130511273Y-94743680D01*
X130772426Y-94851853D01*
X131049665Y-94907000D01*
X131332335Y-94907000D01*
X131609574Y-94851853D01*
X131870727Y-94743680D01*
X132105759Y-94586637D01*
X132305637Y-94386759D01*
X132461000Y-94154241D01*
X132616363Y-94386759D01*
X132816241Y-94586637D01*
X133051273Y-94743680D01*
X133312426Y-94851853D01*
X133589665Y-94907000D01*
X133872335Y-94907000D01*
X134149574Y-94851853D01*
X134410727Y-94743680D01*
X134645759Y-94586637D01*
X134845637Y-94386759D01*
X135002680Y-94151727D01*
X135007067Y-94141135D01*
X135118615Y-94327131D01*
X135307586Y-94535519D01*
X135533580Y-94703037D01*
X135787913Y-94823246D01*
X135921961Y-94863904D01*
X136144000Y-94741915D01*
X136144000Y-93599000D01*
X136124000Y-93599000D01*
X136124000Y-93345000D01*
X136144000Y-93345000D01*
X136144000Y-92202085D01*
X136398000Y-92202085D01*
X136398000Y-93345000D01*
X136418000Y-93345000D01*
X136418000Y-93599000D01*
X136398000Y-93599000D01*
X136398000Y-94741915D01*
X136620039Y-94863904D01*
X136754087Y-94823246D01*
X137008420Y-94703037D01*
X137234414Y-94535519D01*
X137423385Y-94327131D01*
X137534933Y-94141135D01*
X137539320Y-94151727D01*
X137696363Y-94386759D01*
X137896241Y-94586637D01*
X138131273Y-94743680D01*
X138392426Y-94851853D01*
X138669665Y-94907000D01*
X138952335Y-94907000D01*
X139229574Y-94851853D01*
X139490727Y-94743680D01*
X139725759Y-94586637D01*
X139925637Y-94386759D01*
X140081000Y-94154241D01*
X140236363Y-94386759D01*
X140436241Y-94586637D01*
X140671273Y-94743680D01*
X140932426Y-94851853D01*
X141209665Y-94907000D01*
X141492335Y-94907000D01*
X141769574Y-94851853D01*
X142030727Y-94743680D01*
X142265759Y-94586637D01*
X142465637Y-94386759D01*
X142621000Y-94154241D01*
X142776363Y-94386759D01*
X142976241Y-94586637D01*
X143211273Y-94743680D01*
X143472426Y-94851853D01*
X143749665Y-94907000D01*
X144032335Y-94907000D01*
X144309574Y-94851853D01*
X144570727Y-94743680D01*
X144805759Y-94586637D01*
X145005637Y-94386759D01*
X145161000Y-94154241D01*
X145316363Y-94386759D01*
X145516241Y-94586637D01*
X145751273Y-94743680D01*
X146012426Y-94851853D01*
X146289665Y-94907000D01*
X146572335Y-94907000D01*
X146849574Y-94851853D01*
X147110727Y-94743680D01*
X147345759Y-94586637D01*
X147545637Y-94386759D01*
X147701000Y-94154241D01*
X147856363Y-94386759D01*
X148056241Y-94586637D01*
X148291273Y-94743680D01*
X148552426Y-94851853D01*
X148829665Y-94907000D01*
X149112335Y-94907000D01*
X149389574Y-94851853D01*
X149650727Y-94743680D01*
X149885759Y-94586637D01*
X150085637Y-94386759D01*
X150241000Y-94154241D01*
X150396363Y-94386759D01*
X150596241Y-94586637D01*
X150831273Y-94743680D01*
X151092426Y-94851853D01*
X151369665Y-94907000D01*
X151652335Y-94907000D01*
X151929574Y-94851853D01*
X152190727Y-94743680D01*
X152425759Y-94586637D01*
X152625637Y-94386759D01*
X152782680Y-94151727D01*
X152890853Y-93890574D01*
X152946000Y-93613335D01*
X152946000Y-93330665D01*
X152890853Y-93053426D01*
X152782680Y-92792273D01*
X152625637Y-92557241D01*
X152425759Y-92357363D01*
X152190727Y-92200320D01*
X151929574Y-92092147D01*
X151652335Y-92037000D01*
X151369665Y-92037000D01*
X151092426Y-92092147D01*
X150831273Y-92200320D01*
X150596241Y-92357363D01*
X150396363Y-92557241D01*
X150241000Y-92789759D01*
X150085637Y-92557241D01*
X149885759Y-92357363D01*
X149650727Y-92200320D01*
X149389574Y-92092147D01*
X149112335Y-92037000D01*
X148829665Y-92037000D01*
X148552426Y-92092147D01*
X148291273Y-92200320D01*
X148056241Y-92357363D01*
X147856363Y-92557241D01*
X147701000Y-92789759D01*
X147545637Y-92557241D01*
X147345759Y-92357363D01*
X147110727Y-92200320D01*
X146849574Y-92092147D01*
X146572335Y-92037000D01*
X146289665Y-92037000D01*
X146012426Y-92092147D01*
X145751273Y-92200320D01*
X145516241Y-92357363D01*
X145316363Y-92557241D01*
X145161000Y-92789759D01*
X145005637Y-92557241D01*
X144805759Y-92357363D01*
X144570727Y-92200320D01*
X144309574Y-92092147D01*
X144032335Y-92037000D01*
X143749665Y-92037000D01*
X143472426Y-92092147D01*
X143211273Y-92200320D01*
X142976241Y-92357363D01*
X142776363Y-92557241D01*
X142621000Y-92789759D01*
X142465637Y-92557241D01*
X142265759Y-92357363D01*
X142030727Y-92200320D01*
X141769574Y-92092147D01*
X141492335Y-92037000D01*
X141209665Y-92037000D01*
X140932426Y-92092147D01*
X140671273Y-92200320D01*
X140436241Y-92357363D01*
X140236363Y-92557241D01*
X140081000Y-92789759D01*
X139925637Y-92557241D01*
X139725759Y-92357363D01*
X139490727Y-92200320D01*
X139229574Y-92092147D01*
X138952335Y-92037000D01*
X138669665Y-92037000D01*
X138392426Y-92092147D01*
X138131273Y-92200320D01*
X137896241Y-92357363D01*
X137696363Y-92557241D01*
X137539320Y-92792273D01*
X137534933Y-92802865D01*
X137423385Y-92616869D01*
X137234414Y-92408481D01*
X137008420Y-92240963D01*
X136754087Y-92120754D01*
X136620039Y-92080096D01*
X136398000Y-92202085D01*
X136144000Y-92202085D01*
X135921961Y-92080096D01*
X135787913Y-92120754D01*
X135533580Y-92240963D01*
X135307586Y-92408481D01*
X135118615Y-92616869D01*
X135007067Y-92802865D01*
X135002680Y-92792273D01*
X134845637Y-92557241D01*
X134645759Y-92357363D01*
X134410727Y-92200320D01*
X134149574Y-92092147D01*
X133872335Y-92037000D01*
X133589665Y-92037000D01*
X133312426Y-92092147D01*
X133051273Y-92200320D01*
X132816241Y-92357363D01*
X132616363Y-92557241D01*
X132461000Y-92789759D01*
X132305637Y-92557241D01*
X132105759Y-92357363D01*
X131870727Y-92200320D01*
X131609574Y-92092147D01*
X131332335Y-92037000D01*
X131049665Y-92037000D01*
X130772426Y-92092147D01*
X130511273Y-92200320D01*
X130276241Y-92357363D01*
X130076363Y-92557241D01*
X129921000Y-92789759D01*
X129765637Y-92557241D01*
X129565759Y-92357363D01*
X129330727Y-92200320D01*
X129069574Y-92092147D01*
X128792335Y-92037000D01*
X128509665Y-92037000D01*
X128232426Y-92092147D01*
X127971273Y-92200320D01*
X127736241Y-92357363D01*
X127536363Y-92557241D01*
X127381000Y-92789759D01*
X127225637Y-92557241D01*
X127025759Y-92357363D01*
X126790727Y-92200320D01*
X126529574Y-92092147D01*
X126252335Y-92037000D01*
X125969665Y-92037000D01*
X125692426Y-92092147D01*
X125431273Y-92200320D01*
X125196241Y-92357363D01*
X124996363Y-92557241D01*
X124841000Y-92789759D01*
X124685637Y-92557241D01*
X124485759Y-92357363D01*
X124250727Y-92200320D01*
X123989574Y-92092147D01*
X123712335Y-92037000D01*
X123429665Y-92037000D01*
X123152426Y-92092147D01*
X122891273Y-92200320D01*
X122656241Y-92357363D01*
X122456363Y-92557241D01*
X122301000Y-92789759D01*
X122145637Y-92557241D01*
X121945759Y-92357363D01*
X121710727Y-92200320D01*
X121449574Y-92092147D01*
X121172335Y-92037000D01*
X120889665Y-92037000D01*
X120612426Y-92092147D01*
X120376001Y-92190077D01*
X120376001Y-87133923D01*
X120612426Y-87231853D01*
X120889665Y-87287000D01*
X121172335Y-87287000D01*
X121449574Y-87231853D01*
X121710727Y-87123680D01*
X121945759Y-86966637D01*
X122145637Y-86766759D01*
X122301000Y-86534241D01*
X122456363Y-86766759D01*
X122656241Y-86966637D01*
X122891273Y-87123680D01*
X123152426Y-87231853D01*
X123429665Y-87287000D01*
X123712335Y-87287000D01*
X123989574Y-87231853D01*
X124250727Y-87123680D01*
X124485759Y-86966637D01*
X124685637Y-86766759D01*
X124841000Y-86534241D01*
X124996363Y-86766759D01*
X125196241Y-86966637D01*
X125431273Y-87123680D01*
X125692426Y-87231853D01*
X125969665Y-87287000D01*
X126252335Y-87287000D01*
X126529574Y-87231853D01*
X126790727Y-87123680D01*
X127025759Y-86966637D01*
X127225637Y-86766759D01*
X127381000Y-86534241D01*
X127536363Y-86766759D01*
X127736241Y-86966637D01*
X127971273Y-87123680D01*
X128232426Y-87231853D01*
X128509665Y-87287000D01*
X128792335Y-87287000D01*
X129069574Y-87231853D01*
X129330727Y-87123680D01*
X129565759Y-86966637D01*
X129765637Y-86766759D01*
X129921000Y-86534241D01*
X130076363Y-86766759D01*
X130276241Y-86966637D01*
X130511273Y-87123680D01*
X130772426Y-87231853D01*
X131049665Y-87287000D01*
X131332335Y-87287000D01*
X131609574Y-87231853D01*
X131870727Y-87123680D01*
X132105759Y-86966637D01*
X132305637Y-86766759D01*
X132462680Y-86531727D01*
X132467067Y-86521135D01*
X132578615Y-86707131D01*
X132767586Y-86915519D01*
X132993580Y-87083037D01*
X133247913Y-87203246D01*
X133381961Y-87243904D01*
X133604000Y-87121915D01*
X133604000Y-85979000D01*
X133584000Y-85979000D01*
X133584000Y-85725000D01*
X133604000Y-85725000D01*
X133604000Y-84582085D01*
X133858000Y-84582085D01*
X133858000Y-85725000D01*
X133878000Y-85725000D01*
X133878000Y-85979000D01*
X133858000Y-85979000D01*
X133858000Y-87121915D01*
X134080039Y-87243904D01*
X134214087Y-87203246D01*
X134468420Y-87083037D01*
X134694414Y-86915519D01*
X134883385Y-86707131D01*
X134994933Y-86521135D01*
X134999320Y-86531727D01*
X135156363Y-86766759D01*
X135356241Y-86966637D01*
X135591273Y-87123680D01*
X135852426Y-87231853D01*
X136129665Y-87287000D01*
X136412335Y-87287000D01*
X136689574Y-87231853D01*
X136950727Y-87123680D01*
X137185759Y-86966637D01*
X137385637Y-86766759D01*
X137541000Y-86534241D01*
X137696363Y-86766759D01*
X137896241Y-86966637D01*
X138131273Y-87123680D01*
X138392426Y-87231853D01*
X138669665Y-87287000D01*
X138952335Y-87287000D01*
X139229574Y-87231853D01*
X139490727Y-87123680D01*
X139725759Y-86966637D01*
X139925637Y-86766759D01*
X140081000Y-86534241D01*
X140236363Y-86766759D01*
X140436241Y-86966637D01*
X140671273Y-87123680D01*
X140932426Y-87231853D01*
X141209665Y-87287000D01*
X141492335Y-87287000D01*
X141769574Y-87231853D01*
X142030727Y-87123680D01*
X142265759Y-86966637D01*
X142465637Y-86766759D01*
X142621000Y-86534241D01*
X142776363Y-86766759D01*
X142976241Y-86966637D01*
X143211273Y-87123680D01*
X143472426Y-87231853D01*
X143749665Y-87287000D01*
X144032335Y-87287000D01*
X144309574Y-87231853D01*
X144570727Y-87123680D01*
X144805759Y-86966637D01*
X145005637Y-86766759D01*
X145161000Y-86534241D01*
X145316363Y-86766759D01*
X145516241Y-86966637D01*
X145751273Y-87123680D01*
X146012426Y-87231853D01*
X146289665Y-87287000D01*
X146572335Y-87287000D01*
X146849574Y-87231853D01*
X147110727Y-87123680D01*
X147345759Y-86966637D01*
X147545637Y-86766759D01*
X147701000Y-86534241D01*
X147856363Y-86766759D01*
X148056241Y-86966637D01*
X148291273Y-87123680D01*
X148552426Y-87231853D01*
X148829665Y-87287000D01*
X149112335Y-87287000D01*
X149389574Y-87231853D01*
X149650727Y-87123680D01*
X149885759Y-86966637D01*
X150085637Y-86766759D01*
X150241000Y-86534241D01*
X150396363Y-86766759D01*
X150596241Y-86966637D01*
X150831273Y-87123680D01*
X151092426Y-87231853D01*
X151369665Y-87287000D01*
X151652335Y-87287000D01*
X151929574Y-87231853D01*
X152190727Y-87123680D01*
X152425759Y-86966637D01*
X152625637Y-86766759D01*
X152782680Y-86531727D01*
X152890853Y-86270574D01*
X152946000Y-85993335D01*
X152946000Y-85710665D01*
X152890853Y-85433426D01*
X152782680Y-85172273D01*
X152625637Y-84937241D01*
X152425759Y-84737363D01*
X152190727Y-84580320D01*
X151929574Y-84472147D01*
X151652335Y-84417000D01*
X151369665Y-84417000D01*
X151092426Y-84472147D01*
X150831273Y-84580320D01*
X150596241Y-84737363D01*
X150396363Y-84937241D01*
X150241000Y-85169759D01*
X150085637Y-84937241D01*
X149885759Y-84737363D01*
X149650727Y-84580320D01*
X149389574Y-84472147D01*
X149112335Y-84417000D01*
X148829665Y-84417000D01*
X148552426Y-84472147D01*
X148291273Y-84580320D01*
X148056241Y-84737363D01*
X147856363Y-84937241D01*
X147701000Y-85169759D01*
X147545637Y-84937241D01*
X147345759Y-84737363D01*
X147110727Y-84580320D01*
X146849574Y-84472147D01*
X146572335Y-84417000D01*
X146289665Y-84417000D01*
X146012426Y-84472147D01*
X145751273Y-84580320D01*
X145516241Y-84737363D01*
X145316363Y-84937241D01*
X145161000Y-85169759D01*
X145005637Y-84937241D01*
X144805759Y-84737363D01*
X144570727Y-84580320D01*
X144309574Y-84472147D01*
X144032335Y-84417000D01*
X143749665Y-84417000D01*
X143472426Y-84472147D01*
X143211273Y-84580320D01*
X142976241Y-84737363D01*
X142776363Y-84937241D01*
X142621000Y-85169759D01*
X142465637Y-84937241D01*
X142265759Y-84737363D01*
X142030727Y-84580320D01*
X141769574Y-84472147D01*
X141492335Y-84417000D01*
X141209665Y-84417000D01*
X140932426Y-84472147D01*
X140671273Y-84580320D01*
X140436241Y-84737363D01*
X140236363Y-84937241D01*
X140081000Y-85169759D01*
X139925637Y-84937241D01*
X139725759Y-84737363D01*
X139490727Y-84580320D01*
X139229574Y-84472147D01*
X138952335Y-84417000D01*
X138669665Y-84417000D01*
X138392426Y-84472147D01*
X138131273Y-84580320D01*
X137896241Y-84737363D01*
X137696363Y-84937241D01*
X137541000Y-85169759D01*
X137385637Y-84937241D01*
X137185759Y-84737363D01*
X136950727Y-84580320D01*
X136689574Y-84472147D01*
X136412335Y-84417000D01*
X136129665Y-84417000D01*
X135852426Y-84472147D01*
X135591273Y-84580320D01*
X135356241Y-84737363D01*
X135156363Y-84937241D01*
X134999320Y-85172273D01*
X134994933Y-85182865D01*
X134883385Y-84996869D01*
X134694414Y-84788481D01*
X134468420Y-84620963D01*
X134214087Y-84500754D01*
X134080039Y-84460096D01*
X133858000Y-84582085D01*
X133604000Y-84582085D01*
X133381961Y-84460096D01*
X133247913Y-84500754D01*
X132993580Y-84620963D01*
X132767586Y-84788481D01*
X132578615Y-84996869D01*
X132467067Y-85182865D01*
X132462680Y-85172273D01*
X132305637Y-84937241D01*
X132105759Y-84737363D01*
X131870727Y-84580320D01*
X131609574Y-84472147D01*
X131332335Y-84417000D01*
X131049665Y-84417000D01*
X130772426Y-84472147D01*
X130511273Y-84580320D01*
X130276241Y-84737363D01*
X130076363Y-84937241D01*
X129921000Y-85169759D01*
X129765637Y-84937241D01*
X129565759Y-84737363D01*
X129330727Y-84580320D01*
X129069574Y-84472147D01*
X128792335Y-84417000D01*
X128509665Y-84417000D01*
X128232426Y-84472147D01*
X127971273Y-84580320D01*
X127736241Y-84737363D01*
X127536363Y-84937241D01*
X127381000Y-85169759D01*
X127225637Y-84937241D01*
X127025759Y-84737363D01*
X126790727Y-84580320D01*
X126529574Y-84472147D01*
X126252335Y-84417000D01*
X125969665Y-84417000D01*
X125692426Y-84472147D01*
X125431273Y-84580320D01*
X125196241Y-84737363D01*
X124996363Y-84937241D01*
X124841000Y-85169759D01*
X124685637Y-84937241D01*
X124485759Y-84737363D01*
X124250727Y-84580320D01*
X123989574Y-84472147D01*
X123712335Y-84417000D01*
X123429665Y-84417000D01*
X123152426Y-84472147D01*
X122891273Y-84580320D01*
X122656241Y-84737363D01*
X122456363Y-84937241D01*
X122301000Y-85169759D01*
X122145637Y-84937241D01*
X121945759Y-84737363D01*
X121710727Y-84580320D01*
X121449574Y-84472147D01*
X121172335Y-84417000D01*
X120889665Y-84417000D01*
X120612426Y-84472147D01*
X120376001Y-84570077D01*
X120376001Y-82247800D01*
X121022792Y-81601010D01*
X135656668Y-81601010D01*
X135693990Y-81604686D01*
X135731312Y-81601010D01*
X135731323Y-81601010D01*
X135842976Y-81590013D01*
X135986237Y-81546556D01*
X136118266Y-81475984D01*
X136233991Y-81381011D01*
X136248676Y-81363117D01*
X155999000Y-81363117D01*
X155999000Y-81704883D01*
X156065675Y-82040081D01*
X156196463Y-82355831D01*
X156386337Y-82639998D01*
X156628002Y-82881663D01*
X156912169Y-83071537D01*
X157227919Y-83202325D01*
X157563117Y-83269000D01*
X157904883Y-83269000D01*
X158240081Y-83202325D01*
X158555831Y-83071537D01*
X158839998Y-82881663D01*
X159081663Y-82639998D01*
X159271537Y-82355831D01*
X159402325Y-82040081D01*
X159469000Y-81704883D01*
X159469000Y-81363117D01*
X159402325Y-81027919D01*
X159271537Y-80712169D01*
X159081663Y-80428002D01*
X158839998Y-80186337D01*
X158555831Y-79996463D01*
X158240081Y-79865675D01*
X157904883Y-79799000D01*
X157563117Y-79799000D01*
X157227919Y-79865675D01*
X156912169Y-79996463D01*
X156628002Y-80186337D01*
X156386337Y-80428002D01*
X156196463Y-80712169D01*
X156065675Y-81027919D01*
X155999000Y-81363117D01*
X136248676Y-81363117D01*
X136257794Y-81352007D01*
X138687004Y-78922798D01*
X138716001Y-78899001D01*
X138810974Y-78783276D01*
X138881546Y-78651247D01*
X138925003Y-78507986D01*
X138936000Y-78396333D01*
X138936000Y-78396324D01*
X138939676Y-78359001D01*
X138936000Y-78321678D01*
X138936000Y-77478178D01*
X139122632Y-77353475D01*
X139329475Y-77146632D01*
X139446000Y-76972240D01*
X139562525Y-77146632D01*
X139769368Y-77353475D01*
X140012589Y-77515990D01*
X140282842Y-77627932D01*
X140569740Y-77685000D01*
X140862260Y-77685000D01*
X141149158Y-77627932D01*
X141419411Y-77515990D01*
X141662632Y-77353475D01*
X141794487Y-77221620D01*
X141816498Y-77294180D01*
X141875463Y-77404494D01*
X141954815Y-77501185D01*
X142051506Y-77580537D01*
X142161820Y-77639502D01*
X142281518Y-77675812D01*
X142406000Y-77688072D01*
X144106000Y-77688072D01*
X144230482Y-77675812D01*
X144350180Y-77639502D01*
X144460494Y-77580537D01*
X144557185Y-77501185D01*
X144636537Y-77404494D01*
X144695502Y-77294180D01*
X144731812Y-77174482D01*
X144744072Y-77050000D01*
X144744072Y-76053740D01*
X145835000Y-76053740D01*
X145835000Y-76346260D01*
X145892068Y-76633158D01*
X146004010Y-76903411D01*
X146166525Y-77146632D01*
X146373368Y-77353475D01*
X146616589Y-77515990D01*
X146886842Y-77627932D01*
X147173740Y-77685000D01*
X147466260Y-77685000D01*
X147753158Y-77627932D01*
X148023411Y-77515990D01*
X148266632Y-77353475D01*
X148473475Y-77146632D01*
X148590000Y-76972240D01*
X148706525Y-77146632D01*
X148913368Y-77353475D01*
X149156589Y-77515990D01*
X149426842Y-77627932D01*
X149713740Y-77685000D01*
X150006260Y-77685000D01*
X150293158Y-77627932D01*
X150563411Y-77515990D01*
X150806632Y-77353475D01*
X151013475Y-77146632D01*
X151130000Y-76972240D01*
X151246525Y-77146632D01*
X151453368Y-77353475D01*
X151696589Y-77515990D01*
X151966842Y-77627932D01*
X152253740Y-77685000D01*
X152546260Y-77685000D01*
X152833158Y-77627932D01*
X153103411Y-77515990D01*
X153346632Y-77353475D01*
X153553475Y-77146632D01*
X153670000Y-76972240D01*
X153786525Y-77146632D01*
X153993368Y-77353475D01*
X154236589Y-77515990D01*
X154506842Y-77627932D01*
X154793740Y-77685000D01*
X155086260Y-77685000D01*
X155373158Y-77627932D01*
X155643411Y-77515990D01*
X155886632Y-77353475D01*
X156093475Y-77146632D01*
X156210000Y-76972240D01*
X156326525Y-77146632D01*
X156533368Y-77353475D01*
X156776589Y-77515990D01*
X157046842Y-77627932D01*
X157333740Y-77685000D01*
X157626260Y-77685000D01*
X157913158Y-77627932D01*
X158183411Y-77515990D01*
X158426632Y-77353475D01*
X158633475Y-77146632D01*
X158750000Y-76972240D01*
X158866525Y-77146632D01*
X159073368Y-77353475D01*
X159316589Y-77515990D01*
X159586842Y-77627932D01*
X159873740Y-77685000D01*
X160166260Y-77685000D01*
X160453158Y-77627932D01*
X160723411Y-77515990D01*
X160966632Y-77353475D01*
X161173475Y-77146632D01*
X161290000Y-76972240D01*
X161406525Y-77146632D01*
X161613368Y-77353475D01*
X161856589Y-77515990D01*
X162126842Y-77627932D01*
X162413740Y-77685000D01*
X162706260Y-77685000D01*
X162993158Y-77627932D01*
X163263411Y-77515990D01*
X163506632Y-77353475D01*
X163638487Y-77221620D01*
X163660498Y-77294180D01*
X163719463Y-77404494D01*
X163798815Y-77501185D01*
X163895506Y-77580537D01*
X164005820Y-77639502D01*
X164125518Y-77675812D01*
X164250000Y-77688072D01*
X165950000Y-77688072D01*
X166074482Y-77675812D01*
X166194180Y-77639502D01*
X166304494Y-77580537D01*
X166401185Y-77501185D01*
X166480537Y-77404494D01*
X166539502Y-77294180D01*
X166575812Y-77174482D01*
X166588072Y-77050000D01*
X166588072Y-75350000D01*
X166575812Y-75225518D01*
X166539502Y-75105820D01*
X166480537Y-74995506D01*
X166401185Y-74898815D01*
X166304494Y-74819463D01*
X166194180Y-74760498D01*
X166074482Y-74724188D01*
X165950000Y-74711928D01*
X164250000Y-74711928D01*
X164125518Y-74724188D01*
X164005820Y-74760498D01*
X163895506Y-74819463D01*
X163798815Y-74898815D01*
X163719463Y-74995506D01*
X163660498Y-75105820D01*
X163638487Y-75178380D01*
X163506632Y-75046525D01*
X163263411Y-74884010D01*
X162993158Y-74772068D01*
X162706260Y-74715000D01*
X162413740Y-74715000D01*
X162126842Y-74772068D01*
X161856589Y-74884010D01*
X161613368Y-75046525D01*
X161406525Y-75253368D01*
X161290000Y-75427760D01*
X161173475Y-75253368D01*
X160966632Y-75046525D01*
X160723411Y-74884010D01*
X160453158Y-74772068D01*
X160166260Y-74715000D01*
X159873740Y-74715000D01*
X159586842Y-74772068D01*
X159316589Y-74884010D01*
X159073368Y-75046525D01*
X158866525Y-75253368D01*
X158750000Y-75427760D01*
X158633475Y-75253368D01*
X158426632Y-75046525D01*
X158183411Y-74884010D01*
X157913158Y-74772068D01*
X157626260Y-74715000D01*
X157333740Y-74715000D01*
X157046842Y-74772068D01*
X156776589Y-74884010D01*
X156533368Y-75046525D01*
X156326525Y-75253368D01*
X156210000Y-75427760D01*
X156093475Y-75253368D01*
X155886632Y-75046525D01*
X155643411Y-74884010D01*
X155373158Y-74772068D01*
X155086260Y-74715000D01*
X154793740Y-74715000D01*
X154506842Y-74772068D01*
X154236589Y-74884010D01*
X153993368Y-75046525D01*
X153786525Y-75253368D01*
X153670000Y-75427760D01*
X153553475Y-75253368D01*
X153346632Y-75046525D01*
X153103411Y-74884010D01*
X152833158Y-74772068D01*
X152546260Y-74715000D01*
X152253740Y-74715000D01*
X151966842Y-74772068D01*
X151696589Y-74884010D01*
X151453368Y-75046525D01*
X151246525Y-75253368D01*
X151130000Y-75427760D01*
X151013475Y-75253368D01*
X150806632Y-75046525D01*
X150563411Y-74884010D01*
X150293158Y-74772068D01*
X150006260Y-74715000D01*
X149713740Y-74715000D01*
X149426842Y-74772068D01*
X149156589Y-74884010D01*
X148913368Y-75046525D01*
X148706525Y-75253368D01*
X148590000Y-75427760D01*
X148473475Y-75253368D01*
X148266632Y-75046525D01*
X148023411Y-74884010D01*
X147753158Y-74772068D01*
X147466260Y-74715000D01*
X147173740Y-74715000D01*
X146886842Y-74772068D01*
X146616589Y-74884010D01*
X146373368Y-75046525D01*
X146166525Y-75253368D01*
X146004010Y-75496589D01*
X145892068Y-75766842D01*
X145835000Y-76053740D01*
X144744072Y-76053740D01*
X144744072Y-75350000D01*
X144731812Y-75225518D01*
X144695502Y-75105820D01*
X144636537Y-74995506D01*
X144557185Y-74898815D01*
X144460494Y-74819463D01*
X144350180Y-74760498D01*
X144230482Y-74724188D01*
X144106000Y-74711928D01*
X142406000Y-74711928D01*
X142281518Y-74724188D01*
X142161820Y-74760498D01*
X142051506Y-74819463D01*
X141954815Y-74898815D01*
X141875463Y-74995506D01*
X141816498Y-75105820D01*
X141794487Y-75178380D01*
X141662632Y-75046525D01*
X141419411Y-74884010D01*
X141149158Y-74772068D01*
X140862260Y-74715000D01*
X140569740Y-74715000D01*
X140282842Y-74772068D01*
X140012589Y-74884010D01*
X139769368Y-75046525D01*
X139562525Y-75253368D01*
X139446000Y-75427760D01*
X139329475Y-75253368D01*
X139122632Y-75046525D01*
X138879411Y-74884010D01*
X138609158Y-74772068D01*
X138322260Y-74715000D01*
X138029740Y-74715000D01*
X137742842Y-74772068D01*
X137472589Y-74884010D01*
X137229368Y-75046525D01*
X137022525Y-75253368D01*
X136906000Y-75427760D01*
X136789475Y-75253368D01*
X136582632Y-75046525D01*
X136339411Y-74884010D01*
X136069158Y-74772068D01*
X135782260Y-74715000D01*
X135489740Y-74715000D01*
X135202842Y-74772068D01*
X134932589Y-74884010D01*
X134689368Y-75046525D01*
X134482525Y-75253368D01*
X134366000Y-75427760D01*
X134249475Y-75253368D01*
X134042632Y-75046525D01*
X133799411Y-74884010D01*
X133529158Y-74772068D01*
X133242260Y-74715000D01*
X132949740Y-74715000D01*
X132662842Y-74772068D01*
X132392589Y-74884010D01*
X132149368Y-75046525D01*
X131942525Y-75253368D01*
X131826000Y-75427760D01*
X131709475Y-75253368D01*
X131502632Y-75046525D01*
X131259411Y-74884010D01*
X130989158Y-74772068D01*
X130702260Y-74715000D01*
X130409740Y-74715000D01*
X130122842Y-74772068D01*
X129852589Y-74884010D01*
X129609368Y-75046525D01*
X129402525Y-75253368D01*
X129280805Y-75435534D01*
X129211178Y-75318645D01*
X129016269Y-75102412D01*
X128782920Y-74928359D01*
X128520099Y-74803175D01*
X128372890Y-74758524D01*
X128143000Y-74879845D01*
X128143000Y-76073000D01*
X128163000Y-76073000D01*
X128163000Y-76327000D01*
X128143000Y-76327000D01*
X128143000Y-77520155D01*
X128372890Y-77641476D01*
X128520099Y-77596825D01*
X128782920Y-77471641D01*
X129016269Y-77297588D01*
X129211178Y-77081355D01*
X129280805Y-76964466D01*
X129402525Y-77146632D01*
X129609368Y-77353475D01*
X129796000Y-77478179D01*
X129796000Y-77790198D01*
X128855219Y-78730980D01*
X112925431Y-78730980D01*
X112888108Y-78727304D01*
X112850785Y-78730980D01*
X112850776Y-78730980D01*
X112739123Y-78741977D01*
X112595862Y-78785434D01*
X112463833Y-78856006D01*
X112348108Y-78950979D01*
X112324310Y-78979977D01*
X109001514Y-82302773D01*
X109110325Y-82040081D01*
X109177000Y-81704883D01*
X109177000Y-81363117D01*
X109110325Y-81027919D01*
X108979537Y-80712169D01*
X108789663Y-80428002D01*
X108547998Y-80186337D01*
X108263831Y-79996463D01*
X107948081Y-79865675D01*
X107612883Y-79799000D01*
X107271117Y-79799000D01*
X106935919Y-79865675D01*
X106620169Y-79996463D01*
X106336002Y-80186337D01*
X106094337Y-80428002D01*
X105904463Y-80712169D01*
X105773675Y-81027919D01*
X105707000Y-81363117D01*
X105707000Y-81704883D01*
X105773675Y-82040081D01*
X105904463Y-82355831D01*
X106094337Y-82639998D01*
X106336002Y-82881663D01*
X106620169Y-83071537D01*
X106935919Y-83202325D01*
X107271117Y-83269000D01*
X107612883Y-83269000D01*
X107948081Y-83202325D01*
X108210773Y-83093514D01*
X102939919Y-88364369D01*
X102910921Y-88388167D01*
X102887123Y-88417165D01*
X102887122Y-88417166D01*
X102815947Y-88503892D01*
X102745375Y-88635922D01*
X102701919Y-88779183D01*
X102687245Y-88928168D01*
X102690922Y-88965500D01*
X102690920Y-109509598D01*
X102687244Y-109546920D01*
X102260000Y-109546920D01*
X102260000Y-74320000D01*
X115630726Y-74320000D01*
X115415271Y-74463962D01*
%TA.AperFunction,Conductor*%
D17*
G36*
X115415271Y-74463962D02*
G01*
X115103962Y-74775271D01*
X114859369Y-75141331D01*
X114690890Y-75548075D01*
X114605000Y-75979872D01*
X114605000Y-76420128D01*
X114690890Y-76851925D01*
X114859369Y-77258669D01*
X115103962Y-77624729D01*
X115415271Y-77936038D01*
X115781331Y-78180631D01*
X116188075Y-78349110D01*
X116619872Y-78435000D01*
X117060128Y-78435000D01*
X117491925Y-78349110D01*
X117898669Y-78180631D01*
X118264729Y-77936038D01*
X118576038Y-77624729D01*
X118820631Y-77258669D01*
X118989110Y-76851925D01*
X119011681Y-76738451D01*
X119080010Y-76903411D01*
X119242525Y-77146632D01*
X119449368Y-77353475D01*
X119692589Y-77515990D01*
X119962842Y-77627932D01*
X120249740Y-77685000D01*
X120542260Y-77685000D01*
X120829158Y-77627932D01*
X121099411Y-77515990D01*
X121342632Y-77353475D01*
X121549475Y-77146632D01*
X121666000Y-76972240D01*
X121782525Y-77146632D01*
X121989368Y-77353475D01*
X122232589Y-77515990D01*
X122502842Y-77627932D01*
X122789740Y-77685000D01*
X123082260Y-77685000D01*
X123369158Y-77627932D01*
X123639411Y-77515990D01*
X123882632Y-77353475D01*
X124089475Y-77146632D01*
X124206000Y-76972240D01*
X124322525Y-77146632D01*
X124529368Y-77353475D01*
X124772589Y-77515990D01*
X125042842Y-77627932D01*
X125329740Y-77685000D01*
X125622260Y-77685000D01*
X125909158Y-77627932D01*
X126179411Y-77515990D01*
X126422632Y-77353475D01*
X126629475Y-77146632D01*
X126751195Y-76964466D01*
X126820822Y-77081355D01*
X127015731Y-77297588D01*
X127249080Y-77471641D01*
X127511901Y-77596825D01*
X127659110Y-77641476D01*
X127889000Y-77520155D01*
X127889000Y-76327000D01*
X127869000Y-76327000D01*
X127869000Y-76073000D01*
X127889000Y-76073000D01*
X127889000Y-74879845D01*
X127659110Y-74758524D01*
X127511901Y-74803175D01*
X127249080Y-74928359D01*
X127015731Y-75102412D01*
X126820822Y-75318645D01*
X126751195Y-75435534D01*
X126629475Y-75253368D01*
X126422632Y-75046525D01*
X126179411Y-74884010D01*
X125909158Y-74772068D01*
X125622260Y-74715000D01*
X125329740Y-74715000D01*
X125042842Y-74772068D01*
X124772589Y-74884010D01*
X124529368Y-75046525D01*
X124322525Y-75253368D01*
X124206000Y-75427760D01*
X124089475Y-75253368D01*
X123882632Y-75046525D01*
X123639411Y-74884010D01*
X123369158Y-74772068D01*
X123082260Y-74715000D01*
X122789740Y-74715000D01*
X122502842Y-74772068D01*
X122232589Y-74884010D01*
X121989368Y-75046525D01*
X121782525Y-75253368D01*
X121666000Y-75427760D01*
X121549475Y-75253368D01*
X121342632Y-75046525D01*
X121099411Y-74884010D01*
X120829158Y-74772068D01*
X120542260Y-74715000D01*
X120249740Y-74715000D01*
X119962842Y-74772068D01*
X119692589Y-74884010D01*
X119449368Y-75046525D01*
X119242525Y-75253368D01*
X119080010Y-75496589D01*
X119011681Y-75661549D01*
X118989110Y-75548075D01*
X118820631Y-75141331D01*
X118576038Y-74775271D01*
X118264729Y-74463962D01*
X118049274Y-74320000D01*
X165842620Y-74320000D01*
X166980001Y-75457382D01*
X166980000Y-86581591D01*
X166976808Y-86614000D01*
X166980000Y-86646409D01*
X166980000Y-86646418D01*
X166989550Y-86743382D01*
X167027290Y-86867792D01*
X167088575Y-86982450D01*
X167136689Y-87041076D01*
X167171052Y-87082948D01*
X167196236Y-87103616D01*
X169520001Y-89427382D01*
X169520001Y-90230727D01*
X169376038Y-90015271D01*
X169064729Y-89703962D01*
X168698669Y-89459369D01*
X168291925Y-89290890D01*
X167860128Y-89205000D01*
X167419872Y-89205000D01*
X166988075Y-89290890D01*
X166581331Y-89459369D01*
X166215271Y-89703962D01*
X165903962Y-90015271D01*
X165659369Y-90381331D01*
X165490890Y-90788075D01*
X165405000Y-91219872D01*
X165405000Y-91660128D01*
X165490890Y-92091925D01*
X165659369Y-92498669D01*
X165903962Y-92864729D01*
X166215271Y-93176038D01*
X166581331Y-93420631D01*
X166988075Y-93589110D01*
X167419872Y-93675000D01*
X167860128Y-93675000D01*
X168291925Y-93589110D01*
X168698669Y-93420631D01*
X169064729Y-93176038D01*
X169376038Y-92864729D01*
X169520001Y-92649273D01*
X169520000Y-96552418D01*
X169520001Y-96552428D01*
X169520000Y-109252418D01*
X169520001Y-109252428D01*
X169520000Y-118170726D01*
X169376038Y-117955271D01*
X169064729Y-117643962D01*
X168698669Y-117399369D01*
X168291925Y-117230890D01*
X167860128Y-117145000D01*
X167419872Y-117145000D01*
X166988075Y-117230890D01*
X166581331Y-117399369D01*
X166215271Y-117643962D01*
X165903962Y-117955271D01*
X165659369Y-118321331D01*
X165490890Y-118728075D01*
X165405000Y-119159872D01*
X165405000Y-119600128D01*
X165490890Y-120031925D01*
X165659369Y-120438669D01*
X165903962Y-120804729D01*
X166215271Y-121116038D01*
X166581331Y-121360631D01*
X166988075Y-121529110D01*
X167419872Y-121615000D01*
X167860128Y-121615000D01*
X168291925Y-121529110D01*
X168698669Y-121360631D01*
X169064729Y-121116038D01*
X169376038Y-120804729D01*
X169520000Y-120589274D01*
X169520000Y-121646619D01*
X167196232Y-123970388D01*
X167171053Y-123991052D01*
X167150389Y-124016231D01*
X167150386Y-124016234D01*
X167088575Y-124091550D01*
X167027290Y-124206208D01*
X166989551Y-124330618D01*
X166976808Y-124460000D01*
X166980001Y-124492419D01*
X166980000Y-126340000D01*
X116779274Y-126340000D01*
X116994729Y-126196038D01*
X117306038Y-125884729D01*
X117550631Y-125518669D01*
X117719110Y-125111925D01*
X117805000Y-124680128D01*
X117805000Y-124239872D01*
X117719110Y-123808075D01*
X117637065Y-123610000D01*
X120508128Y-123610000D01*
X120508128Y-125310000D01*
X120520388Y-125434482D01*
X120556698Y-125554180D01*
X120615663Y-125664494D01*
X120695015Y-125761185D01*
X120791706Y-125840537D01*
X120902020Y-125899502D01*
X121021718Y-125935812D01*
X121146200Y-125948072D01*
X122846200Y-125948072D01*
X122970682Y-125935812D01*
X123090380Y-125899502D01*
X123200694Y-125840537D01*
X123297385Y-125761185D01*
X123376737Y-125664494D01*
X123435702Y-125554180D01*
X123457713Y-125481620D01*
X123589568Y-125613475D01*
X123832789Y-125775990D01*
X124103042Y-125887932D01*
X124389940Y-125945000D01*
X124682460Y-125945000D01*
X124969358Y-125887932D01*
X125239611Y-125775990D01*
X125482832Y-125613475D01*
X125689675Y-125406632D01*
X125852190Y-125163411D01*
X125964132Y-124893158D01*
X126021200Y-124606260D01*
X126021200Y-124313740D01*
X125964132Y-124026842D01*
X125852190Y-123756589D01*
X125754243Y-123610000D01*
X128051928Y-123610000D01*
X128051928Y-125310000D01*
X128064188Y-125434482D01*
X128100498Y-125554180D01*
X128159463Y-125664494D01*
X128238815Y-125761185D01*
X128335506Y-125840537D01*
X128445820Y-125899502D01*
X128565518Y-125935812D01*
X128690000Y-125948072D01*
X130390000Y-125948072D01*
X130514482Y-125935812D01*
X130634180Y-125899502D01*
X130744494Y-125840537D01*
X130841185Y-125761185D01*
X130920537Y-125664494D01*
X130979502Y-125554180D01*
X131001513Y-125481620D01*
X131133368Y-125613475D01*
X131376589Y-125775990D01*
X131646842Y-125887932D01*
X131933740Y-125945000D01*
X132226260Y-125945000D01*
X132513158Y-125887932D01*
X132783411Y-125775990D01*
X133026632Y-125613475D01*
X133233475Y-125406632D01*
X133350000Y-125232240D01*
X133466525Y-125406632D01*
X133673368Y-125613475D01*
X133916589Y-125775990D01*
X134186842Y-125887932D01*
X134473740Y-125945000D01*
X134766260Y-125945000D01*
X135053158Y-125887932D01*
X135323411Y-125775990D01*
X135566632Y-125613475D01*
X135773475Y-125406632D01*
X135890000Y-125232240D01*
X136006525Y-125406632D01*
X136213368Y-125613475D01*
X136456589Y-125775990D01*
X136726842Y-125887932D01*
X137013740Y-125945000D01*
X137306260Y-125945000D01*
X137593158Y-125887932D01*
X137863411Y-125775990D01*
X138106632Y-125613475D01*
X138313475Y-125406632D01*
X138430000Y-125232240D01*
X138546525Y-125406632D01*
X138753368Y-125613475D01*
X138996589Y-125775990D01*
X139266842Y-125887932D01*
X139553740Y-125945000D01*
X139846260Y-125945000D01*
X140133158Y-125887932D01*
X140403411Y-125775990D01*
X140646632Y-125613475D01*
X140853475Y-125406632D01*
X140975195Y-125224466D01*
X141044822Y-125341355D01*
X141239731Y-125557588D01*
X141473080Y-125731641D01*
X141735901Y-125856825D01*
X141883110Y-125901476D01*
X142113000Y-125780155D01*
X142113000Y-124587000D01*
X142367000Y-124587000D01*
X142367000Y-125780155D01*
X142596890Y-125901476D01*
X142744099Y-125856825D01*
X143006920Y-125731641D01*
X143240269Y-125557588D01*
X143435178Y-125341355D01*
X143510000Y-125215745D01*
X143584822Y-125341355D01*
X143779731Y-125557588D01*
X144013080Y-125731641D01*
X144275901Y-125856825D01*
X144423110Y-125901476D01*
X144653000Y-125780155D01*
X144653000Y-124587000D01*
X142367000Y-124587000D01*
X142113000Y-124587000D01*
X142093000Y-124587000D01*
X142093000Y-124333000D01*
X142113000Y-124333000D01*
X142113000Y-123139845D01*
X142367000Y-123139845D01*
X142367000Y-124333000D01*
X144653000Y-124333000D01*
X144653000Y-123139845D01*
X144907000Y-123139845D01*
X144907000Y-124333000D01*
X144927000Y-124333000D01*
X144927000Y-124587000D01*
X144907000Y-124587000D01*
X144907000Y-125780155D01*
X145136890Y-125901476D01*
X145284099Y-125856825D01*
X145546920Y-125731641D01*
X145780269Y-125557588D01*
X145975178Y-125341355D01*
X146044805Y-125224466D01*
X146166525Y-125406632D01*
X146373368Y-125613475D01*
X146616589Y-125775990D01*
X146886842Y-125887932D01*
X147173740Y-125945000D01*
X147466260Y-125945000D01*
X147753158Y-125887932D01*
X148023411Y-125775990D01*
X148266632Y-125613475D01*
X148473475Y-125406632D01*
X148635990Y-125163411D01*
X148747932Y-124893158D01*
X148805000Y-124606260D01*
X148805000Y-124313740D01*
X148747932Y-124026842D01*
X148635990Y-123756589D01*
X148538043Y-123610000D01*
X150911928Y-123610000D01*
X150911928Y-125310000D01*
X150924188Y-125434482D01*
X150960498Y-125554180D01*
X151019463Y-125664494D01*
X151098815Y-125761185D01*
X151195506Y-125840537D01*
X151305820Y-125899502D01*
X151425518Y-125935812D01*
X151550000Y-125948072D01*
X153250000Y-125948072D01*
X153374482Y-125935812D01*
X153494180Y-125899502D01*
X153604494Y-125840537D01*
X153701185Y-125761185D01*
X153780537Y-125664494D01*
X153839502Y-125554180D01*
X153861513Y-125481620D01*
X153993368Y-125613475D01*
X154236589Y-125775990D01*
X154506842Y-125887932D01*
X154793740Y-125945000D01*
X155086260Y-125945000D01*
X155373158Y-125887932D01*
X155643411Y-125775990D01*
X155886632Y-125613475D01*
X156093475Y-125406632D01*
X156210000Y-125232240D01*
X156326525Y-125406632D01*
X156533368Y-125613475D01*
X156776589Y-125775990D01*
X157046842Y-125887932D01*
X157333740Y-125945000D01*
X157626260Y-125945000D01*
X157913158Y-125887932D01*
X158183411Y-125775990D01*
X158426632Y-125613475D01*
X158633475Y-125406632D01*
X158750000Y-125232240D01*
X158866525Y-125406632D01*
X159073368Y-125613475D01*
X159316589Y-125775990D01*
X159586842Y-125887932D01*
X159873740Y-125945000D01*
X160166260Y-125945000D01*
X160453158Y-125887932D01*
X160723411Y-125775990D01*
X160966632Y-125613475D01*
X161173475Y-125406632D01*
X161290000Y-125232240D01*
X161406525Y-125406632D01*
X161613368Y-125613475D01*
X161856589Y-125775990D01*
X162126842Y-125887932D01*
X162413740Y-125945000D01*
X162706260Y-125945000D01*
X162993158Y-125887932D01*
X163263411Y-125775990D01*
X163506632Y-125613475D01*
X163713475Y-125406632D01*
X163830000Y-125232240D01*
X163946525Y-125406632D01*
X164153368Y-125613475D01*
X164396589Y-125775990D01*
X164666842Y-125887932D01*
X164953740Y-125945000D01*
X165246260Y-125945000D01*
X165533158Y-125887932D01*
X165803411Y-125775990D01*
X166046632Y-125613475D01*
X166253475Y-125406632D01*
X166415990Y-125163411D01*
X166527932Y-124893158D01*
X166585000Y-124606260D01*
X166585000Y-124313740D01*
X166527932Y-124026842D01*
X166415990Y-123756589D01*
X166253475Y-123513368D01*
X166046632Y-123306525D01*
X165803411Y-123144010D01*
X165533158Y-123032068D01*
X165246260Y-122975000D01*
X164953740Y-122975000D01*
X164666842Y-123032068D01*
X164396589Y-123144010D01*
X164153368Y-123306525D01*
X163946525Y-123513368D01*
X163830000Y-123687760D01*
X163713475Y-123513368D01*
X163506632Y-123306525D01*
X163263411Y-123144010D01*
X162993158Y-123032068D01*
X162706260Y-122975000D01*
X162413740Y-122975000D01*
X162126842Y-123032068D01*
X161856589Y-123144010D01*
X161613368Y-123306525D01*
X161406525Y-123513368D01*
X161290000Y-123687760D01*
X161173475Y-123513368D01*
X160966632Y-123306525D01*
X160723411Y-123144010D01*
X160453158Y-123032068D01*
X160166260Y-122975000D01*
X159873740Y-122975000D01*
X159586842Y-123032068D01*
X159316589Y-123144010D01*
X159073368Y-123306525D01*
X158866525Y-123513368D01*
X158750000Y-123687760D01*
X158633475Y-123513368D01*
X158426632Y-123306525D01*
X158183411Y-123144010D01*
X157913158Y-123032068D01*
X157626260Y-122975000D01*
X157333740Y-122975000D01*
X157046842Y-123032068D01*
X156776589Y-123144010D01*
X156533368Y-123306525D01*
X156326525Y-123513368D01*
X156210000Y-123687760D01*
X156093475Y-123513368D01*
X155886632Y-123306525D01*
X155643411Y-123144010D01*
X155373158Y-123032068D01*
X155086260Y-122975000D01*
X154793740Y-122975000D01*
X154506842Y-123032068D01*
X154236589Y-123144010D01*
X153993368Y-123306525D01*
X153861513Y-123438380D01*
X153839502Y-123365820D01*
X153780537Y-123255506D01*
X153701185Y-123158815D01*
X153604494Y-123079463D01*
X153494180Y-123020498D01*
X153374482Y-122984188D01*
X153250000Y-122971928D01*
X151550000Y-122971928D01*
X151425518Y-122984188D01*
X151305820Y-123020498D01*
X151195506Y-123079463D01*
X151098815Y-123158815D01*
X151019463Y-123255506D01*
X150960498Y-123365820D01*
X150924188Y-123485518D01*
X150911928Y-123610000D01*
X148538043Y-123610000D01*
X148473475Y-123513368D01*
X148266632Y-123306525D01*
X148023411Y-123144010D01*
X147753158Y-123032068D01*
X147466260Y-122975000D01*
X147173740Y-122975000D01*
X146886842Y-123032068D01*
X146616589Y-123144010D01*
X146373368Y-123306525D01*
X146166525Y-123513368D01*
X146044805Y-123695534D01*
X145975178Y-123578645D01*
X145780269Y-123362412D01*
X145546920Y-123188359D01*
X145284099Y-123063175D01*
X145136890Y-123018524D01*
X144907000Y-123139845D01*
X144653000Y-123139845D01*
X144423110Y-123018524D01*
X144275901Y-123063175D01*
X144013080Y-123188359D01*
X143779731Y-123362412D01*
X143584822Y-123578645D01*
X143510000Y-123704255D01*
X143435178Y-123578645D01*
X143240269Y-123362412D01*
X143006920Y-123188359D01*
X142744099Y-123063175D01*
X142596890Y-123018524D01*
X142367000Y-123139845D01*
X142113000Y-123139845D01*
X141883110Y-123018524D01*
X141735901Y-123063175D01*
X141473080Y-123188359D01*
X141239731Y-123362412D01*
X141044822Y-123578645D01*
X140975195Y-123695534D01*
X140853475Y-123513368D01*
X140646632Y-123306525D01*
X140403411Y-123144010D01*
X140133158Y-123032068D01*
X139846260Y-122975000D01*
X139553740Y-122975000D01*
X139266842Y-123032068D01*
X138996589Y-123144010D01*
X138753368Y-123306525D01*
X138546525Y-123513368D01*
X138430000Y-123687760D01*
X138313475Y-123513368D01*
X138106632Y-123306525D01*
X137863411Y-123144010D01*
X137593158Y-123032068D01*
X137306260Y-122975000D01*
X137013740Y-122975000D01*
X136726842Y-123032068D01*
X136456589Y-123144010D01*
X136213368Y-123306525D01*
X136006525Y-123513368D01*
X135890000Y-123687760D01*
X135773475Y-123513368D01*
X135566632Y-123306525D01*
X135323411Y-123144010D01*
X135053158Y-123032068D01*
X134766260Y-122975000D01*
X134473740Y-122975000D01*
X134186842Y-123032068D01*
X133916589Y-123144010D01*
X133673368Y-123306525D01*
X133466525Y-123513368D01*
X133350000Y-123687760D01*
X133233475Y-123513368D01*
X133026632Y-123306525D01*
X132783411Y-123144010D01*
X132513158Y-123032068D01*
X132226260Y-122975000D01*
X131933740Y-122975000D01*
X131646842Y-123032068D01*
X131376589Y-123144010D01*
X131133368Y-123306525D01*
X131001513Y-123438380D01*
X130979502Y-123365820D01*
X130920537Y-123255506D01*
X130841185Y-123158815D01*
X130744494Y-123079463D01*
X130634180Y-123020498D01*
X130514482Y-122984188D01*
X130390000Y-122971928D01*
X128690000Y-122971928D01*
X128565518Y-122984188D01*
X128445820Y-123020498D01*
X128335506Y-123079463D01*
X128238815Y-123158815D01*
X128159463Y-123255506D01*
X128100498Y-123365820D01*
X128064188Y-123485518D01*
X128051928Y-123610000D01*
X125754243Y-123610000D01*
X125689675Y-123513368D01*
X125482832Y-123306525D01*
X125239611Y-123144010D01*
X124969358Y-123032068D01*
X124682460Y-122975000D01*
X124389940Y-122975000D01*
X124103042Y-123032068D01*
X123832789Y-123144010D01*
X123589568Y-123306525D01*
X123457713Y-123438380D01*
X123435702Y-123365820D01*
X123376737Y-123255506D01*
X123297385Y-123158815D01*
X123200694Y-123079463D01*
X123090380Y-123020498D01*
X122970682Y-122984188D01*
X122846200Y-122971928D01*
X121146200Y-122971928D01*
X121021718Y-122984188D01*
X120902020Y-123020498D01*
X120791706Y-123079463D01*
X120695015Y-123158815D01*
X120615663Y-123255506D01*
X120556698Y-123365820D01*
X120520388Y-123485518D01*
X120508128Y-123610000D01*
X117637065Y-123610000D01*
X117550631Y-123401331D01*
X117306038Y-123035271D01*
X116994729Y-122723962D01*
X116628669Y-122479369D01*
X116221925Y-122310890D01*
X115790128Y-122225000D01*
X115349872Y-122225000D01*
X114918075Y-122310890D01*
X114511331Y-122479369D01*
X114145271Y-122723962D01*
X113833962Y-123035271D01*
X113589369Y-123401331D01*
X113420890Y-123808075D01*
X113335000Y-124239872D01*
X113335000Y-124680128D01*
X113420890Y-125111925D01*
X113589369Y-125518669D01*
X113833962Y-125884729D01*
X114145271Y-126196038D01*
X114360726Y-126340000D01*
X102260000Y-126340000D01*
X102260000Y-117431117D01*
X105707000Y-117431117D01*
X105707000Y-117772883D01*
X105773675Y-118108081D01*
X105904463Y-118423831D01*
X106094337Y-118707998D01*
X106336002Y-118949663D01*
X106620169Y-119139537D01*
X106935919Y-119270325D01*
X107271117Y-119337000D01*
X107612883Y-119337000D01*
X107948081Y-119270325D01*
X108263831Y-119139537D01*
X108547998Y-118949663D01*
X108789663Y-118707998D01*
X108979537Y-118423831D01*
X109110325Y-118108081D01*
X109177000Y-117772883D01*
X109177000Y-117431117D01*
X155999000Y-117431117D01*
X155999000Y-117772883D01*
X156065675Y-118108081D01*
X156196463Y-118423831D01*
X156386337Y-118707998D01*
X156628002Y-118949663D01*
X156912169Y-119139537D01*
X157227919Y-119270325D01*
X157563117Y-119337000D01*
X157904883Y-119337000D01*
X158240081Y-119270325D01*
X158555831Y-119139537D01*
X158839998Y-118949663D01*
X159081663Y-118707998D01*
X159271537Y-118423831D01*
X159402325Y-118108081D01*
X159469000Y-117772883D01*
X159469000Y-117431117D01*
X159402325Y-117095919D01*
X159271537Y-116780169D01*
X159081663Y-116496002D01*
X158839998Y-116254337D01*
X158555831Y-116064463D01*
X158240081Y-115933675D01*
X157904883Y-115867000D01*
X157563117Y-115867000D01*
X157227919Y-115933675D01*
X156912169Y-116064463D01*
X156628002Y-116254337D01*
X156386337Y-116496002D01*
X156196463Y-116780169D01*
X156065675Y-117095919D01*
X155999000Y-117431117D01*
X109177000Y-117431117D01*
X109110325Y-117095919D01*
X108979537Y-116780169D01*
X108789663Y-116496002D01*
X108547998Y-116254337D01*
X108263831Y-116064463D01*
X107948081Y-115933675D01*
X107612883Y-115867000D01*
X107271117Y-115867000D01*
X106935919Y-115933675D01*
X106620169Y-116064463D01*
X106336002Y-116254337D01*
X106094337Y-116496002D01*
X105904463Y-116780169D01*
X105773675Y-117095919D01*
X105707000Y-117431117D01*
X102260000Y-117431117D01*
X102260000Y-109546920D01*
X102687244Y-109546920D01*
X102690920Y-109584242D01*
X102690920Y-109584252D01*
X102701917Y-109695905D01*
X102742958Y-109831202D01*
X102745374Y-109839166D01*
X102815946Y-109971196D01*
X102856984Y-110021200D01*
X102910919Y-110086920D01*
X102939917Y-110110718D01*
X104285752Y-111456554D01*
X104132597Y-111826304D01*
X104040940Y-112287092D01*
X104040940Y-112756908D01*
X104132597Y-113217696D01*
X104312387Y-113651749D01*
X104573403Y-114042387D01*
X104905613Y-114374597D01*
X105296251Y-114635613D01*
X105730304Y-114815403D01*
X106191092Y-114907060D01*
X106660908Y-114907060D01*
X107121696Y-114815403D01*
X107555749Y-114635613D01*
X107946387Y-114374597D01*
X108278597Y-114042387D01*
X108539613Y-113651749D01*
X108719403Y-113217696D01*
X108811060Y-112756908D01*
X108811060Y-112287092D01*
X108719403Y-111826304D01*
X108566248Y-111456554D01*
X109540503Y-110482299D01*
X109569501Y-110458501D01*
X109595832Y-110426417D01*
X109664474Y-110342777D01*
X109735046Y-110210747D01*
X109743798Y-110181894D01*
X109778503Y-110067486D01*
X109789500Y-109955833D01*
X109789500Y-109955823D01*
X109793176Y-109918501D01*
X109789500Y-109881178D01*
X109789500Y-107312301D01*
X110158782Y-106943020D01*
X159970219Y-106943020D01*
X160276001Y-107248802D01*
X160276000Y-108293677D01*
X160272324Y-108331000D01*
X160276000Y-108368322D01*
X160276000Y-108368332D01*
X160286997Y-108479985D01*
X160325614Y-108607290D01*
X160330454Y-108623246D01*
X160401026Y-108755276D01*
X160423979Y-108783244D01*
X160495999Y-108871001D01*
X160525002Y-108894803D01*
X161361201Y-109731003D01*
X161384999Y-109760001D01*
X161500724Y-109854974D01*
X161632753Y-109925546D01*
X161776014Y-109969003D01*
X161887667Y-109980000D01*
X161887677Y-109980000D01*
X161925000Y-109983676D01*
X161962323Y-109980000D01*
X162043822Y-109980000D01*
X162168525Y-110166632D01*
X162375368Y-110373475D01*
X162549760Y-110490000D01*
X162375368Y-110606525D01*
X162168525Y-110813368D01*
X162006010Y-111056589D01*
X161894068Y-111326842D01*
X161837000Y-111613740D01*
X161837000Y-111906260D01*
X161894068Y-112193158D01*
X162006010Y-112463411D01*
X162168525Y-112706632D01*
X162375368Y-112913475D01*
X162618589Y-113075990D01*
X162888842Y-113187932D01*
X163175740Y-113245000D01*
X163468260Y-113245000D01*
X163755158Y-113187932D01*
X164025411Y-113075990D01*
X164268632Y-112913475D01*
X164475475Y-112706632D01*
X164593100Y-112530594D01*
X164764412Y-112760269D01*
X164980645Y-112955178D01*
X165230748Y-113104157D01*
X165505109Y-113201481D01*
X165735000Y-113080814D01*
X165735000Y-111887000D01*
X165989000Y-111887000D01*
X165989000Y-113080814D01*
X166218891Y-113201481D01*
X166493252Y-113104157D01*
X166743355Y-112955178D01*
X166959588Y-112760269D01*
X167133641Y-112526920D01*
X167258825Y-112264099D01*
X167303476Y-112116890D01*
X167182155Y-111887000D01*
X165989000Y-111887000D01*
X165735000Y-111887000D01*
X165715000Y-111887000D01*
X165715000Y-111633000D01*
X165735000Y-111633000D01*
X165735000Y-111613000D01*
X165989000Y-111613000D01*
X165989000Y-111633000D01*
X167182155Y-111633000D01*
X167303476Y-111403110D01*
X167258825Y-111255901D01*
X167133641Y-110993080D01*
X167034987Y-110860816D01*
X168347018Y-109548787D01*
X168376010Y-109524994D01*
X168399804Y-109496001D01*
X168399808Y-109495997D01*
X168470982Y-109409270D01*
X168470983Y-109409269D01*
X168541555Y-109277240D01*
X168585012Y-109133979D01*
X168596009Y-109022326D01*
X168596009Y-109022317D01*
X168599685Y-108984994D01*
X168596009Y-108947671D01*
X168596009Y-105641922D01*
X168599685Y-105604599D01*
X168596009Y-105567276D01*
X168596009Y-105567266D01*
X168585012Y-105455613D01*
X168541555Y-105312352D01*
X168524261Y-105279997D01*
X168470983Y-105180322D01*
X168399808Y-105093596D01*
X168376010Y-105064598D01*
X168347011Y-105040800D01*
X167628203Y-104321992D01*
X167604401Y-104292989D01*
X167488676Y-104198016D01*
X167356647Y-104127444D01*
X167213386Y-104083987D01*
X167101733Y-104072990D01*
X167101722Y-104072990D01*
X167064400Y-104069314D01*
X167027078Y-104072990D01*
X110227792Y-104072990D01*
X109853000Y-103698199D01*
X109853000Y-101891322D01*
X109856676Y-101853999D01*
X109853000Y-101816676D01*
X109853000Y-101816667D01*
X109842003Y-101705014D01*
X109798546Y-101561753D01*
X109728916Y-101431486D01*
X109727974Y-101429723D01*
X109656799Y-101342997D01*
X109633001Y-101313999D01*
X109604002Y-101290200D01*
X109085303Y-100771502D01*
X109085299Y-100771497D01*
X108566248Y-100252446D01*
X108719403Y-99882696D01*
X108811060Y-99421908D01*
X108811060Y-98952092D01*
X108719403Y-98491304D01*
X108566248Y-98121554D01*
X109350004Y-97337798D01*
X109379001Y-97314001D01*
X109473974Y-97198276D01*
X109544546Y-97066247D01*
X109588003Y-96922986D01*
X109599000Y-96811333D01*
X109599000Y-96811324D01*
X109602676Y-96774001D01*
X109599000Y-96736678D01*
X109599000Y-95183801D01*
X110550802Y-94232000D01*
X117052928Y-94232000D01*
X117052928Y-94272000D01*
X117065188Y-94396482D01*
X117101498Y-94516180D01*
X117160463Y-94626494D01*
X117239815Y-94723185D01*
X117336506Y-94802537D01*
X117446820Y-94861502D01*
X117566518Y-94897812D01*
X117691000Y-94910072D01*
X119291000Y-94910072D01*
X119415482Y-94897812D01*
X119535180Y-94861502D01*
X119645494Y-94802537D01*
X119742185Y-94723185D01*
X119821537Y-94626494D01*
X119880502Y-94516180D01*
X119916812Y-94396482D01*
X119917643Y-94388039D01*
X120116241Y-94586637D01*
X120351273Y-94743680D01*
X120612426Y-94851853D01*
X120889665Y-94907000D01*
X121172335Y-94907000D01*
X121449574Y-94851853D01*
X121710727Y-94743680D01*
X121945759Y-94586637D01*
X122145637Y-94386759D01*
X122301000Y-94154241D01*
X122456363Y-94386759D01*
X122656241Y-94586637D01*
X122891273Y-94743680D01*
X123152426Y-94851853D01*
X123429665Y-94907000D01*
X123712335Y-94907000D01*
X123989574Y-94851853D01*
X124250727Y-94743680D01*
X124485759Y-94586637D01*
X124685637Y-94386759D01*
X124841000Y-94154241D01*
X124996363Y-94386759D01*
X125196241Y-94586637D01*
X125431273Y-94743680D01*
X125692426Y-94851853D01*
X125969665Y-94907000D01*
X126252335Y-94907000D01*
X126529574Y-94851853D01*
X126790727Y-94743680D01*
X127025759Y-94586637D01*
X127225637Y-94386759D01*
X127381000Y-94154241D01*
X127536363Y-94386759D01*
X127736241Y-94586637D01*
X127971273Y-94743680D01*
X128232426Y-94851853D01*
X128509665Y-94907000D01*
X128792335Y-94907000D01*
X129069574Y-94851853D01*
X129330727Y-94743680D01*
X129565759Y-94586637D01*
X129765637Y-94386759D01*
X129921000Y-94154241D01*
X130076363Y-94386759D01*
X130276241Y-94586637D01*
X130511273Y-94743680D01*
X130772426Y-94851853D01*
X131049665Y-94907000D01*
X131332335Y-94907000D01*
X131609574Y-94851853D01*
X131870727Y-94743680D01*
X132105759Y-94586637D01*
X132305637Y-94386759D01*
X132461000Y-94154241D01*
X132616363Y-94386759D01*
X132816241Y-94586637D01*
X133051273Y-94743680D01*
X133312426Y-94851853D01*
X133589665Y-94907000D01*
X133872335Y-94907000D01*
X134149574Y-94851853D01*
X134410727Y-94743680D01*
X134645759Y-94586637D01*
X134845637Y-94386759D01*
X135002680Y-94151727D01*
X135007067Y-94141135D01*
X135118615Y-94327131D01*
X135307586Y-94535519D01*
X135533580Y-94703037D01*
X135787913Y-94823246D01*
X135921961Y-94863904D01*
X136144000Y-94741915D01*
X136144000Y-93599000D01*
X136124000Y-93599000D01*
X136124000Y-93345000D01*
X136144000Y-93345000D01*
X136144000Y-92202085D01*
X136398000Y-92202085D01*
X136398000Y-93345000D01*
X136418000Y-93345000D01*
X136418000Y-93599000D01*
X136398000Y-93599000D01*
X136398000Y-94741915D01*
X136620039Y-94863904D01*
X136754087Y-94823246D01*
X137008420Y-94703037D01*
X137234414Y-94535519D01*
X137423385Y-94327131D01*
X137534933Y-94141135D01*
X137539320Y-94151727D01*
X137696363Y-94386759D01*
X137896241Y-94586637D01*
X138131273Y-94743680D01*
X138392426Y-94851853D01*
X138669665Y-94907000D01*
X138952335Y-94907000D01*
X139229574Y-94851853D01*
X139490727Y-94743680D01*
X139725759Y-94586637D01*
X139925637Y-94386759D01*
X140081000Y-94154241D01*
X140236363Y-94386759D01*
X140436241Y-94586637D01*
X140671273Y-94743680D01*
X140932426Y-94851853D01*
X141209665Y-94907000D01*
X141492335Y-94907000D01*
X141769574Y-94851853D01*
X142030727Y-94743680D01*
X142265759Y-94586637D01*
X142465637Y-94386759D01*
X142621000Y-94154241D01*
X142776363Y-94386759D01*
X142976241Y-94586637D01*
X143211273Y-94743680D01*
X143472426Y-94851853D01*
X143749665Y-94907000D01*
X144032335Y-94907000D01*
X144309574Y-94851853D01*
X144570727Y-94743680D01*
X144805759Y-94586637D01*
X145005637Y-94386759D01*
X145161000Y-94154241D01*
X145316363Y-94386759D01*
X145516241Y-94586637D01*
X145751273Y-94743680D01*
X146012426Y-94851853D01*
X146289665Y-94907000D01*
X146572335Y-94907000D01*
X146849574Y-94851853D01*
X147110727Y-94743680D01*
X147345759Y-94586637D01*
X147545637Y-94386759D01*
X147701000Y-94154241D01*
X147856363Y-94386759D01*
X148056241Y-94586637D01*
X148291273Y-94743680D01*
X148552426Y-94851853D01*
X148829665Y-94907000D01*
X149112335Y-94907000D01*
X149389574Y-94851853D01*
X149650727Y-94743680D01*
X149885759Y-94586637D01*
X150085637Y-94386759D01*
X150241000Y-94154241D01*
X150396363Y-94386759D01*
X150596241Y-94586637D01*
X150831273Y-94743680D01*
X151092426Y-94851853D01*
X151369665Y-94907000D01*
X151652335Y-94907000D01*
X151929574Y-94851853D01*
X152190727Y-94743680D01*
X152425759Y-94586637D01*
X152625637Y-94386759D01*
X152782680Y-94151727D01*
X152890853Y-93890574D01*
X152946000Y-93613335D01*
X152946000Y-93330665D01*
X152890853Y-93053426D01*
X152782680Y-92792273D01*
X152625637Y-92557241D01*
X152425759Y-92357363D01*
X152190727Y-92200320D01*
X151929574Y-92092147D01*
X151652335Y-92037000D01*
X151369665Y-92037000D01*
X151092426Y-92092147D01*
X150831273Y-92200320D01*
X150596241Y-92357363D01*
X150396363Y-92557241D01*
X150241000Y-92789759D01*
X150085637Y-92557241D01*
X149885759Y-92357363D01*
X149650727Y-92200320D01*
X149389574Y-92092147D01*
X149112335Y-92037000D01*
X148829665Y-92037000D01*
X148552426Y-92092147D01*
X148291273Y-92200320D01*
X148056241Y-92357363D01*
X147856363Y-92557241D01*
X147701000Y-92789759D01*
X147545637Y-92557241D01*
X147345759Y-92357363D01*
X147110727Y-92200320D01*
X146849574Y-92092147D01*
X146572335Y-92037000D01*
X146289665Y-92037000D01*
X146012426Y-92092147D01*
X145751273Y-92200320D01*
X145516241Y-92357363D01*
X145316363Y-92557241D01*
X145161000Y-92789759D01*
X145005637Y-92557241D01*
X144805759Y-92357363D01*
X144570727Y-92200320D01*
X144309574Y-92092147D01*
X144032335Y-92037000D01*
X143749665Y-92037000D01*
X143472426Y-92092147D01*
X143211273Y-92200320D01*
X142976241Y-92357363D01*
X142776363Y-92557241D01*
X142621000Y-92789759D01*
X142465637Y-92557241D01*
X142265759Y-92357363D01*
X142030727Y-92200320D01*
X141769574Y-92092147D01*
X141492335Y-92037000D01*
X141209665Y-92037000D01*
X140932426Y-92092147D01*
X140671273Y-92200320D01*
X140436241Y-92357363D01*
X140236363Y-92557241D01*
X140081000Y-92789759D01*
X139925637Y-92557241D01*
X139725759Y-92357363D01*
X139490727Y-92200320D01*
X139229574Y-92092147D01*
X138952335Y-92037000D01*
X138669665Y-92037000D01*
X138392426Y-92092147D01*
X138131273Y-92200320D01*
X137896241Y-92357363D01*
X137696363Y-92557241D01*
X137539320Y-92792273D01*
X137534933Y-92802865D01*
X137423385Y-92616869D01*
X137234414Y-92408481D01*
X137008420Y-92240963D01*
X136754087Y-92120754D01*
X136620039Y-92080096D01*
X136398000Y-92202085D01*
X136144000Y-92202085D01*
X135921961Y-92080096D01*
X135787913Y-92120754D01*
X135533580Y-92240963D01*
X135307586Y-92408481D01*
X135118615Y-92616869D01*
X135007067Y-92802865D01*
X135002680Y-92792273D01*
X134845637Y-92557241D01*
X134645759Y-92357363D01*
X134410727Y-92200320D01*
X134149574Y-92092147D01*
X133872335Y-92037000D01*
X133589665Y-92037000D01*
X133312426Y-92092147D01*
X133051273Y-92200320D01*
X132816241Y-92357363D01*
X132616363Y-92557241D01*
X132461000Y-92789759D01*
X132305637Y-92557241D01*
X132105759Y-92357363D01*
X131870727Y-92200320D01*
X131609574Y-92092147D01*
X131332335Y-92037000D01*
X131049665Y-92037000D01*
X130772426Y-92092147D01*
X130511273Y-92200320D01*
X130276241Y-92357363D01*
X130076363Y-92557241D01*
X129921000Y-92789759D01*
X129765637Y-92557241D01*
X129565759Y-92357363D01*
X129330727Y-92200320D01*
X129069574Y-92092147D01*
X128792335Y-92037000D01*
X128509665Y-92037000D01*
X128232426Y-92092147D01*
X127971273Y-92200320D01*
X127736241Y-92357363D01*
X127536363Y-92557241D01*
X127381000Y-92789759D01*
X127225637Y-92557241D01*
X127025759Y-92357363D01*
X126790727Y-92200320D01*
X126529574Y-92092147D01*
X126252335Y-92037000D01*
X125969665Y-92037000D01*
X125692426Y-92092147D01*
X125431273Y-92200320D01*
X125196241Y-92357363D01*
X124996363Y-92557241D01*
X124841000Y-92789759D01*
X124685637Y-92557241D01*
X124485759Y-92357363D01*
X124250727Y-92200320D01*
X123989574Y-92092147D01*
X123712335Y-92037000D01*
X123429665Y-92037000D01*
X123152426Y-92092147D01*
X122891273Y-92200320D01*
X122656241Y-92357363D01*
X122456363Y-92557241D01*
X122301000Y-92789759D01*
X122145637Y-92557241D01*
X121945759Y-92357363D01*
X121710727Y-92200320D01*
X121449574Y-92092147D01*
X121172335Y-92037000D01*
X120889665Y-92037000D01*
X120612426Y-92092147D01*
X120376001Y-92190077D01*
X120376001Y-87133923D01*
X120612426Y-87231853D01*
X120889665Y-87287000D01*
X121172335Y-87287000D01*
X121449574Y-87231853D01*
X121710727Y-87123680D01*
X121945759Y-86966637D01*
X122145637Y-86766759D01*
X122301000Y-86534241D01*
X122456363Y-86766759D01*
X122656241Y-86966637D01*
X122891273Y-87123680D01*
X123152426Y-87231853D01*
X123429665Y-87287000D01*
X123712335Y-87287000D01*
X123989574Y-87231853D01*
X124250727Y-87123680D01*
X124485759Y-86966637D01*
X124685637Y-86766759D01*
X124841000Y-86534241D01*
X124996363Y-86766759D01*
X125196241Y-86966637D01*
X125431273Y-87123680D01*
X125692426Y-87231853D01*
X125969665Y-87287000D01*
X126252335Y-87287000D01*
X126529574Y-87231853D01*
X126790727Y-87123680D01*
X127025759Y-86966637D01*
X127225637Y-86766759D01*
X127381000Y-86534241D01*
X127536363Y-86766759D01*
X127736241Y-86966637D01*
X127971273Y-87123680D01*
X128232426Y-87231853D01*
X128509665Y-87287000D01*
X128792335Y-87287000D01*
X129069574Y-87231853D01*
X129330727Y-87123680D01*
X129565759Y-86966637D01*
X129765637Y-86766759D01*
X129921000Y-86534241D01*
X130076363Y-86766759D01*
X130276241Y-86966637D01*
X130511273Y-87123680D01*
X130772426Y-87231853D01*
X131049665Y-87287000D01*
X131332335Y-87287000D01*
X131609574Y-87231853D01*
X131870727Y-87123680D01*
X132105759Y-86966637D01*
X132305637Y-86766759D01*
X132462680Y-86531727D01*
X132467067Y-86521135D01*
X132578615Y-86707131D01*
X132767586Y-86915519D01*
X132993580Y-87083037D01*
X133247913Y-87203246D01*
X133381961Y-87243904D01*
X133604000Y-87121915D01*
X133604000Y-85979000D01*
X133584000Y-85979000D01*
X133584000Y-85725000D01*
X133604000Y-85725000D01*
X133604000Y-84582085D01*
X133858000Y-84582085D01*
X133858000Y-85725000D01*
X133878000Y-85725000D01*
X133878000Y-85979000D01*
X133858000Y-85979000D01*
X133858000Y-87121915D01*
X134080039Y-87243904D01*
X134214087Y-87203246D01*
X134468420Y-87083037D01*
X134694414Y-86915519D01*
X134883385Y-86707131D01*
X134994933Y-86521135D01*
X134999320Y-86531727D01*
X135156363Y-86766759D01*
X135356241Y-86966637D01*
X135591273Y-87123680D01*
X135852426Y-87231853D01*
X136129665Y-87287000D01*
X136412335Y-87287000D01*
X136689574Y-87231853D01*
X136950727Y-87123680D01*
X137185759Y-86966637D01*
X137385637Y-86766759D01*
X137541000Y-86534241D01*
X137696363Y-86766759D01*
X137896241Y-86966637D01*
X138131273Y-87123680D01*
X138392426Y-87231853D01*
X138669665Y-87287000D01*
X138952335Y-87287000D01*
X139229574Y-87231853D01*
X139490727Y-87123680D01*
X139725759Y-86966637D01*
X139925637Y-86766759D01*
X140081000Y-86534241D01*
X140236363Y-86766759D01*
X140436241Y-86966637D01*
X140671273Y-87123680D01*
X140932426Y-87231853D01*
X141209665Y-87287000D01*
X141492335Y-87287000D01*
X141769574Y-87231853D01*
X142030727Y-87123680D01*
X142265759Y-86966637D01*
X142465637Y-86766759D01*
X142621000Y-86534241D01*
X142776363Y-86766759D01*
X142976241Y-86966637D01*
X143211273Y-87123680D01*
X143472426Y-87231853D01*
X143749665Y-87287000D01*
X144032335Y-87287000D01*
X144309574Y-87231853D01*
X144570727Y-87123680D01*
X144805759Y-86966637D01*
X145005637Y-86766759D01*
X145161000Y-86534241D01*
X145316363Y-86766759D01*
X145516241Y-86966637D01*
X145751273Y-87123680D01*
X146012426Y-87231853D01*
X146289665Y-87287000D01*
X146572335Y-87287000D01*
X146849574Y-87231853D01*
X147110727Y-87123680D01*
X147345759Y-86966637D01*
X147545637Y-86766759D01*
X147701000Y-86534241D01*
X147856363Y-86766759D01*
X148056241Y-86966637D01*
X148291273Y-87123680D01*
X148552426Y-87231853D01*
X148829665Y-87287000D01*
X149112335Y-87287000D01*
X149389574Y-87231853D01*
X149650727Y-87123680D01*
X149885759Y-86966637D01*
X150085637Y-86766759D01*
X150241000Y-86534241D01*
X150396363Y-86766759D01*
X150596241Y-86966637D01*
X150831273Y-87123680D01*
X151092426Y-87231853D01*
X151369665Y-87287000D01*
X151652335Y-87287000D01*
X151929574Y-87231853D01*
X152190727Y-87123680D01*
X152425759Y-86966637D01*
X152625637Y-86766759D01*
X152782680Y-86531727D01*
X152890853Y-86270574D01*
X152946000Y-85993335D01*
X152946000Y-85710665D01*
X152890853Y-85433426D01*
X152782680Y-85172273D01*
X152625637Y-84937241D01*
X152425759Y-84737363D01*
X152190727Y-84580320D01*
X151929574Y-84472147D01*
X151652335Y-84417000D01*
X151369665Y-84417000D01*
X151092426Y-84472147D01*
X150831273Y-84580320D01*
X150596241Y-84737363D01*
X150396363Y-84937241D01*
X150241000Y-85169759D01*
X150085637Y-84937241D01*
X149885759Y-84737363D01*
X149650727Y-84580320D01*
X149389574Y-84472147D01*
X149112335Y-84417000D01*
X148829665Y-84417000D01*
X148552426Y-84472147D01*
X148291273Y-84580320D01*
X148056241Y-84737363D01*
X147856363Y-84937241D01*
X147701000Y-85169759D01*
X147545637Y-84937241D01*
X147345759Y-84737363D01*
X147110727Y-84580320D01*
X146849574Y-84472147D01*
X146572335Y-84417000D01*
X146289665Y-84417000D01*
X146012426Y-84472147D01*
X145751273Y-84580320D01*
X145516241Y-84737363D01*
X145316363Y-84937241D01*
X145161000Y-85169759D01*
X145005637Y-84937241D01*
X144805759Y-84737363D01*
X144570727Y-84580320D01*
X144309574Y-84472147D01*
X144032335Y-84417000D01*
X143749665Y-84417000D01*
X143472426Y-84472147D01*
X143211273Y-84580320D01*
X142976241Y-84737363D01*
X142776363Y-84937241D01*
X142621000Y-85169759D01*
X142465637Y-84937241D01*
X142265759Y-84737363D01*
X142030727Y-84580320D01*
X141769574Y-84472147D01*
X141492335Y-84417000D01*
X141209665Y-84417000D01*
X140932426Y-84472147D01*
X140671273Y-84580320D01*
X140436241Y-84737363D01*
X140236363Y-84937241D01*
X140081000Y-85169759D01*
X139925637Y-84937241D01*
X139725759Y-84737363D01*
X139490727Y-84580320D01*
X139229574Y-84472147D01*
X138952335Y-84417000D01*
X138669665Y-84417000D01*
X138392426Y-84472147D01*
X138131273Y-84580320D01*
X137896241Y-84737363D01*
X137696363Y-84937241D01*
X137541000Y-85169759D01*
X137385637Y-84937241D01*
X137185759Y-84737363D01*
X136950727Y-84580320D01*
X136689574Y-84472147D01*
X136412335Y-84417000D01*
X136129665Y-84417000D01*
X135852426Y-84472147D01*
X135591273Y-84580320D01*
X135356241Y-84737363D01*
X135156363Y-84937241D01*
X134999320Y-85172273D01*
X134994933Y-85182865D01*
X134883385Y-84996869D01*
X134694414Y-84788481D01*
X134468420Y-84620963D01*
X134214087Y-84500754D01*
X134080039Y-84460096D01*
X133858000Y-84582085D01*
X133604000Y-84582085D01*
X133381961Y-84460096D01*
X133247913Y-84500754D01*
X132993580Y-84620963D01*
X132767586Y-84788481D01*
X132578615Y-84996869D01*
X132467067Y-85182865D01*
X132462680Y-85172273D01*
X132305637Y-84937241D01*
X132105759Y-84737363D01*
X131870727Y-84580320D01*
X131609574Y-84472147D01*
X131332335Y-84417000D01*
X131049665Y-84417000D01*
X130772426Y-84472147D01*
X130511273Y-84580320D01*
X130276241Y-84737363D01*
X130076363Y-84937241D01*
X129921000Y-85169759D01*
X129765637Y-84937241D01*
X129565759Y-84737363D01*
X129330727Y-84580320D01*
X129069574Y-84472147D01*
X128792335Y-84417000D01*
X128509665Y-84417000D01*
X128232426Y-84472147D01*
X127971273Y-84580320D01*
X127736241Y-84737363D01*
X127536363Y-84937241D01*
X127381000Y-85169759D01*
X127225637Y-84937241D01*
X127025759Y-84737363D01*
X126790727Y-84580320D01*
X126529574Y-84472147D01*
X126252335Y-84417000D01*
X125969665Y-84417000D01*
X125692426Y-84472147D01*
X125431273Y-84580320D01*
X125196241Y-84737363D01*
X124996363Y-84937241D01*
X124841000Y-85169759D01*
X124685637Y-84937241D01*
X124485759Y-84737363D01*
X124250727Y-84580320D01*
X123989574Y-84472147D01*
X123712335Y-84417000D01*
X123429665Y-84417000D01*
X123152426Y-84472147D01*
X122891273Y-84580320D01*
X122656241Y-84737363D01*
X122456363Y-84937241D01*
X122301000Y-85169759D01*
X122145637Y-84937241D01*
X121945759Y-84737363D01*
X121710727Y-84580320D01*
X121449574Y-84472147D01*
X121172335Y-84417000D01*
X120889665Y-84417000D01*
X120612426Y-84472147D01*
X120376001Y-84570077D01*
X120376001Y-82247800D01*
X121022792Y-81601010D01*
X135656668Y-81601010D01*
X135693990Y-81604686D01*
X135731312Y-81601010D01*
X135731323Y-81601010D01*
X135842976Y-81590013D01*
X135986237Y-81546556D01*
X136118266Y-81475984D01*
X136233991Y-81381011D01*
X136248676Y-81363117D01*
X155999000Y-81363117D01*
X155999000Y-81704883D01*
X156065675Y-82040081D01*
X156196463Y-82355831D01*
X156386337Y-82639998D01*
X156628002Y-82881663D01*
X156912169Y-83071537D01*
X157227919Y-83202325D01*
X157563117Y-83269000D01*
X157904883Y-83269000D01*
X158240081Y-83202325D01*
X158555831Y-83071537D01*
X158839998Y-82881663D01*
X159081663Y-82639998D01*
X159271537Y-82355831D01*
X159402325Y-82040081D01*
X159469000Y-81704883D01*
X159469000Y-81363117D01*
X159402325Y-81027919D01*
X159271537Y-80712169D01*
X159081663Y-80428002D01*
X158839998Y-80186337D01*
X158555831Y-79996463D01*
X158240081Y-79865675D01*
X157904883Y-79799000D01*
X157563117Y-79799000D01*
X157227919Y-79865675D01*
X156912169Y-79996463D01*
X156628002Y-80186337D01*
X156386337Y-80428002D01*
X156196463Y-80712169D01*
X156065675Y-81027919D01*
X155999000Y-81363117D01*
X136248676Y-81363117D01*
X136257794Y-81352007D01*
X138687004Y-78922798D01*
X138716001Y-78899001D01*
X138810974Y-78783276D01*
X138881546Y-78651247D01*
X138925003Y-78507986D01*
X138936000Y-78396333D01*
X138936000Y-78396324D01*
X138939676Y-78359001D01*
X138936000Y-78321678D01*
X138936000Y-77478178D01*
X139122632Y-77353475D01*
X139329475Y-77146632D01*
X139446000Y-76972240D01*
X139562525Y-77146632D01*
X139769368Y-77353475D01*
X140012589Y-77515990D01*
X140282842Y-77627932D01*
X140569740Y-77685000D01*
X140862260Y-77685000D01*
X141149158Y-77627932D01*
X141419411Y-77515990D01*
X141662632Y-77353475D01*
X141794487Y-77221620D01*
X141816498Y-77294180D01*
X141875463Y-77404494D01*
X141954815Y-77501185D01*
X142051506Y-77580537D01*
X142161820Y-77639502D01*
X142281518Y-77675812D01*
X142406000Y-77688072D01*
X144106000Y-77688072D01*
X144230482Y-77675812D01*
X144350180Y-77639502D01*
X144460494Y-77580537D01*
X144557185Y-77501185D01*
X144636537Y-77404494D01*
X144695502Y-77294180D01*
X144731812Y-77174482D01*
X144744072Y-77050000D01*
X144744072Y-76053740D01*
X145835000Y-76053740D01*
X145835000Y-76346260D01*
X145892068Y-76633158D01*
X146004010Y-76903411D01*
X146166525Y-77146632D01*
X146373368Y-77353475D01*
X146616589Y-77515990D01*
X146886842Y-77627932D01*
X147173740Y-77685000D01*
X147466260Y-77685000D01*
X147753158Y-77627932D01*
X148023411Y-77515990D01*
X148266632Y-77353475D01*
X148473475Y-77146632D01*
X148590000Y-76972240D01*
X148706525Y-77146632D01*
X148913368Y-77353475D01*
X149156589Y-77515990D01*
X149426842Y-77627932D01*
X149713740Y-77685000D01*
X150006260Y-77685000D01*
X150293158Y-77627932D01*
X150563411Y-77515990D01*
X150806632Y-77353475D01*
X151013475Y-77146632D01*
X151130000Y-76972240D01*
X151246525Y-77146632D01*
X151453368Y-77353475D01*
X151696589Y-77515990D01*
X151966842Y-77627932D01*
X152253740Y-77685000D01*
X152546260Y-77685000D01*
X152833158Y-77627932D01*
X153103411Y-77515990D01*
X153346632Y-77353475D01*
X153553475Y-77146632D01*
X153670000Y-76972240D01*
X153786525Y-77146632D01*
X153993368Y-77353475D01*
X154236589Y-77515990D01*
X154506842Y-77627932D01*
X154793740Y-77685000D01*
X155086260Y-77685000D01*
X155373158Y-77627932D01*
X155643411Y-77515990D01*
X155886632Y-77353475D01*
X156093475Y-77146632D01*
X156210000Y-76972240D01*
X156326525Y-77146632D01*
X156533368Y-77353475D01*
X156776589Y-77515990D01*
X157046842Y-77627932D01*
X157333740Y-77685000D01*
X157626260Y-77685000D01*
X157913158Y-77627932D01*
X158183411Y-77515990D01*
X158426632Y-77353475D01*
X158633475Y-77146632D01*
X158750000Y-76972240D01*
X158866525Y-77146632D01*
X159073368Y-77353475D01*
X159316589Y-77515990D01*
X159586842Y-77627932D01*
X159873740Y-77685000D01*
X160166260Y-77685000D01*
X160453158Y-77627932D01*
X160723411Y-77515990D01*
X160966632Y-77353475D01*
X161173475Y-77146632D01*
X161290000Y-76972240D01*
X161406525Y-77146632D01*
X161613368Y-77353475D01*
X161856589Y-77515990D01*
X162126842Y-77627932D01*
X162413740Y-77685000D01*
X162706260Y-77685000D01*
X162993158Y-77627932D01*
X163263411Y-77515990D01*
X163506632Y-77353475D01*
X163638487Y-77221620D01*
X163660498Y-77294180D01*
X163719463Y-77404494D01*
X163798815Y-77501185D01*
X163895506Y-77580537D01*
X164005820Y-77639502D01*
X164125518Y-77675812D01*
X164250000Y-77688072D01*
X165950000Y-77688072D01*
X166074482Y-77675812D01*
X166194180Y-77639502D01*
X166304494Y-77580537D01*
X166401185Y-77501185D01*
X166480537Y-77404494D01*
X166539502Y-77294180D01*
X166575812Y-77174482D01*
X166588072Y-77050000D01*
X166588072Y-75350000D01*
X166575812Y-75225518D01*
X166539502Y-75105820D01*
X166480537Y-74995506D01*
X166401185Y-74898815D01*
X166304494Y-74819463D01*
X166194180Y-74760498D01*
X166074482Y-74724188D01*
X165950000Y-74711928D01*
X164250000Y-74711928D01*
X164125518Y-74724188D01*
X164005820Y-74760498D01*
X163895506Y-74819463D01*
X163798815Y-74898815D01*
X163719463Y-74995506D01*
X163660498Y-75105820D01*
X163638487Y-75178380D01*
X163506632Y-75046525D01*
X163263411Y-74884010D01*
X162993158Y-74772068D01*
X162706260Y-74715000D01*
X162413740Y-74715000D01*
X162126842Y-74772068D01*
X161856589Y-74884010D01*
X161613368Y-75046525D01*
X161406525Y-75253368D01*
X161290000Y-75427760D01*
X161173475Y-75253368D01*
X160966632Y-75046525D01*
X160723411Y-74884010D01*
X160453158Y-74772068D01*
X160166260Y-74715000D01*
X159873740Y-74715000D01*
X159586842Y-74772068D01*
X159316589Y-74884010D01*
X159073368Y-75046525D01*
X158866525Y-75253368D01*
X158750000Y-75427760D01*
X158633475Y-75253368D01*
X158426632Y-75046525D01*
X158183411Y-74884010D01*
X157913158Y-74772068D01*
X157626260Y-74715000D01*
X157333740Y-74715000D01*
X157046842Y-74772068D01*
X156776589Y-74884010D01*
X156533368Y-75046525D01*
X156326525Y-75253368D01*
X156210000Y-75427760D01*
X156093475Y-75253368D01*
X155886632Y-75046525D01*
X155643411Y-74884010D01*
X155373158Y-74772068D01*
X155086260Y-74715000D01*
X154793740Y-74715000D01*
X154506842Y-74772068D01*
X154236589Y-74884010D01*
X153993368Y-75046525D01*
X153786525Y-75253368D01*
X153670000Y-75427760D01*
X153553475Y-75253368D01*
X153346632Y-75046525D01*
X153103411Y-74884010D01*
X152833158Y-74772068D01*
X152546260Y-74715000D01*
X152253740Y-74715000D01*
X151966842Y-74772068D01*
X151696589Y-74884010D01*
X151453368Y-75046525D01*
X151246525Y-75253368D01*
X151130000Y-75427760D01*
X151013475Y-75253368D01*
X150806632Y-75046525D01*
X150563411Y-74884010D01*
X150293158Y-74772068D01*
X150006260Y-74715000D01*
X149713740Y-74715000D01*
X149426842Y-74772068D01*
X149156589Y-74884010D01*
X148913368Y-75046525D01*
X148706525Y-75253368D01*
X148590000Y-75427760D01*
X148473475Y-75253368D01*
X148266632Y-75046525D01*
X148023411Y-74884010D01*
X147753158Y-74772068D01*
X147466260Y-74715000D01*
X147173740Y-74715000D01*
X146886842Y-74772068D01*
X146616589Y-74884010D01*
X146373368Y-75046525D01*
X146166525Y-75253368D01*
X146004010Y-75496589D01*
X145892068Y-75766842D01*
X145835000Y-76053740D01*
X144744072Y-76053740D01*
X144744072Y-75350000D01*
X144731812Y-75225518D01*
X144695502Y-75105820D01*
X144636537Y-74995506D01*
X144557185Y-74898815D01*
X144460494Y-74819463D01*
X144350180Y-74760498D01*
X144230482Y-74724188D01*
X144106000Y-74711928D01*
X142406000Y-74711928D01*
X142281518Y-74724188D01*
X142161820Y-74760498D01*
X142051506Y-74819463D01*
X141954815Y-74898815D01*
X141875463Y-74995506D01*
X141816498Y-75105820D01*
X141794487Y-75178380D01*
X141662632Y-75046525D01*
X141419411Y-74884010D01*
X141149158Y-74772068D01*
X140862260Y-74715000D01*
X140569740Y-74715000D01*
X140282842Y-74772068D01*
X140012589Y-74884010D01*
X139769368Y-75046525D01*
X139562525Y-75253368D01*
X139446000Y-75427760D01*
X139329475Y-75253368D01*
X139122632Y-75046525D01*
X138879411Y-74884010D01*
X138609158Y-74772068D01*
X138322260Y-74715000D01*
X138029740Y-74715000D01*
X137742842Y-74772068D01*
X137472589Y-74884010D01*
X137229368Y-75046525D01*
X137022525Y-75253368D01*
X136906000Y-75427760D01*
X136789475Y-75253368D01*
X136582632Y-75046525D01*
X136339411Y-74884010D01*
X136069158Y-74772068D01*
X135782260Y-74715000D01*
X135489740Y-74715000D01*
X135202842Y-74772068D01*
X134932589Y-74884010D01*
X134689368Y-75046525D01*
X134482525Y-75253368D01*
X134366000Y-75427760D01*
X134249475Y-75253368D01*
X134042632Y-75046525D01*
X133799411Y-74884010D01*
X133529158Y-74772068D01*
X133242260Y-74715000D01*
X132949740Y-74715000D01*
X132662842Y-74772068D01*
X132392589Y-74884010D01*
X132149368Y-75046525D01*
X131942525Y-75253368D01*
X131826000Y-75427760D01*
X131709475Y-75253368D01*
X131502632Y-75046525D01*
X131259411Y-74884010D01*
X130989158Y-74772068D01*
X130702260Y-74715000D01*
X130409740Y-74715000D01*
X130122842Y-74772068D01*
X129852589Y-74884010D01*
X129609368Y-75046525D01*
X129402525Y-75253368D01*
X129280805Y-75435534D01*
X129211178Y-75318645D01*
X129016269Y-75102412D01*
X128782920Y-74928359D01*
X128520099Y-74803175D01*
X128372890Y-74758524D01*
X128143000Y-74879845D01*
X128143000Y-76073000D01*
X128163000Y-76073000D01*
X128163000Y-76327000D01*
X128143000Y-76327000D01*
X128143000Y-77520155D01*
X128372890Y-77641476D01*
X128520099Y-77596825D01*
X128782920Y-77471641D01*
X129016269Y-77297588D01*
X129211178Y-77081355D01*
X129280805Y-76964466D01*
X129402525Y-77146632D01*
X129609368Y-77353475D01*
X129796000Y-77478179D01*
X129796000Y-77790198D01*
X128855219Y-78730980D01*
X112925431Y-78730980D01*
X112888108Y-78727304D01*
X112850785Y-78730980D01*
X112850776Y-78730980D01*
X112739123Y-78741977D01*
X112595862Y-78785434D01*
X112463833Y-78856006D01*
X112348108Y-78950979D01*
X112324310Y-78979977D01*
X109001514Y-82302773D01*
X109110325Y-82040081D01*
X109177000Y-81704883D01*
X109177000Y-81363117D01*
X109110325Y-81027919D01*
X108979537Y-80712169D01*
X108789663Y-80428002D01*
X108547998Y-80186337D01*
X108263831Y-79996463D01*
X107948081Y-79865675D01*
X107612883Y-79799000D01*
X107271117Y-79799000D01*
X106935919Y-79865675D01*
X106620169Y-79996463D01*
X106336002Y-80186337D01*
X106094337Y-80428002D01*
X105904463Y-80712169D01*
X105773675Y-81027919D01*
X105707000Y-81363117D01*
X105707000Y-81704883D01*
X105773675Y-82040081D01*
X105904463Y-82355831D01*
X106094337Y-82639998D01*
X106336002Y-82881663D01*
X106620169Y-83071537D01*
X106935919Y-83202325D01*
X107271117Y-83269000D01*
X107612883Y-83269000D01*
X107948081Y-83202325D01*
X108210773Y-83093514D01*
X102939919Y-88364369D01*
X102910921Y-88388167D01*
X102887123Y-88417165D01*
X102887122Y-88417166D01*
X102815947Y-88503892D01*
X102745375Y-88635922D01*
X102701919Y-88779183D01*
X102687245Y-88928168D01*
X102690922Y-88965500D01*
X102690920Y-109509598D01*
X102687244Y-109546920D01*
X102260000Y-109546920D01*
X102260000Y-74320000D01*
X115630726Y-74320000D01*
X115415271Y-74463962D01*
G37*
%TD.AperFunction*%
D16*
X119104999Y-81369200D02*
X119076001Y-81392998D01*
X119052203Y-81421996D01*
X119052202Y-81421997D01*
X118981027Y-81508723D01*
X118910455Y-81640753D01*
X118866999Y-81784014D01*
X118852325Y-81932999D01*
X118856002Y-81970331D01*
X118856002Y-84461491D01*
X118632335Y-84417000D01*
X118349665Y-84417000D01*
X118072426Y-84472147D01*
X117811273Y-84580320D01*
X117576241Y-84737363D01*
X117376363Y-84937241D01*
X117219320Y-85172273D01*
X117111147Y-85433426D01*
X117056000Y-85710665D01*
X117056000Y-85993335D01*
X117111147Y-86270574D01*
X117219320Y-86531727D01*
X117376363Y-86766759D01*
X117576241Y-86966637D01*
X117811273Y-87123680D01*
X118072426Y-87231853D01*
X118349665Y-87287000D01*
X118632335Y-87287000D01*
X118856001Y-87242509D01*
X118856001Y-92032197D01*
X118854270Y-92033928D01*
X117691000Y-92033928D01*
X117566518Y-92046188D01*
X117446820Y-92082498D01*
X117336506Y-92141463D01*
X117239815Y-92220815D01*
X117160463Y-92317506D01*
X117101498Y-92427820D01*
X117065188Y-92547518D01*
X117052928Y-92672000D01*
X117052928Y-92712000D01*
X110273322Y-92712000D01*
X110235999Y-92708324D01*
X110198676Y-92712000D01*
X110198667Y-92712000D01*
X110087014Y-92722997D01*
X109943753Y-92766454D01*
X109811724Y-92837026D01*
X109695999Y-92931999D01*
X109672201Y-92960997D01*
X108680592Y-93952606D01*
X108539613Y-93612251D01*
X108278597Y-93221613D01*
X107946387Y-92889403D01*
X107555749Y-92628387D01*
X107299047Y-92522058D01*
X107373489Y-92498354D01*
X107729961Y-92307815D01*
X107916046Y-91966651D01*
X106426000Y-90476605D01*
X106411858Y-90490748D01*
X106232253Y-90311143D01*
X106246395Y-90297000D01*
X106605605Y-90297000D01*
X108095651Y-91787046D01*
X108436815Y-91600961D01*
X108652568Y-91183616D01*
X108782755Y-90732198D01*
X108822374Y-90264056D01*
X108769901Y-89797179D01*
X108627354Y-89349511D01*
X108436815Y-88993039D01*
X108095651Y-88806954D01*
X106605605Y-90297000D01*
X106246395Y-90297000D01*
X106232253Y-90282858D01*
X106411858Y-90103253D01*
X106426000Y-90117395D01*
X107916046Y-88627349D01*
X107729961Y-88286185D01*
X107312616Y-88070432D01*
X106861198Y-87940245D01*
X106792297Y-87934414D01*
X113575712Y-81151000D01*
X119323199Y-81151000D01*
X119104999Y-81369200D01*
%TA.AperFunction,Conductor*%
D17*
G36*
X119104999Y-81369200D02*
G01*
X119076001Y-81392998D01*
X119052203Y-81421996D01*
X119052202Y-81421997D01*
X118981027Y-81508723D01*
X118910455Y-81640753D01*
X118866999Y-81784014D01*
X118852325Y-81932999D01*
X118856002Y-81970331D01*
X118856002Y-84461491D01*
X118632335Y-84417000D01*
X118349665Y-84417000D01*
X118072426Y-84472147D01*
X117811273Y-84580320D01*
X117576241Y-84737363D01*
X117376363Y-84937241D01*
X117219320Y-85172273D01*
X117111147Y-85433426D01*
X117056000Y-85710665D01*
X117056000Y-85993335D01*
X117111147Y-86270574D01*
X117219320Y-86531727D01*
X117376363Y-86766759D01*
X117576241Y-86966637D01*
X117811273Y-87123680D01*
X118072426Y-87231853D01*
X118349665Y-87287000D01*
X118632335Y-87287000D01*
X118856001Y-87242509D01*
X118856001Y-92032197D01*
X118854270Y-92033928D01*
X117691000Y-92033928D01*
X117566518Y-92046188D01*
X117446820Y-92082498D01*
X117336506Y-92141463D01*
X117239815Y-92220815D01*
X117160463Y-92317506D01*
X117101498Y-92427820D01*
X117065188Y-92547518D01*
X117052928Y-92672000D01*
X117052928Y-92712000D01*
X110273322Y-92712000D01*
X110235999Y-92708324D01*
X110198676Y-92712000D01*
X110198667Y-92712000D01*
X110087014Y-92722997D01*
X109943753Y-92766454D01*
X109811724Y-92837026D01*
X109695999Y-92931999D01*
X109672201Y-92960997D01*
X108680592Y-93952606D01*
X108539613Y-93612251D01*
X108278597Y-93221613D01*
X107946387Y-92889403D01*
X107555749Y-92628387D01*
X107299047Y-92522058D01*
X107373489Y-92498354D01*
X107729961Y-92307815D01*
X107916046Y-91966651D01*
X106426000Y-90476605D01*
X106411858Y-90490748D01*
X106232253Y-90311143D01*
X106246395Y-90297000D01*
X106605605Y-90297000D01*
X108095651Y-91787046D01*
X108436815Y-91600961D01*
X108652568Y-91183616D01*
X108782755Y-90732198D01*
X108822374Y-90264056D01*
X108769901Y-89797179D01*
X108627354Y-89349511D01*
X108436815Y-88993039D01*
X108095651Y-88806954D01*
X106605605Y-90297000D01*
X106246395Y-90297000D01*
X106232253Y-90282858D01*
X106411858Y-90103253D01*
X106426000Y-90117395D01*
X107916046Y-88627349D01*
X107729961Y-88286185D01*
X107312616Y-88070432D01*
X106861198Y-87940245D01*
X106792297Y-87934414D01*
X113575712Y-81151000D01*
X119323199Y-81151000D01*
X119104999Y-81369200D01*
G37*
%TD.AperFunction*%
%TD*%
M02*
